<?plantuml 1.2026.1?><svg xmlns="http://www.w3.org/2000/svg" xmlns:xlink="http://www.w3.org/1999/xlink" contentStyleType="text/css" data-diagram-type="CLASS" height="960px" preserveAspectRatio="none" style="width:345px;height:960px;background:#FFFFFF;" version="1.1" viewBox="0 0 345 960" width="345px" zoomAndPan="magnify"><defs/><g><!--class User--><g class="entity" data-qualified-name="User" data-source-line="2" id="ent0002"><rect fill="#F1F1F1" height="96.8906" rx="2.5" ry="2.5" style="stroke:#181818;stroke-width:0.5;" width="118.0732" x="104.94" y="7"/><ellipse cx="144.3134" cy="23" fill="#ADD1B2" rx="11" ry="11" style="stroke:#181818;stroke-width:1;"/><path d="M148.4228,29 L140.704,29 L140.704,16.6094 L148.4228,16.6094 L148.4228,18.7656 L143.1571,18.7656 L143.1571,21.4375 L147.9228,21.4375 L147.9228,23.5938 L143.1571,23.5938 L143.1571,26.8438 L148.4228,26.8438 L148.4228,29 Z " fill="#000000"/><text fill="#000000" font-family="sans-serif" font-size="14" lengthAdjust="spacing" textLength="31.9102" x="163.7297" y="27.8467">User</text><line style="stroke:#181818;stroke-width:0.5;" x1="105.94" x2="222.0132" y1="39" y2="39"/><g data-visibility-modifier="PUBLIC_FIELD"><ellipse cx="115.94" cy="52.6484" fill="none" rx="3" ry="3" style="stroke:#038048;stroke-width:1;"/></g><text fill="#000000" font-family="sans-serif" font-size="14" lengthAdjust="spacing" textLength="45.7734" x="124.94" y="55.9951">id [PK]</text><g data-visibility-modifier="PUBLIC_FIELD"><ellipse cx="115.94" cy="68.9453" fill="none" rx="3" ry="3" style="stroke:#038048;stroke-width:1;"/></g><text fill="#000000" font-family="sans-serif" font-size="14" lengthAdjust="spacing" textLength="92.0732" x="124.94" y="72.292">home_id [FK]</text><g data-visibility-modifier="PUBLIC_FIELD"><ellipse cx="115.94" cy="85.2422" fill="none" rx="3" ry="3" style="stroke:#038048;stroke-width:1;"/></g><text fill="#000000" font-family="sans-serif" font-size="14" lengthAdjust="spacing" textLength="13.3506" x="124.94" y="88.5889">...</text><line style="stroke:#181818;stroke-width:0.5;" x1="105.94" x2="222.0132" y1="95.8906" y2="95.8906"/></g><!--class Home--><g class="entity" data-qualified-name="Home" data-source-line="8" id="ent0003"><rect fill="#F1F1F1" height="64.2969" rx="2.5" ry="2.5" style="stroke:#181818;stroke-width:0.5;" width="89.5195" x="119.22" y="163.89"/><ellipse cx="141.4991" cy="179.89" fill="#ADD1B2" rx="11" ry="11" style="stroke:#181818;stroke-width:1;"/><path d="M145.6085,185.89 L137.8897,185.89 L137.8897,173.4994 L145.6085,173.4994 L145.6085,175.6556 L140.3429,175.6556 L140.3429,178.3275 L145.1085,178.3275 L145.1085,180.4838 L140.3429,180.4838 L140.3429,183.7338 L145.6085,183.7338 L145.6085,185.89 Z " fill="#000000"/><text fill="#000000" font-family="sans-serif" font-size="14" lengthAdjust="spacing" textLength="41.3438" x="157.1167" y="184.7367">Home</text><line style="stroke:#181818;stroke-width:0.5;" x1="120.22" x2="207.7395" y1="195.89" y2="195.89"/><g data-visibility-modifier="PUBLIC_FIELD"><ellipse cx="130.22" cy="209.5384" fill="none" rx="3" ry="3" style="stroke:#038048;stroke-width:1;"/></g><text fill="#000000" font-family="sans-serif" font-size="14" lengthAdjust="spacing" textLength="63.5195" x="139.22" y="212.8851">uuid [PK]</text><line style="stroke:#181818;stroke-width:0.5;" x1="120.22" x2="207.7395" y1="220.1869" y2="220.1869"/></g><!--class Category--><g class="entity" data-qualified-name="Category" data-source-line="12" id="ent0004"><rect fill="#F1F1F1" height="113.1875" rx="2.5" ry="2.5" style="stroke:#181818;stroke-width:0.5;" width="238.8848" x="44.53" y="288.19"/><ellipse cx="127.7473" cy="304.19" fill="#ADD1B2" rx="11" ry="11" style="stroke:#181818;stroke-width:1;"/><path d="M131.8567,310.19 L124.1379,310.19 L124.1379,297.7994 L131.8567,297.7994 L131.8567,299.9556 L126.591,299.9556 L126.591,302.6275 L131.3567,302.6275 L131.3567,304.7837 L126.591,304.7837 L126.591,308.0337 L131.8567,308.0337 L131.8567,310.19 Z " fill="#000000"/><text fill="#000000" font-family="sans-serif" font-size="14" lengthAdjust="spacing" textLength="63.9502" x="148.2473" y="309.0367">Category</text><line style="stroke:#181818;stroke-width:0.5;" x1="45.53" x2="282.4148" y1="320.19" y2="320.19"/><g data-visibility-modifier="PUBLIC_FIELD"><ellipse cx="55.53" cy="333.8384" fill="none" rx="3" ry="3" style="stroke:#038048;stroke-width:1;"/></g><text fill="#000000" font-family="sans-serif" font-size="14" lengthAdjust="spacing" textLength="45.7734" x="64.53" y="337.1851">id [PK]</text><g data-visibility-modifier="PUBLIC_FIELD"><ellipse cx="55.53" cy="350.1353" fill="none" rx="3" ry="3" style="stroke:#038048;stroke-width:1;"/></g><text fill="#000000" font-family="sans-serif" font-size="14" lengthAdjust="spacing" textLength="39.7031" x="64.53" y="353.482">name</text><g data-visibility-modifier="PUBLIC_FIELD"><ellipse cx="55.53" cy="366.4322" fill="none" rx="3" ry="3" style="stroke:#038048;stroke-width:1;"/></g><text fill="#000000" font-family="sans-serif" font-size="14" lengthAdjust="spacing" textLength="212.8848" x="64.53" y="369.7789">type [need, want, investment]</text><g data-visibility-modifier="PUBLIC_FIELD"><ellipse cx="55.53" cy="382.7291" fill="none" rx="3" ry="3" style="stroke:#038048;stroke-width:1;"/></g><text fill="#000000" font-family="sans-serif" font-size="14" lengthAdjust="spacing" textLength="92.0732" x="64.53" y="386.0757">home_id [FK]</text><line style="stroke:#181818;stroke-width:0.5;" x1="45.53" x2="282.4148" y1="393.3775" y2="393.3775"/></g><!--class Transaction--><g class="entity" data-qualified-name="Transaction" data-source-line="19" id="ent0005"><rect fill="#F1F1F1" height="145.7813" rx="2.5" ry="2.5" style="stroke:#181818;stroke-width:0.5;" width="140.2559" x="93.85" y="461.37"/><ellipse cx="120.5988" cy="477.37" fill="#ADD1B2" rx="11" ry="11" style="stroke:#181818;stroke-width:1;"/><path d="M124.7082,483.37 L116.9894,483.37 L116.9894,470.9794 L124.7082,470.9794 L124.7082,473.1356 L119.4425,473.1356 L119.4425,475.8075 L124.2082,475.8075 L124.2082,477.9637 L119.4425,477.9637 L119.4425,481.2137 L124.7082,481.2137 L124.7082,483.37 Z " fill="#000000"/><text fill="#000000" font-family="sans-serif" font-size="14" lengthAdjust="spacing" textLength="82.1475" x="137.2096" y="482.2167">Transaction</text><line style="stroke:#181818;stroke-width:0.5;" x1="94.85" x2="233.1059" y1="493.37" y2="493.37"/><g data-visibility-modifier="PUBLIC_FIELD"><ellipse cx="104.85" cy="507.0184" fill="none" rx="3" ry="3" style="stroke:#038048;stroke-width:1;"/></g><text fill="#000000" font-family="sans-serif" font-size="14" lengthAdjust="spacing" textLength="45.7734" x="113.85" y="510.3651">id [PK]</text><g data-visibility-modifier="PUBLIC_FIELD"><ellipse cx="104.85" cy="523.3153" fill="none" rx="3" ry="3" style="stroke:#038048;stroke-width:1;"/></g><text fill="#000000" font-family="sans-serif" font-size="14" lengthAdjust="spacing" textLength="114.2559" x="113.85" y="526.662">category_id [FK]</text><g data-visibility-modifier="PUBLIC_FIELD"><ellipse cx="104.85" cy="539.6122" fill="none" rx="3" ry="3" style="stroke:#038048;stroke-width:1;"/></g><text fill="#000000" font-family="sans-serif" font-size="14" lengthAdjust="spacing" textLength="82.9199" x="113.85" y="542.9589">user_id [FK]</text><g data-visibility-modifier="PUBLIC_FIELD"><ellipse cx="104.85" cy="555.9091" fill="none" rx="3" ry="3" style="stroke:#038048;stroke-width:1;"/></g><text fill="#000000" font-family="sans-serif" font-size="14" lengthAdjust="spacing" textLength="31.5684" x="113.85" y="559.2557">date</text><g data-visibility-modifier="PUBLIC_FIELD"><ellipse cx="104.85" cy="572.2059" fill="none" rx="3" ry="3" style="stroke:#038048;stroke-width:1;"/></g><text fill="#000000" font-family="sans-serif" font-size="14" lengthAdjust="spacing" textLength="39.7031" x="113.85" y="575.5526">name</text><g data-visibility-modifier="PUBLIC_FIELD"><ellipse cx="104.85" cy="588.5028" fill="none" rx="3" ry="3" style="stroke:#038048;stroke-width:1;"/></g><text fill="#000000" font-family="sans-serif" font-size="14" lengthAdjust="spacing" textLength="66.5137" x="113.85" y="591.8495">comment</text><line style="stroke:#181818;stroke-width:0.5;" x1="94.85" x2="233.1059" y1="599.1512" y2="599.1512"/></g><!--class SimpleTransaction--><g class="entity" data-qualified-name="SimpleTransaction" data-source-line="28" id="ent0006"><rect fill="#F1F1F1" height="96.8906" rx="2.5" ry="2.5" style="stroke:#181818;stroke-width:0.5;" width="161.9512" x="7" y="856.64"/><ellipse cx="22" cy="872.64" fill="#ADD1B2" rx="11" ry="11" style="stroke:#181818;stroke-width:1;"/><path d="M26.1094,878.64 L18.3906,878.64 L18.3906,866.2494 L26.1094,866.2494 L26.1094,868.4056 L20.8438,868.4056 L20.8438,871.0775 L25.6094,871.0775 L25.6094,873.2338 L20.8438,873.2338 L20.8438,876.4838 L26.1094,876.4838 L26.1094,878.64 Z " fill="#000000"/><text fill="#000000" font-family="sans-serif" font-size="14" lengthAdjust="spacing" textLength="129.9512" x="36" y="877.4867">SimpleTransaction</text><line style="stroke:#181818;stroke-width:0.5;" x1="8" x2="167.9512" y1="888.64" y2="888.64"/><g data-visibility-modifier="PUBLIC_FIELD"><ellipse cx="18" cy="902.2884" fill="none" rx="3" ry="3" style="stroke:#038048;stroke-width:1;"/></g><text fill="#000000" font-family="sans-serif" font-size="14" lengthAdjust="spacing" textLength="45.7734" x="27" y="905.6351">id [PK]</text><g data-visibility-modifier="PUBLIC_FIELD"><ellipse cx="18" cy="918.5853" fill="none" rx="3" ry="3" style="stroke:#038048;stroke-width:1;"/></g><text fill="#000000" font-family="sans-serif" font-size="14" lengthAdjust="spacing" textLength="131.4688" x="27" y="921.932">transaction_id [FK]</text><g data-visibility-modifier="PUBLIC_FIELD"><ellipse cx="18" cy="934.8822" fill="none" rx="3" ry="3" style="stroke:#038048;stroke-width:1;"/></g><text fill="#000000" font-family="sans-serif" font-size="14" lengthAdjust="spacing" textLength="113.3467" x="27" y="938.2289">original_amount</text><line style="stroke:#181818;stroke-width:0.5;" x1="8" x2="167.9512" y1="945.5306" y2="945.5306"/></g><!--class SplitTransaction--><g class="entity" data-qualified-name="SplitTransaction" data-source-line="34" id="ent0007"><rect fill="#F1F1F1" height="129.4844" rx="2.5" ry="2.5" style="stroke:#181818;stroke-width:0.5;" width="197.0215" x="141.46" y="667.16"/><ellipse cx="179.7844" cy="683.16" fill="#ADD1B2" rx="11" ry="11" style="stroke:#181818;stroke-width:1;"/><path d="M183.8938,689.16 L176.175,689.16 L176.175,676.7694 L183.8938,676.7694 L183.8938,678.9256 L178.6282,678.9256 L178.6282,681.5975 L183.3938,681.5975 L183.3938,683.7538 L178.6282,683.7538 L178.6282,687.0038 L183.8938,687.0038 L183.8938,689.16 Z " fill="#000000"/><text fill="#000000" font-family="sans-serif" font-size="14" lengthAdjust="spacing" textLength="113.1895" x="198.9676" y="688.0067">SplitTransaction</text><line style="stroke:#181818;stroke-width:0.5;" x1="142.46" x2="337.4815" y1="699.16" y2="699.16"/><g data-visibility-modifier="PUBLIC_FIELD"><ellipse cx="152.46" cy="712.8084" fill="none" rx="3" ry="3" style="stroke:#038048;stroke-width:1;"/></g><text fill="#000000" font-family="sans-serif" font-size="14" lengthAdjust="spacing" textLength="45.7734" x="161.46" y="716.1551">id [PK]</text><g data-visibility-modifier="PUBLIC_FIELD"><ellipse cx="152.46" cy="729.1053" fill="none" rx="3" ry="3" style="stroke:#038048;stroke-width:1;"/></g><text fill="#000000" font-family="sans-serif" font-size="14" lengthAdjust="spacing" textLength="131.4688" x="161.46" y="732.452">transaction_id [FK]</text><g data-visibility-modifier="PUBLIC_FIELD"><ellipse cx="152.46" cy="745.4022" fill="none" rx="3" ry="3" style="stroke:#038048;stroke-width:1;"/></g><text fill="#000000" font-family="sans-serif" font-size="14" lengthAdjust="spacing" textLength="128.3857" x="161.46" y="748.7489">settlement_id [FK]</text><g data-visibility-modifier="PUBLIC_FIELD"><ellipse cx="152.46" cy="761.6991" fill="none" rx="3" ry="3" style="stroke:#038048;stroke-width:1;"/></g><text fill="#000000" font-family="sans-serif" font-size="14" lengthAdjust="spacing" textLength="171.0215" x="161.46" y="765.0457">original_transaction [FK]</text><g data-visibility-modifier="PUBLIC_FIELD"><ellipse cx="152.46" cy="777.9959" fill="none" rx="3" ry="3" style="stroke:#038048;stroke-width:1;"/></g><text fill="#000000" font-family="sans-serif" font-size="14" lengthAdjust="spacing" textLength="54.0176" x="161.46" y="781.3426">amount</text><line style="stroke:#181818;stroke-width:0.5;" x1="142.46" x2="337.4815" y1="788.6444" y2="788.6444"/></g><!--class Settlement--><g class="entity" data-qualified-name="Settlement" data-source-line="42" id="ent0008"><rect fill="#F1F1F1" height="80.5938" rx="2.5" ry="2.5" style="stroke:#181818;stroke-width:0.5;" width="109.5947" x="204.18" y="864.79"/><ellipse cx="219.18" cy="880.79" fill="#ADD1B2" rx="11" ry="11" style="stroke:#181818;stroke-width:1;"/><path d="M223.2894,886.79 L215.5706,886.79 L215.5706,874.3994 L223.2894,874.3994 L223.2894,876.5556 L218.0238,876.5556 L218.0238,879.2275 L222.7894,879.2275 L222.7894,881.3838 L218.0238,881.3838 L218.0238,884.6338 L223.2894,884.6338 L223.2894,886.79 Z " fill="#000000"/><text fill="#000000" font-family="sans-serif" font-size="14" lengthAdjust="spacing" textLength="77.5947" x="233.18" y="885.6367">Settlement</text><line style="stroke:#181818;stroke-width:0.5;" x1="205.18" x2="312.7747" y1="896.79" y2="896.79"/><g data-visibility-modifier="PUBLIC_FIELD"><ellipse cx="215.18" cy="910.4384" fill="none" rx="3" ry="3" style="stroke:#038048;stroke-width:1;"/></g><text fill="#000000" font-family="sans-serif" font-size="14" lengthAdjust="spacing" textLength="45.7734" x="224.18" y="913.7851">id [PK]</text><g data-visibility-modifier="PUBLIC_FIELD"><ellipse cx="215.18" cy="926.7353" fill="none" rx="3" ry="3" style="stroke:#038048;stroke-width:1;"/></g><text fill="#000000" font-family="sans-serif" font-size="14" lengthAdjust="spacing" textLength="31.5684" x="224.18" y="930.082">date</text><line style="stroke:#181818;stroke-width:0.5;" x1="205.18" x2="312.7747" y1="937.3838" y2="937.3838"/></g><!--link User to Home--><g class="link" data-entity-1="ent0002" data-entity-2="ent0003" data-link-type="crowfoot" data-source-line="47" id="lnk9"><path codeLine="47" d="M163.98,112.14 C163.98,131.87 163.98,138.2 163.98,155.79" fill="none" id="User-Home" style="stroke:#181818;stroke-width:1;"/><line style="stroke:#181818;stroke-width:1;" x1="163.98" x2="157.98" y1="112.14" y2="104.14"/><line style="stroke:#181818;stroke-width:1;" x1="163.98" x2="169.98" y1="112.14" y2="104.14"/><line style="stroke:#181818;stroke-width:1;" x1="163.98" x2="163.98" y1="112.14" y2="104.14"/><line style="stroke:#181818;stroke-width:1;" x1="159.98" x2="167.98" y1="114.14" y2="114.14"/><line style="stroke:#181818;stroke-width:1;" x1="167.98" x2="159.98" y1="159.79" y2="159.79"/><line style="stroke:#181818;stroke-width:1;" x1="167.98" x2="159.98" y1="156.79" y2="156.79"/><line style="stroke:#181818;stroke-width:1;" x1="163.98" x2="163.98" y1="155.79" y2="163.79"/></g><!--link Home to Category--><g class="link" data-entity-1="ent0003" data-entity-2="ent0004" data-link-type="crowfoot" data-source-line="48" id="lnk10"><path codeLine="48" d="M163.98,236.52 C163.98,253.78 163.98,249.7 163.98,269.78" fill="none" id="Home-Category" style="stroke:#181818;stroke-width:1;"/><line style="stroke:#181818;stroke-width:1;" x1="159.98" x2="167.98" y1="232.52" y2="232.52"/><line style="stroke:#181818;stroke-width:1;" x1="159.98" x2="167.98" y1="235.52" y2="235.52"/><line style="stroke:#181818;stroke-width:1;" x1="163.98" x2="163.98" y1="236.52" y2="228.52"/><line style="stroke:#181818;stroke-width:1;" x1="163.98" x2="169.98" y1="279.78" y2="287.78"/><line style="stroke:#181818;stroke-width:1;" x1="163.98" x2="157.98" y1="279.78" y2="287.78"/><line style="stroke:#181818;stroke-width:1;" x1="163.98" x2="163.98" y1="279.78" y2="287.78"/><ellipse cx="163.98" cy="273.78" fill="none" rx="4" ry="4" style="stroke:#181818;stroke-width:1;"/></g><!--link Category to Transaction--><g class="link" data-entity-1="ent0004" data-entity-2="ent0005" data-link-type="crowfoot" data-source-line="49" id="lnk11"><path codeLine="49" d="M163.98,409.78 C163.98,428.34 163.98,423.26 163.98,442.88" fill="none" id="Category-Transaction" style="stroke:#181818;stroke-width:1;"/><line style="stroke:#181818;stroke-width:1;" x1="159.98" x2="167.98" y1="405.78" y2="405.78"/><line style="stroke:#181818;stroke-width:1;" x1="159.98" x2="167.98" y1="408.78" y2="408.78"/><line style="stroke:#181818;stroke-width:1;" x1="163.98" x2="163.98" y1="409.78" y2="401.78"/><line style="stroke:#181818;stroke-width:1;" x1="163.98" x2="169.98" y1="452.88" y2="460.88"/><line style="stroke:#181818;stroke-width:1;" x1="163.98" x2="157.98" y1="452.88" y2="460.88"/><line style="stroke:#181818;stroke-width:1;" x1="163.98" x2="163.98" y1="452.88" y2="460.88"/><ellipse cx="163.98" cy="446.88" fill="none" rx="4" ry="4" style="stroke:#181818;stroke-width:1;"/></g><!--link Transaction to SimpleTransaction--><g class="link" data-entity-1="ent0005" data-entity-2="ent0006" data-link-type="association" data-source-line="50" id="lnk12"><path codeLine="50" d="M137.7645,614.9876 C131.9345,634.2676 128.41,647.55 123.98,667.16 C109.28,732.08 99.8345,800.456 94.1145,848.566" fill="none" id="Transaction-SimpleTransaction" style="stroke:#181818;stroke-width:1;"/><line style="stroke:#181818;stroke-width:1;" x1="135.0934" x2="142.751" y1="610.001" y2="612.3166"/><line style="stroke:#181818;stroke-width:1;" x1="134.2251" x2="141.8827" y1="612.8726" y2="615.1881"/><line style="stroke:#181818;stroke-width:1;" x1="137.7645" x2="140.08" y1="614.9876" y2="607.33"/><line style="stroke:#181818;stroke-width:1;" x1="97.6143" x2="89.6702" y1="853.0102" y2="852.0657"/><line style="stroke:#181818;stroke-width:1;" x1="97.9685" x2="90.0244" y1="850.0312" y2="849.0867"/><line style="stroke:#181818;stroke-width:1;" x1="94.1145" x2="93.17" y1="848.566" y2="856.51"/></g><!--link Transaction to SplitTransaction--><g class="link" data-entity-1="ent0005" data-entity-2="ent0007" data-link-type="crowfoot" data-source-line="51" id="lnk13"><path codeLine="51" d="M194.9564,615.0073 C202.5264,634.4973 201.2428,631.1913 208.6228,650.1913" fill="none" id="Transaction-SplitTransaction" style="stroke:#181818;stroke-width:1;"/><line style="stroke:#181818;stroke-width:1;" x1="189.7796" x2="197.2368" y1="612.7268" y2="609.8304"/><line style="stroke:#181818;stroke-width:1;" x1="190.8657" x2="198.323" y1="615.5233" y2="612.6269"/><line style="stroke:#181818;stroke-width:1;" x1="194.9564" x2="192.06" y1="615.0073" y2="607.55"/><line style="stroke:#181818;stroke-width:1;" x1="212.2435" x2="220.7329" y1="659.5128" y2="664.7976"/><line style="stroke:#181818;stroke-width:1;" x1="212.2435" x2="209.5471" y1="659.5128" y2="669.1424"/><line style="stroke:#181818;stroke-width:1;" x1="212.2435" x2="215.14" y1="659.5128" y2="666.97"/><ellipse cx="210.0711" cy="653.9199" fill="none" rx="4" ry="4" style="stroke:#181818;stroke-width:1;"/></g><!--link SplitTransaction to Settlement--><g class="link" data-entity-1="ent0007" data-entity-2="ent0008" data-link-type="crowfoot" data-source-line="52" id="lnk14"><path codeLine="52" d="M247.9838,805.081 C250.4938,827.661 251.4661,836.459 253.6861,856.429" fill="none" id="SplitTransaction-Settlement" style="stroke:#181818;stroke-width:1;"/><line style="stroke:#181818;stroke-width:1;" x1="247.9838" x2="241.1367" y1="805.081" y2="797.7929"/><line style="stroke:#181818;stroke-width:1;" x1="247.9838" x2="253.0633" y1="805.081" y2="796.4671"/><line style="stroke:#181818;stroke-width:1;" x1="247.9838" x2="247.1" y1="805.081" y2="797.13"/><line style="stroke:#181818;stroke-width:1;" x1="244.2293" x2="252.1803" y1="807.5107" y2="806.6269"/><line style="stroke:#181818;stroke-width:1;" x1="258.1036" x2="250.1525" y1="859.9625" y2="860.8464"/><line style="stroke:#181818;stroke-width:1;" x1="257.7721" x2="249.8211" y1="856.9809" y2="857.8648"/><line style="stroke:#181818;stroke-width:1;" x1="253.6861" x2="254.57" y1="856.429" y2="864.38"/></g><!--link SplitTransaction to SimpleTransaction--><g class="link" data-entity-1="ent0007" data-entity-2="ent0006" data-link-type="crowfoot" data-source-line="53" id="lnk15"><path codeLine="53" d="M177.6298,803.1135 C160.1998,822.7535 151.9627,832.0287 135.6727,850.3687" fill="none" id="SplitTransaction-SimpleTransaction" style="stroke:#181818;stroke-width:1;"/><line style="stroke:#181818;stroke-width:1;" x1="177.6298" x2="178.4524" y1="803.1135" y2="793.1474"/><line style="stroke:#181818;stroke-width:1;" x1="177.6298" x2="187.4276" y1="803.1135" y2="801.1126"/><line style="stroke:#181818;stroke-width:1;" x1="177.6298" x2="182.94" y1="803.1135" y2="797.13"/><line style="stroke:#181818;stroke-width:1;" x1="173.3105" x2="179.294" y1="801.9543" y2="807.2644"/><line style="stroke:#181818;stroke-width:1;" x1="136.007" x2="130.0257" y1="856.0157" y2="850.703"/><line style="stroke:#181818;stroke-width:1;" x1="137.9992" x2="132.018" y1="853.7727" y2="848.4601"/><line style="stroke:#181818;stroke-width:1;" x1="135.6727" x2="130.36" y1="850.3687" y2="856.35"/></g><?plantuml-src dPBFYi8m4CRlUOgvh_Ob5aJm8gnx4f7G3Xfeaj9EbM9yTzCOcyPaFUmjp9_VzyrCK96W0NuxRE760Bv0LB3VRWxkVTOIZsDWvGD5KR0xO_ZiMjkqx-hxLrz8VtF2asw735XnYUv1GuEmLuZL0gvSqGA4kc17qZ8o7W9yrtBLyPA4LXb-wQKZyxqTCWfKjYgsKsevAizqVeHiQloiHY4RyNKhJaBn-iYbxcDgKmlw7xH3eXf7btcjML_8fWOcIaRQxSNMkbznDykbCUxMp1tSs82-JTTbqvbzOZOMcuzedg1aeKcHPRplXoKByxR277-N988F?></g></svg>