<?plantuml 1.2026.1?><svg xmlns="http://www.w3.org/2000/svg" xmlns:xlink="http://www.w3.org/1999/xlink" contentStyleType="text/css" data-diagram-type="CLASS" height="430px" preserveAspectRatio="none" style="width:992px;height:430px;background:#000000;" version="1.1" viewBox="0 0 992 430" width="992px" zoomAndPan="magnify"><defs/><g><!--class Category--><g class="entity" data-qualified-name="Category" data-source-line="4" id="ent0002"><rect fill="#000000" height="74.8906" rx="2.5" ry="2.5" style="stroke:#FFFFFF;stroke-width:1;" width="266.6533" x="12" y="213.08"/><ellipse cx="109.8516" cy="226.2284" fill="#000000" rx="8" ry="8" style="stroke:#FFFFFF;stroke-width:1;"/><path d="M111.8047,229.3222 Q111.2891,229.6034 110.7266,229.7284 Q110.1641,229.8691 109.5547,229.8691 Q107.7266,229.8691 106.6641,228.8534 Q105.6016,227.8378 105.6016,226.0878 Q105.6016,224.3378 106.6641,223.3222 Q107.7266,222.3066 109.5547,222.3066 Q110.1641,222.3066 110.7266,222.4472 Q111.2891,222.5722 111.8047,222.8534 L111.8047,224.3534 Q111.2734,223.9941 110.7578,223.8378 Q110.2578,223.6659 109.6953,223.6659 Q108.6953,223.6659 108.1172,224.3222 Q107.5391,224.9628 107.5391,226.0878 Q107.5391,227.2128 108.1172,227.8691 Q108.6953,228.5097 109.6953,228.5097 Q110.2578,228.5097 110.7578,228.3534 Q111.2734,228.1816 111.8047,227.8222 L111.8047,229.3222 Z " fill="#FFFFFF"/><text fill="#FFFFFF" font-family="Hack" font-size="14" lengthAdjust="spacing" textLength="63.9502" x="125.8516" y="231.0751">Category</text><line style="stroke:#FFFFFF;stroke-width:1;" x1="13" x2="277.6533" y1="239.3769" y2="239.3769"/><g data-visibility-modifier="PRIVATE_FIELD"><rect fill="none" height="6" style="stroke:#FFFFFF;stroke-width:1;" width="6" x="20" y="250.0253"/></g><text fill="#FFFFFF" font-family="Hack" font-size="14" lengthAdjust="spacing" textLength="39.7031" x="29" y="256.372">name</text><g data-visibility-modifier="PRIVATE_FIELD"><rect fill="none" height="6" style="stroke:#FFFFFF;stroke-width:1;" width="6" x="20" y="266.3222"/></g><text fill="#FFFFFF" font-family="Hack" font-size="14" lengthAdjust="spacing" textLength="243.6533" x="29" y="272.6689">type : 'need' | 'want' | 'investment'</text><line style="stroke:#FFFFFF;stroke-width:1;" x1="13" x2="277.6533" y1="279.9706" y2="279.9706"/></g><!--class Home--><g class="entity" data-qualified-name="Home" data-source-line="9" id="ent0003"><rect fill="#000000" height="58.5938" rx="2.5" ry="2.5" style="stroke:#FFFFFF;stroke-width:1;" width="67.3438" x="206.65" y="364.97"/><ellipse cx="218.65" cy="378.1184" fill="#000000" rx="8" ry="8" style="stroke:#FFFFFF;stroke-width:1;"/><path d="M220.6031,381.2122 Q220.0875,381.4934 219.525,381.6184 Q218.9625,381.7591 218.3531,381.7591 Q216.525,381.7591 215.4625,380.7434 Q214.4,379.7278 214.4,377.9778 Q214.4,376.2278 215.4625,375.2122 Q216.525,374.1966 218.3531,374.1966 Q218.9625,374.1966 219.525,374.3372 Q220.0875,374.4622 220.6031,374.7434 L220.6031,376.2434 Q220.0719,375.8841 219.5563,375.7278 Q219.0563,375.5559 218.4938,375.5559 Q217.4938,375.5559 216.9156,376.2122 Q216.3375,376.8528 216.3375,377.9778 Q216.3375,379.1028 216.9156,379.7591 Q217.4938,380.3997 218.4938,380.3997 Q219.0563,380.3997 219.5563,380.2434 Q220.0719,380.0716 220.6031,379.7122 L220.6031,381.2122 Z " fill="#FFFFFF"/><text fill="#FFFFFF" font-family="Hack" font-size="14" lengthAdjust="spacing" textLength="41.3438" x="229.65" y="382.9651">Home</text><line style="stroke:#FFFFFF;stroke-width:1;" x1="207.65" x2="272.9938" y1="391.2669" y2="391.2669"/><g data-visibility-modifier="PRIVATE_FIELD"><rect fill="none" height="6" style="stroke:#FFFFFF;stroke-width:1;" width="6" x="214.65" y="401.9153"/></g><text fill="#FFFFFF" font-family="Hack" font-size="14" lengthAdjust="spacing" textLength="30.5225" x="223.65" y="408.262">uuid</text><line style="stroke:#FFFFFF;stroke-width:1;" x1="207.65" x2="272.9938" y1="415.5637" y2="415.5637"/></g><!--class User--><g class="entity" data-qualified-name="User" data-source-line="13" id="ent0004"><rect fill="#000000" height="42.2969" rx="2.5" ry="2.5" style="stroke:#FFFFFF;stroke-width:1;" width="57.9102" x="313.37" y="229.37"/><ellipse cx="325.37" cy="242.5184" fill="#000000" rx="8" ry="8" style="stroke:#FFFFFF;stroke-width:1;"/><path d="M327.3231,245.6122 Q326.8075,245.8934 326.245,246.0184 Q325.6825,246.1591 325.0731,246.1591 Q323.245,246.1591 322.1825,245.1434 Q321.12,244.1278 321.12,242.3778 Q321.12,240.6278 322.1825,239.6122 Q323.245,238.5966 325.0731,238.5966 Q325.6825,238.5966 326.245,238.7372 Q326.8075,238.8622 327.3231,239.1434 L327.3231,240.6434 Q326.7919,240.2841 326.2763,240.1278 Q325.7763,239.9559 325.2138,239.9559 Q324.2138,239.9559 323.6356,240.6122 Q323.0575,241.2528 323.0575,242.3778 Q323.0575,243.5028 323.6356,244.1591 Q324.2138,244.7997 325.2138,244.7997 Q325.7763,244.7997 326.2763,244.6434 Q326.7919,244.4716 327.3231,244.1122 L327.3231,245.6122 Z " fill="#FFFFFF"/><text fill="#FFFFFF" font-family="Hack" font-size="14" lengthAdjust="spacing" textLength="31.9102" x="336.37" y="247.3651">User</text><line style="stroke:#FFFFFF;stroke-width:1;" x1="314.37" x2="370.2802" y1="255.6669" y2="255.6669"/><line style="stroke:#FFFFFF;stroke-width:1;" x1="314.37" x2="370.2802" y1="263.6669" y2="263.6669"/></g><!--class Transaction--><g class="entity" data-qualified-name="Transaction" data-source-line="15" id="ent0005"><rect fill="#000000" height="140.0781" rx="2.5" ry="2.5" style="stroke:#FFFFFF;stroke-width:1;" width="198.6016" x="304.03" y="12"/><ellipse cx="358.7571" cy="25.1484" fill="#000000" rx="8" ry="8" style="stroke:#FFFFFF;stroke-width:1;"/><path d="M359.1008,26.3203 L356.1633,26.3203 L355.6946,27.6484 L353.8039,27.6484 L356.5071,20.3516 L358.7414,20.3516 L361.4446,27.6484 L359.5539,27.6484 L359.1008,26.3203 Z M356.6321,24.9609 L358.6321,24.9609 L357.6321,22.0703 L356.6321,24.9609 Z " fill="#FFFFFF"/><text fill="#FFFFFF" font-family="Hack" font-size="14" font-style="italic" lengthAdjust="spacing" textLength="82.1475" x="374.7571" y="29.9951">Transaction</text><line style="stroke:#FFFFFF;stroke-width:1;" x1="305.03" x2="501.6316" y1="38.2969" y2="38.2969"/><g data-visibility-modifier="PRIVATE_FIELD"><rect fill="none" height="6" style="stroke:#FFFFFF;stroke-width:1;" width="6" x="312.03" y="48.9453"/></g><text fill="#FFFFFF" font-family="Hack" font-size="14" lengthAdjust="spacing" textLength="113.3398" x="321.03" y="55.292">date : DateTime</text><g data-visibility-modifier="PRIVATE_FIELD"><rect fill="none" height="6" style="stroke:#FFFFFF;stroke-width:1;" width="6" x="312.03" y="65.2422"/></g><text fill="#FFFFFF" font-family="Hack" font-size="14" lengthAdjust="spacing" textLength="93.5088" x="321.03" y="71.5889">name : string</text><g data-visibility-modifier="PRIVATE_FIELD"><rect fill="none" height="6" style="stroke:#FFFFFF;stroke-width:1;" width="6" x="312.03" y="81.5391"/></g><text fill="#FFFFFF" font-family="Hack" font-size="14" lengthAdjust="spacing" textLength="120.3193" x="321.03" y="87.8857">comment : string</text><g data-visibility-modifier="PRIVATE_FIELD"><rect fill="none" height="6" style="stroke:#FFFFFF;stroke-width:1;" width="6" x="312.03" y="97.8359"/></g><text fill="#FFFFFF" font-family="Hack" font-size="14" lengthAdjust="spacing" textLength="175.6016" x="321.03" y="104.1826">originalAmount : number</text><line style="stroke:#FFFFFF;stroke-width:1;" x1="305.03" x2="501.6316" y1="111.4844" y2="111.4844"/><g data-visibility-modifier="PRIVATE_METHOD"><rect fill="#000000" height="6" style="stroke:#FFFFFF;stroke-width:1;" width="6" x="312.03" y="122.1328"/></g><text fill="#FFFFFF" font-family="Hack" font-size="14" lengthAdjust="spacing" textLength="141.5654" x="321.03" y="128.4795">isSettled() : boolean</text><g data-visibility-modifier="PRIVATE_METHOD"><rect fill="#000000" height="6" style="stroke:#FFFFFF;stroke-width:1;" width="6" x="312.03" y="138.4297"/></g><text fill="#FFFFFF" font-family="Hack" font-size="14" lengthAdjust="spacing" textLength="88.9287" x="321.03" y="144.7764">getAmount()</text></g><path d="M537.4,56.9 L537.4,73.0328 L496.6316,99.3359 L537.4,81.0328 L537.4,97.1656 A0,0 0 0 0 537.4,97.1656 L985.2608,97.1656 A0,0 0 0 0 985.2608,97.1656 L985.2608,66.9 L975.2608,56.9 L537.4,56.9 A0,0 0 0 0 537.4,56.9" fill="#000000" style="stroke:#FFFFFF;stroke-width:1;"/><path d="M975.2608,56.9 L975.2608,66.9 L985.2608,66.9 L975.2608,56.9" fill="#000000" style="stroke:#FFFFFF;stroke-width:1;"/><text fill="#FFFFFF" font-family="Hack" font-size="13" lengthAdjust="spacing" textLength="417.4219" x="543.4" y="73.9669">- negative value means money going out of the payer's account</text><text fill="#FFFFFF" font-family="Hack" font-size="13" lengthAdjust="spacing" textLength="426.8608" x="543.4" y="89.0997">- positive value means money comming in to the payer's account</text><!--class SimpleTransaction--><g class="entity" data-qualified-name="SimpleTransaction" data-source-line="29" id="ent0008"><rect fill="#000000" height="58.5938" rx="2.5" ry="2.5" style="stroke:#FFFFFF;stroke-width:1;" width="164.5654" x="342.04" y="364.97"/><ellipse cx="357.9164" cy="378.1184" fill="#000000" rx="8" ry="8" style="stroke:#FFFFFF;stroke-width:1;"/><path d="M359.8695,381.2122 Q359.3539,381.4934 358.7914,381.6184 Q358.2289,381.7591 357.6195,381.7591 Q355.7914,381.7591 354.7289,380.7434 Q353.6664,379.7278 353.6664,377.9778 Q353.6664,376.2278 354.7289,375.2122 Q355.7914,374.1966 357.6195,374.1966 Q358.2289,374.1966 358.7914,374.3372 Q359.3539,374.4622 359.8695,374.7434 L359.8695,376.2434 Q359.3383,375.8841 358.8227,375.7278 Q358.3227,375.5559 357.7602,375.5559 Q356.7602,375.5559 356.182,376.2122 Q355.6039,376.8528 355.6039,377.9778 Q355.6039,379.1028 356.182,379.7591 Q356.7602,380.3997 357.7602,380.3997 Q358.3227,380.3997 358.8227,380.2434 Q359.3383,380.0716 359.8695,379.7122 L359.8695,381.2122 Z " fill="#FFFFFF"/><text fill="#FFFFFF" font-family="Hack" font-size="14" lengthAdjust="spacing" textLength="129.9512" x="369.7778" y="382.9651">SimpleTransaction</text><line style="stroke:#FFFFFF;stroke-width:1;" x1="343.04" x2="505.6054" y1="391.2669" y2="391.2669"/><line style="stroke:#FFFFFF;stroke-width:1;" x1="343.04" x2="505.6054" y1="399.2669" y2="399.2669"/><g data-visibility-modifier="PRIVATE_METHOD"><rect fill="#000000" height="6" style="stroke:#FFFFFF;stroke-width:1;" width="6" x="350.04" y="409.9153"/></g><text fill="#FFFFFF" font-family="Hack" font-size="14" lengthAdjust="spacing" textLength="141.5654" x="359.04" y="416.262">isSettled() : boolean</text></g><!--class SplitTransaction--><g class="entity" data-qualified-name="SplitTransaction" data-source-line="33" id="ent0010"><rect fill="#000000" height="58.5938" rx="2.5" ry="2.5" style="stroke:#FFFFFF;stroke-width:1;" width="227.3809" x="477.64" y="221.22"/><ellipse cx="531.2357" cy="234.3684" fill="#000000" rx="8" ry="8" style="stroke:#FFFFFF;stroke-width:1;"/><path d="M533.1888,237.4622 Q532.6732,237.7434 532.1107,237.8684 Q531.5482,238.0091 530.9388,238.0091 Q529.1107,238.0091 528.0482,236.9934 Q526.9857,235.9778 526.9857,234.2278 Q526.9857,232.4778 528.0482,231.4622 Q529.1107,230.4466 530.9388,230.4466 Q531.5482,230.4466 532.1107,230.5872 Q532.6732,230.7122 533.1888,230.9934 L533.1888,232.4934 Q532.6576,232.1341 532.142,231.9778 Q531.642,231.8059 531.0795,231.8059 Q530.0795,231.8059 529.5013,232.4622 Q528.9232,233.1028 528.9232,234.2278 Q528.9232,235.3528 529.5013,236.0091 Q530.0795,236.6497 531.0795,236.6497 Q531.642,236.6497 532.142,236.4934 Q532.6576,236.3216 533.1888,235.9622 L533.1888,237.4622 Z " fill="#FFFFFF"/><text fill="#FFFFFF" font-family="Hack" font-size="14" lengthAdjust="spacing" textLength="113.1895" x="547.2357" y="239.2151">SplitTransaction</text><line style="stroke:#FFFFFF;stroke-width:1;" x1="478.64" x2="704.0209" y1="247.5169" y2="247.5169"/><line style="stroke:#FFFFFF;stroke-width:1;" x1="478.64" x2="704.0209" y1="255.5169" y2="255.5169"/><g data-visibility-modifier="PRIVATE_METHOD"><rect fill="#000000" height="6" style="stroke:#FFFFFF;stroke-width:1;" width="6" x="485.64" y="266.1653"/></g><text fill="#FFFFFF" font-family="Hack" font-size="14" lengthAdjust="spacing" textLength="204.3809" x="494.64" y="272.512">override isSettled() : boolean</text></g><!--class Settlement--><g class="entity" data-qualified-name="Settlement" data-source-line="37" id="ent0012"><rect fill="#000000" height="58.5938" rx="2.5" ry="2.5" style="stroke:#FFFFFF;stroke-width:1;" width="125.3398" x="541.66" y="364.97"/><ellipse cx="563.4453" cy="378.1184" fill="#000000" rx="8" ry="8" style="stroke:#FFFFFF;stroke-width:1;"/><path d="M565.3984,381.2122 Q564.8828,381.4934 564.3203,381.6184 Q563.7578,381.7591 563.1484,381.7591 Q561.3203,381.7591 560.2578,380.7434 Q559.1953,379.7278 559.1953,377.9778 Q559.1953,376.2278 560.2578,375.2122 Q561.3203,374.1966 563.1484,374.1966 Q563.7578,374.1966 564.3203,374.3372 Q564.8828,374.4622 565.3984,374.7434 L565.3984,376.2434 Q564.8672,375.8841 564.3516,375.7278 Q563.8516,375.5559 563.2891,375.5559 Q562.2891,375.5559 561.7109,376.2122 Q561.1328,376.8528 561.1328,377.9778 Q561.1328,379.1028 561.7109,379.7591 Q562.2891,380.3997 563.2891,380.3997 Q563.8516,380.3997 564.3516,380.2434 Q564.8672,380.0716 565.3984,379.7122 L565.3984,381.2122 Z " fill="#FFFFFF"/><text fill="#FFFFFF" font-family="Hack" font-size="14" lengthAdjust="spacing" textLength="77.5947" x="576.6198" y="382.9651">Settlement</text><line style="stroke:#FFFFFF;stroke-width:1;" x1="542.66" x2="665.9998" y1="391.2669" y2="391.2669"/><text fill="#FFFFFF" font-family="Hack" font-size="14" lengthAdjust="spacing" textLength="113.3398" x="547.66" y="408.262">date : DateTime</text><line style="stroke:#FFFFFF;stroke-width:1;" x1="542.66" x2="665.9998" y1="415.5637" y2="415.5637"/></g><!--reverse link Transaction to SimpleTransaction--><g class="link" data-entity-1="ent0005" data-entity-2="ent0008" data-link-type="extension" data-source-line="30" id="lnk9"><path d="M409.2254,170.2289 C413.7454,237.0189 419.15,316.86 422.4,364.73" fill="none" id="Transaction-backto-SimpleTransaction" style="stroke:#FFFFFF;stroke-width:1;"/><polygon fill="none" points="408.01,152.27,403.2391,170.634,415.2117,169.8238,408.01,152.27" style="stroke:#FFFFFF;stroke-width:1;"/></g><!--reverse link Transaction to SplitTransaction--><g class="link" data-entity-1="ent0005" data-entity-2="ent0010" data-link-type="extension" data-source-line="34" id="lnk11"><path d="M495.1671,164.3718 C522.3771,188.4618 537.9,202.21 559.23,221.1" fill="none" id="Transaction-backto-SplitTransaction" style="stroke:#FFFFFF;stroke-width:1;"/><polygon fill="none" points="481.69,152.44,491.1899,168.8642,499.1444,159.8794,481.69,152.44" style="stroke:#FFFFFF;stroke-width:1;"/></g><!--link Transaction to User--><g class="link" data-entity-1="ent0005" data-entity-2="ent0004" data-link-type="dependency" data-source-line="41" id="lnk13"><path codeLine="41" d="M377.99,152.19 C367.84,179.89 358.9753,204.0966 351.9253,223.3266" fill="none" id="Transaction-to-User" style="stroke:#FFFFFF;stroke-width:1;"/><polygon fill="#FFFFFF" points="349.86,228.96,356.7135,221.8868,351.5811,224.2655,349.2023,219.1331,349.86,228.96" style="stroke:#FFFFFF;stroke-width:1;"/><text fill="#FFFFFF" font-family="Hack" font-size="13" lengthAdjust="spacing" textLength="6.5" x="369.0931" y="172.2715">*</text><text fill="#FFFFFF" font-family="Hack" font-size="13" lengthAdjust="spacing" textLength="8.271" x="342.8464" y="218.2353">1</text></g><!--link Transaction to Category--><g class="link" data-entity-1="ent0005" data-entity-2="ent0002" data-link-type="dependency" data-source-line="42" id="lnk14"><path codeLine="42" d="M303.58,147.4 C269.26,169.55 237.0713,190.3165 207.3513,209.4965" fill="none" id="Transaction-to-Category" style="stroke:#FFFFFF;stroke-width:1;"/><polygon fill="#FFFFFF" points="202.31,212.75,212.041,211.2307,206.5111,210.0388,207.703,204.5089,202.31,212.75" style="stroke:#FFFFFF;stroke-width:1;"/><text fill="#FFFFFF" font-family="Hack" font-size="13" lengthAdjust="spacing" textLength="8.271" x="287.647" y="148.902">1</text><text fill="#FFFFFF" font-family="Hack" font-size="13" lengthAdjust="spacing" textLength="8.271" x="203.4398" y="202.0466">1</text></g><!--link User to Home--><g class="link" data-entity-1="ent0004" data-entity-2="ent0003" data-link-type="dependency" data-source-line="43" id="lnk15"><path codeLine="43" d="M327.49,272.13 C309.98,296.47 284.2444,332.2397 264.5144,359.6597" fill="none" id="User-to-Home" style="stroke:#FFFFFF;stroke-width:1;"/><polygon fill="#FFFFFF" points="261.01,364.53,269.5134,359.5609,263.9303,360.4715,263.0197,354.8884,261.01,364.53" style="stroke:#FFFFFF;stroke-width:1;"/><text fill="#FFFFFF" font-family="Hack" font-size="13" lengthAdjust="spacing" textLength="6.5" x="316.9838" y="291.6737">*</text><text fill="#FFFFFF" font-family="Hack" font-size="13" lengthAdjust="spacing" textLength="8.271" x="256.4799" y="353.9305">1</text></g><!--link Category to Home--><g class="link" data-entity-1="ent0002" data-entity-2="ent0003" data-link-type="dependency" data-source-line="44" id="lnk16"><path codeLine="44" d="M170.04,288.39 C185.98,312.18 203.0687,337.6764 217.7987,359.6464" fill="none" id="Category-to-Home" style="stroke:#FFFFFF;stroke-width:1;"/><polygon fill="#FFFFFF" points="221.14,364.63,219.4505,354.9271,218.3556,360.477,212.8057,359.3822,221.14,364.63" style="stroke:#FFFFFF;stroke-width:1;"/><text fill="#FFFFFF" font-family="Hack" font-size="13" lengthAdjust="spacing" textLength="6.5" x="167.6777" y="307.9814">*</text><text fill="#FFFFFF" font-family="Hack" font-size="13" lengthAdjust="spacing" textLength="8.271" x="208.3867" y="354.0511">1</text></g><!--link SplitTransaction to SimpleTransaction--><g class="link" data-entity-1="ent0010" data-entity-2="ent0008" data-link-type="dependency" data-source-line="45" id="lnk17"><path codeLine="45" d="M557.53,280.2 C528.56,304.8 491.6044,336.1574 462.6444,360.7374" fill="none" id="SplitTransaction-to-SimpleTransaction" style="stroke:#FFFFFF;stroke-width:1;"/><polygon fill="#FFFFFF" points="458.07,364.62,467.5201,361.8457,461.882,361.3845,462.3433,355.7465,458.07,364.62" style="stroke:#FFFFFF;stroke-width:1;"/><text fill="#FFFFFF" font-family="Hack" font-size="13" lengthAdjust="spacing" textLength="57.9541" x="513.83" y="331.0369">balances</text><text fill="#FFFFFF" font-family="Hack" font-size="13" lengthAdjust="spacing" textLength="6.5" x="543.9915" y="299.9496">*</text><text fill="#FFFFFF" font-family="Hack" font-size="13" lengthAdjust="spacing" textLength="8.271" x="456.2333" y="354.039">1</text></g><!--link SplitTransaction to Settlement--><g class="link" data-entity-1="ent0010" data-entity-2="ent0012" data-link-type="dependency" data-source-line="46" id="lnk18"><path codeLine="46" d="M593.96,280.2 C596.21,304.8 598.9031,334.065 601.1531,358.645" fill="none" id="SplitTransaction-to-Settlement" style="stroke:#FFFFFF;stroke-width:1;"/><polygon fill="#FFFFFF" points="601.7,364.62,604.8629,355.2928,601.2442,359.6408,596.8962,356.0221,601.7,364.62" style="stroke:#FFFFFF;stroke-width:1;"/><text fill="#FFFFFF" font-family="Hack" font-size="13" lengthAdjust="spacing" textLength="6.5" x="587.9352" y="299.9496">*</text><text fill="#FFFFFF" font-family="Hack" font-size="13" lengthAdjust="spacing" textLength="8.271" x="592.3605" y="354.039">1</text></g><?plantuml-src bLB1JiCm3BtdAqmltP1ssBK790G7xXiVuBMcYqZYAaaB5V3lk5dNbGqqqKjZl_ZbsNutSK-MmB9Z5LwrQz2ZJM6vzoo8fuvy8ALAWo700qQgsVVmeK2-5JYKI-CvzWr10RaZgdBuXFmDNKm7xJeAqPA4wkl8zJJm7tdQLbSdw3cG1wLm5wB7Ci8Xk_NeWeIQtLIdmuPYD5GjblBqZjaGkX6hHAma7-MtrPRcYWiGPktgCLUo7SITfzdhMZiqzvRRXBhMxiYFQ4tn02oMWtB7yfeKx2FmornhKPpnJBEZ6gFk23eqhIn1b8TXzjH3pQ82k4rSiYDei2UV1y2o73X6XeQ3_eDXQ6dWq0uY_qenJNkZRMDeFbrwZ-IgVqmSPcoDqV4gsT4pBFRokgBhj0bDMpeeET-kt9o_aDrci5hTGRREafr-WkiJUBIqIgQRbmq6LPFZBv2BHkStBcSgJQ51LrAuKZarghu1?></g></svg>