<?plantuml 1.2026.1?><svg xmlns="http://www.w3.org/2000/svg" xmlns:xlink="http://www.w3.org/1999/xlink" contentStyleType="text/css" data-diagram-type="CLASS" height="331px" preserveAspectRatio="none" style="width:468px;height:331px;background:#000000;" version="1.1" viewBox="0 0 468 331" width="468px" zoomAndPan="magnify"><defs/><g><!--class Category--><g class="entity" data-qualified-name="Category" data-source-line="4" id="ent0002"><rect fill="#000000" height="42.2969" rx="2.5" ry="2.5" style="stroke:#FFFFFF;stroke-width:1;" width="89.9502" x="12" y="155.04"/><ellipse cx="24" cy="168.1884" fill="#000000" rx="8" ry="8" style="stroke:#FFFFFF;stroke-width:1;"/><path d="M25.9531,171.2822 Q25.4375,171.5634 24.875,171.6884 Q24.3125,171.8291 23.7031,171.8291 Q21.875,171.8291 20.8125,170.8134 Q19.75,169.7978 19.75,168.0478 Q19.75,166.2978 20.8125,165.2822 Q21.875,164.2666 23.7031,164.2666 Q24.3125,164.2666 24.875,164.4072 Q25.4375,164.5322 25.9531,164.8134 L25.9531,166.3134 Q25.4219,165.9541 24.9063,165.7978 Q24.4063,165.6259 23.8438,165.6259 Q22.8438,165.6259 22.2656,166.2822 Q21.6875,166.9228 21.6875,168.0478 Q21.6875,169.1728 22.2656,169.8291 Q22.8438,170.4697 23.8438,170.4697 Q24.4063,170.4697 24.9063,170.3134 Q25.4219,170.1416 25.9531,169.7822 L25.9531,171.2822 Z " fill="#FFFFFF"/><text fill="#FFFFFF" font-family="Hack" font-size="14" lengthAdjust="spacing" textLength="63.9502" x="35" y="173.0351">Category</text><line style="stroke:#FFFFFF;stroke-width:1;" x1="13" x2="100.9502" y1="181.3369" y2="181.3369"/><line style="stroke:#FFFFFF;stroke-width:1;" x1="13" x2="100.9502" y1="189.3369" y2="189.3369"/></g><!--class Home--><g class="entity" data-qualified-name="Home" data-source-line="6" id="ent0003"><rect fill="#000000" height="42.2969" rx="2.5" ry="2.5" style="stroke:#FFFFFF;stroke-width:1;" width="67.3438" x="96.3" y="273.63"/><ellipse cx="108.3" cy="286.7784" fill="#000000" rx="8" ry="8" style="stroke:#FFFFFF;stroke-width:1;"/><path d="M110.2531,289.8722 Q109.7375,290.1534 109.175,290.2784 Q108.6125,290.4191 108.0031,290.4191 Q106.175,290.4191 105.1125,289.4034 Q104.05,288.3878 104.05,286.6378 Q104.05,284.8878 105.1125,283.8722 Q106.175,282.8566 108.0031,282.8566 Q108.6125,282.8566 109.175,282.9972 Q109.7375,283.1222 110.2531,283.4034 L110.2531,284.9034 Q109.7219,284.5441 109.2063,284.3878 Q108.7063,284.2159 108.1438,284.2159 Q107.1438,284.2159 106.5656,284.8722 Q105.9875,285.5128 105.9875,286.6378 Q105.9875,287.7628 106.5656,288.4191 Q107.1438,289.0597 108.1438,289.0597 Q108.7063,289.0597 109.2063,288.9034 Q109.7219,288.7316 110.2531,288.3722 L110.2531,289.8722 Z " fill="#FFFFFF"/><text fill="#FFFFFF" font-family="Hack" font-size="14" lengthAdjust="spacing" textLength="41.3438" x="119.3" y="291.6251">Home</text><line style="stroke:#FFFFFF;stroke-width:1;" x1="97.3" x2="162.6438" y1="299.9269" y2="299.9269"/><line style="stroke:#FFFFFF;stroke-width:1;" x1="97.3" x2="162.6438" y1="307.9269" y2="307.9269"/></g><!--class User--><g class="entity" data-qualified-name="User" data-source-line="8" id="ent0004"><rect fill="#000000" height="42.2969" rx="2.5" ry="2.5" style="stroke:#FFFFFF;stroke-width:1;" width="57.9102" x="137.02" y="155.04"/><ellipse cx="149.02" cy="168.1884" fill="#000000" rx="8" ry="8" style="stroke:#FFFFFF;stroke-width:1;"/><path d="M150.9731,171.2822 Q150.4575,171.5634 149.895,171.6884 Q149.3325,171.8291 148.7231,171.8291 Q146.895,171.8291 145.8325,170.8134 Q144.77,169.7978 144.77,168.0478 Q144.77,166.2978 145.8325,165.2822 Q146.895,164.2666 148.7231,164.2666 Q149.3325,164.2666 149.895,164.4072 Q150.4575,164.5322 150.9731,164.8134 L150.9731,166.3134 Q150.4419,165.9541 149.9262,165.7978 Q149.4262,165.6259 148.8637,165.6259 Q147.8637,165.6259 147.2856,166.2822 Q146.7075,166.9228 146.7075,168.0478 Q146.7075,169.1728 147.2856,169.8291 Q147.8637,170.4697 148.8637,170.4697 Q149.4262,170.4697 149.9262,170.3134 Q150.4419,170.1416 150.9731,169.7822 L150.9731,171.2822 Z " fill="#FFFFFF"/><text fill="#FFFFFF" font-family="Hack" font-size="14" lengthAdjust="spacing" textLength="31.9102" x="160.02" y="173.0351">User</text><line style="stroke:#FFFFFF;stroke-width:1;" x1="138.02" x2="193.9302" y1="181.3369" y2="181.3369"/><line style="stroke:#FFFFFF;stroke-width:1;" x1="138.02" x2="193.9302" y1="189.3369" y2="189.3369"/></g><!--class ATransaction--><g class="entity" data-qualified-name="ATransaction" data-source-line="10" id="ent0005"><rect fill="#000000" height="74.8906" rx="2.5" ry="2.5" style="stroke:#FFFFFF;stroke-width:1;" width="164.5654" x="156.69" y="12"/><ellipse cx="189.7684" cy="25.1484" fill="#000000" rx="8" ry="8" style="stroke:#FFFFFF;stroke-width:1;"/><path d="M190.1121,26.3203 L187.1746,26.3203 L186.7059,27.6484 L184.8152,27.6484 L187.5184,20.3516 L189.7527,20.3516 L192.4559,27.6484 L190.5652,27.6484 L190.1121,26.3203 Z M187.6434,24.9609 L189.6434,24.9609 L188.6434,22.0703 L187.6434,24.9609 Z " fill="#FFFFFF"/><text fill="#FFFFFF" font-family="Hack" font-size="14" font-style="italic" lengthAdjust="spacing" textLength="91.7246" x="205.4525" y="29.9951">ATransaction</text><line style="stroke:#FFFFFF;stroke-width:1;" x1="157.69" x2="320.2554" y1="38.2969" y2="38.2969"/><line style="stroke:#FFFFFF;stroke-width:1;" x1="157.69" x2="320.2554" y1="46.2969" y2="46.2969"/><g data-visibility-modifier="PRIVATE_METHOD"><rect fill="#000000" height="6" style="stroke:#FFFFFF;stroke-width:1;" width="6" x="164.69" y="56.9453"/></g><text fill="#FFFFFF" font-family="Hack" font-size="14" lengthAdjust="spacing" textLength="141.5654" x="173.69" y="63.292">isSettled() : boolean</text><g data-visibility-modifier="PRIVATE_METHOD"><rect fill="#000000" height="6" style="stroke:#FFFFFF;stroke-width:1;" width="6" x="164.69" y="73.2422"/></g><text fill="#FFFFFF" font-family="Hack" font-size="14" lengthAdjust="spacing" textLength="88.9287" x="173.69" y="79.5889">getAmount()</text></g><!--class SimpleTransaction--><g class="entity" data-qualified-name="SimpleTransaction" data-source-line="15" id="ent0006"><rect fill="#000000" height="58.5938" rx="2.5" ry="2.5" style="stroke:#FFFFFF;stroke-width:1;" width="164.5654" x="229.69" y="146.89"/><ellipse cx="245.5664" cy="160.0384" fill="#000000" rx="8" ry="8" style="stroke:#FFFFFF;stroke-width:1;"/><path d="M247.5195,163.1322 Q247.0039,163.4134 246.4414,163.5384 Q245.8789,163.6791 245.2695,163.6791 Q243.4414,163.6791 242.3789,162.6634 Q241.3164,161.6478 241.3164,159.8978 Q241.3164,158.1478 242.3789,157.1322 Q243.4414,156.1166 245.2695,156.1166 Q245.8789,156.1166 246.4414,156.2572 Q247.0039,156.3822 247.5195,156.6634 L247.5195,158.1634 Q246.9883,157.8041 246.4727,157.6478 Q245.9727,157.4759 245.4102,157.4759 Q244.4102,157.4759 243.832,158.1322 Q243.2539,158.7728 243.2539,159.8978 Q243.2539,161.0228 243.832,161.6791 Q244.4102,162.3197 245.4102,162.3197 Q245.9727,162.3197 246.4727,162.1634 Q246.9883,161.9916 247.5195,161.6322 L247.5195,163.1322 Z " fill="#FFFFFF"/><text fill="#FFFFFF" font-family="Hack" font-size="14" lengthAdjust="spacing" textLength="129.9512" x="257.4278" y="164.8851">SimpleTransaction</text><line style="stroke:#FFFFFF;stroke-width:1;" x1="230.69" x2="393.2554" y1="173.1869" y2="173.1869"/><line style="stroke:#FFFFFF;stroke-width:1;" x1="230.69" x2="393.2554" y1="181.1869" y2="181.1869"/><g data-visibility-modifier="PRIVATE_METHOD"><rect fill="#000000" height="6" style="stroke:#FFFFFF;stroke-width:1;" width="6" x="237.69" y="191.8353"/></g><text fill="#FFFFFF" font-family="Hack" font-size="14" lengthAdjust="spacing" textLength="141.5654" x="246.69" y="198.182">isSettled() : boolean</text></g><!--class Split--><g class="entity" data-qualified-name="Split" data-source-line="19" id="ent0008"><rect fill="#000000" height="58.5938" rx="2.5" ry="2.5" style="stroke:#FFFFFF;stroke-width:1;" width="227.3809" x="234.28" y="265.49"/><ellipse cx="328.9494" cy="278.6384" fill="#000000" rx="8" ry="8" style="stroke:#FFFFFF;stroke-width:1;"/><path d="M330.9026,281.7322 Q330.3869,282.0134 329.8244,282.1384 Q329.2619,282.2791 328.6526,282.2791 Q326.8244,282.2791 325.7619,281.2634 Q324.6994,280.2478 324.6994,278.4978 Q324.6994,276.7478 325.7619,275.7322 Q326.8244,274.7166 328.6526,274.7166 Q329.2619,274.7166 329.8244,274.8572 Q330.3869,274.9822 330.9026,275.2634 L330.9026,276.7634 Q330.3713,276.4041 329.8557,276.2478 Q329.3557,276.0759 328.7932,276.0759 Q327.7932,276.0759 327.2151,276.7322 Q326.6369,277.3728 326.6369,278.4978 Q326.6369,279.6228 327.2151,280.2791 Q327.7932,280.9197 328.7932,280.9197 Q329.3557,280.9197 329.8557,280.7634 Q330.3713,280.5916 330.9026,280.2322 L330.9026,281.7322 Z " fill="#FFFFFF"/><text fill="#FFFFFF" font-family="Hack" font-size="14" lengthAdjust="spacing" textLength="31.042" x="344.9494" y="283.4851">Split</text><line style="stroke:#FFFFFF;stroke-width:1;" x1="235.28" x2="460.6609" y1="291.7869" y2="291.7869"/><line style="stroke:#FFFFFF;stroke-width:1;" x1="235.28" x2="460.6609" y1="299.7869" y2="299.7869"/><g data-visibility-modifier="PRIVATE_METHOD"><rect fill="#000000" height="6" style="stroke:#FFFFFF;stroke-width:1;" width="6" x="242.28" y="310.4353"/></g><text fill="#FFFFFF" font-family="Hack" font-size="14" lengthAdjust="spacing" textLength="204.3809" x="251.28" y="316.782">override isSettled() : boolean</text></g><!--reverse link ATransaction to SimpleTransaction--><g class="link" data-entity-1="ent0005" data-entity-2="ent0006" data-link-type="extension" data-source-line="16" id="lnk7"><path d="M269.5766,102.7323 C280.6866,121.7023 284.93,128.97 295.25,146.61" fill="none" id="ATransaction-backto-SimpleTransaction" style="stroke:#FFFFFF;stroke-width:1;"/><polygon fill="none" points="260.48,87.2,264.3992,105.7645,274.7541,99.7,260.48,87.2" style="stroke:#FFFFFF;stroke-width:1;"/></g><!--reverse link ATransaction to Split--><g class="link" data-entity-1="ent0005" data-entity-2="ent0008" data-link-type="extension" data-source-line="20" id="lnk9"><path d="M338.2399,82.744 C372.4599,97.664 392.21,113.24 411.98,146.89 C434.94,185.99 402.71,234.85 376.27,265.19" fill="none" id="ATransaction-backto-Split" style="stroke:#FFFFFF;stroke-width:1;"/><polygon fill="none" points="321.74,75.55,335.8419,88.244,340.6379,77.244,321.74,75.55" style="stroke:#FFFFFF;stroke-width:1;"/></g><!--link ATransaction to User--><g class="link" data-entity-1="ent0005" data-entity-2="ent0004" data-link-type="dependency" data-source-line="23" id="lnk10"><path codeLine="23" d="M217.47,87.2 C204.6,109.19 191.751,131.1419 181.051,149.4219" fill="none" id="ATransaction-to-User" style="stroke:#FFFFFF;stroke-width:1;"/><polygon fill="#FFFFFF" points="178.02,154.6,186.0186,148.8534,180.5458,150.2849,179.1144,144.8121,178.02,154.6" style="stroke:#FFFFFF;stroke-width:1;"/><text fill="#FFFFFF" font-family="Hack" font-size="13" lengthAdjust="spacing" textLength="6.5" x="207.3016" y="107.0565">*</text><text fill="#FFFFFF" font-family="Hack" font-size="13" lengthAdjust="spacing" textLength="8.271" x="172.2185" y="143.8672">1</text></g><!--link ATransaction to Category--><g class="link" data-entity-1="ent0005" data-entity-2="ent0002" data-link-type="dependency" data-source-line="24" id="lnk11"><path codeLine="24" d="M185.35,87.2 C153.27,109.19 118.6285,132.927 91.9685,151.207" fill="none" id="ATransaction-to-Category" style="stroke:#FFFFFF;stroke-width:1;"/><polygon fill="#FFFFFF" points="87.02,154.6,96.7047,152.8094,91.1437,151.7725,92.1807,146.2115,87.02,154.6" style="stroke:#FFFFFF;stroke-width:1;"/><text fill="#FFFFFF" font-family="Hack" font-size="13" lengthAdjust="spacing" textLength="8.271" x="167.4694" y="107.0565">1</text><text fill="#FFFFFF" font-family="Hack" font-size="13" lengthAdjust="spacing" textLength="8.271" x="86.056" y="143.8672">1</text></g><!--link User to Home--><g class="link" data-entity-1="ent0004" data-entity-2="ent0003" data-link-type="dependency" data-source-line="25" id="lnk12"><path codeLine="25" d="M159.62,197.77 C153.04,219.08 144.5913,246.4474 138.0313,267.6774" fill="none" id="User-to-Home" style="stroke:#FFFFFF;stroke-width:1;"/><polygon fill="#FFFFFF" points="136.26,273.41,142.7387,265.992,137.7361,268.6329,135.0953,263.6303,136.26,273.41" style="stroke:#FFFFFF;stroke-width:1;"/><text fill="#FFFFFF" font-family="Hack" font-size="13" lengthAdjust="spacing" textLength="6.5" x="151.2868" y="217.3061">*</text><text fill="#FFFFFF" font-family="Hack" font-size="13" lengthAdjust="spacing" textLength="8.271" x="128.9113" y="262.7363">1</text></g><!--reverse link Category to Home--><g class="link" data-entity-1="ent0002" data-entity-2="ent0003" data-link-type="dependency" data-source-line="26" id="lnk13"><path codeLine="26" d="M73.0436,202.8557 C86.3836,224.1657 103.93,252.18 117.22,273.41" fill="none" id="Category-backto-Home" style="stroke:#FFFFFF;stroke-width:1;"/><polygon fill="#FFFFFF" points="69.86,197.77,71.245,207.521,72.513,202.0081,78.0259,203.2761,69.86,197.77" style="stroke:#FFFFFF;stroke-width:1;"/><text fill="#FFFFFF" font-family="Hack" font-size="13" lengthAdjust="spacing" textLength="6.5" x="66.4571" y="217.3061">*</text><text fill="#FFFFFF" font-family="Hack" font-size="13" lengthAdjust="spacing" textLength="8.271" x="104.7543" y="262.7363">1</text></g><!--link SimpleTransaction to Split--><g class="link" data-entity-1="ent0006" data-entity-2="ent0008" data-link-type="dependency" data-source-line="27" id="lnk14"><path codeLine="27" d="M320.78,205.71 C326.36,223.78 331.7815,241.3266 337.3615,259.4166" fill="none" id="SimpleTransaction-to-Split" style="stroke:#FFFFFF;stroke-width:1;"/><polygon fill="#FFFFFF" points="339.13,265.15,340.2995,255.3708,337.6562,260.3721,332.6549,257.7289,339.13,265.15" style="stroke:#FFFFFF;stroke-width:1;"/><text fill="#FFFFFF" font-family="Hack" font-size="13" lengthAdjust="spacing" textLength="8.271" x="313.7994" y="225.4266">1</text><text fill="#FFFFFF" font-family="Hack" font-size="13" lengthAdjust="spacing" textLength="6.5" x="330.7395" y="254.5711">*</text></g><?plantuml-src bP313W4n48RlVOgn9oGzk8f8nCKT3r2x4nfjPpCTGiIxgx8iGgAdpdmpNp9_HpRe4Jm5Kd5hGstO-5oM6wP46FV84PKgdOaHfaPmJNo4fZ5BGyr_6P4JCAieR4g1MtUoO1DYgYq5E2b8JuEDSnHnM7LxC8GLaKCJxcoDCl6q2zBjgNFZdbjVEsohy20Ogd_yqDBLpieN1TmTb2vdM-4FsSjYqIz0wp4KWo97yKO7Jzgag79YxRqSvoFaAnbf_IIVAJoqQJGVfIu0?></g></svg>