<?plantuml 1.2026.1?><svg xmlns="http://www.w3.org/2000/svg" xmlns:xlink="http://www.w3.org/1999/xlink" contentStyleType="text/css" data-diagram-type="CLASS" height="314px" preserveAspectRatio="none" style="width:663px;height:314px;background:#000000;" version="1.1" viewBox="0 0 663 314" width="663px" zoomAndPan="magnify"><defs/><g><!--class Category--><g class="entity" data-qualified-name="Category" data-source-line="4" id="ent0002"><rect fill="#000000" height="42.2969" rx="2.5" ry="2.5" style="stroke:#FFFFFF;stroke-width:1;" width="89.9502" x="12" y="155.04"/><ellipse cx="24" cy="168.1884" fill="#000000" rx="8" ry="8" style="stroke:#FFFFFF;stroke-width:1;"/><path d="M25.9531,171.2822 Q25.4375,171.5634 24.875,171.6884 Q24.3125,171.8291 23.7031,171.8291 Q21.875,171.8291 20.8125,170.8134 Q19.75,169.7978 19.75,168.0478 Q19.75,166.2978 20.8125,165.2822 Q21.875,164.2666 23.7031,164.2666 Q24.3125,164.2666 24.875,164.4072 Q25.4375,164.5322 25.9531,164.8134 L25.9531,166.3134 Q25.4219,165.9541 24.9063,165.7978 Q24.4063,165.6259 23.8438,165.6259 Q22.8438,165.6259 22.2656,166.2822 Q21.6875,166.9228 21.6875,168.0478 Q21.6875,169.1728 22.2656,169.8291 Q22.8438,170.4697 23.8438,170.4697 Q24.4063,170.4697 24.9063,170.3134 Q25.4219,170.1416 25.9531,169.7822 L25.9531,171.2822 Z " fill="#FFFFFF"/><text fill="#FFFFFF" font-family="Hack" font-size="14" lengthAdjust="spacing" textLength="63.9502" x="35" y="173.0351">Category</text><line style="stroke:#FFFFFF;stroke-width:1;" x1="13" x2="100.9502" y1="181.3369" y2="181.3369"/><line style="stroke:#FFFFFF;stroke-width:1;" x1="13" x2="100.9502" y1="189.3369" y2="189.3369"/></g><!--class Home--><g class="entity" data-qualified-name="Home" data-source-line="6" id="ent0003"><rect fill="#000000" height="42.2969" rx="2.5" ry="2.5" style="stroke:#FFFFFF;stroke-width:1;" width="67.3438" x="77.3" y="265.48"/><ellipse cx="89.3" cy="278.6284" fill="#000000" rx="8" ry="8" style="stroke:#FFFFFF;stroke-width:1;"/><path d="M91.2531,281.7222 Q90.7375,282.0034 90.175,282.1284 Q89.6125,282.2691 89.0031,282.2691 Q87.175,282.2691 86.1125,281.2534 Q85.05,280.2378 85.05,278.4878 Q85.05,276.7378 86.1125,275.7222 Q87.175,274.7066 89.0031,274.7066 Q89.6125,274.7066 90.175,274.8472 Q90.7375,274.9722 91.2531,275.2534 L91.2531,276.7534 Q90.7219,276.3941 90.2063,276.2378 Q89.7063,276.0659 89.1438,276.0659 Q88.1438,276.0659 87.5656,276.7222 Q86.9875,277.3628 86.9875,278.4878 Q86.9875,279.6128 87.5656,280.2691 Q88.1438,280.9097 89.1438,280.9097 Q89.7063,280.9097 90.2063,280.7534 Q90.7219,280.5816 91.2531,280.2222 L91.2531,281.7222 Z " fill="#FFFFFF"/><text fill="#FFFFFF" font-family="Hack" font-size="14" lengthAdjust="spacing" textLength="41.3438" x="100.3" y="283.4751">Home</text><line style="stroke:#FFFFFF;stroke-width:1;" x1="78.3" x2="143.6438" y1="291.7769" y2="291.7769"/><line style="stroke:#FFFFFF;stroke-width:1;" x1="78.3" x2="143.6438" y1="299.7769" y2="299.7769"/></g><!--class User--><g class="entity" data-qualified-name="User" data-source-line="8" id="ent0004"><rect fill="#000000" height="42.2969" rx="2.5" ry="2.5" style="stroke:#FFFFFF;stroke-width:1;" width="57.9102" x="137.02" y="155.04"/><ellipse cx="149.02" cy="168.1884" fill="#000000" rx="8" ry="8" style="stroke:#FFFFFF;stroke-width:1;"/><path d="M150.9731,171.2822 Q150.4575,171.5634 149.895,171.6884 Q149.3325,171.8291 148.7231,171.8291 Q146.895,171.8291 145.8325,170.8134 Q144.77,169.7978 144.77,168.0478 Q144.77,166.2978 145.8325,165.2822 Q146.895,164.2666 148.7231,164.2666 Q149.3325,164.2666 149.895,164.4072 Q150.4575,164.5322 150.9731,164.8134 L150.9731,166.3134 Q150.4419,165.9541 149.9262,165.7978 Q149.4262,165.6259 148.8637,165.6259 Q147.8637,165.6259 147.2856,166.2822 Q146.7075,166.9228 146.7075,168.0478 Q146.7075,169.1728 147.2856,169.8291 Q147.8637,170.4697 148.8637,170.4697 Q149.4262,170.4697 149.9262,170.3134 Q150.4419,170.1416 150.9731,169.7822 L150.9731,171.2822 Z " fill="#FFFFFF"/><text fill="#FFFFFF" font-family="Hack" font-size="14" lengthAdjust="spacing" textLength="31.9102" x="160.02" y="173.0351">User</text><line style="stroke:#FFFFFF;stroke-width:1;" x1="138.02" x2="193.9302" y1="181.3369" y2="181.3369"/><line style="stroke:#FFFFFF;stroke-width:1;" x1="138.02" x2="193.9302" y1="189.3369" y2="189.3369"/></g><!--class Transaction--><g class="entity" data-qualified-name="Transaction" data-source-line="10" id="ent0005"><rect fill="#000000" height="74.8906" rx="2.5" ry="2.5" style="stroke:#FFFFFF;stroke-width:1;" width="164.5654" x="229.69" y="12"/><ellipse cx="267.399" cy="25.1484" fill="#000000" rx="8" ry="8" style="stroke:#FFFFFF;stroke-width:1;"/><path d="M267.7427,26.3203 L264.8052,26.3203 L264.3365,27.6484 L262.4459,27.6484 L265.149,20.3516 L267.3834,20.3516 L270.0865,27.6484 L268.1959,27.6484 L267.7427,26.3203 Z M265.274,24.9609 L267.274,24.9609 L266.274,22.0703 L265.274,24.9609 Z " fill="#FFFFFF"/><text fill="#FFFFFF" font-family="Hack" font-size="14" font-style="italic" lengthAdjust="spacing" textLength="82.1475" x="283.399" y="29.9951">Transaction</text><line style="stroke:#FFFFFF;stroke-width:1;" x1="230.69" x2="393.2554" y1="38.2969" y2="38.2969"/><line style="stroke:#FFFFFF;stroke-width:1;" x1="230.69" x2="393.2554" y1="46.2969" y2="46.2969"/><g data-visibility-modifier="PRIVATE_METHOD"><rect fill="#000000" height="6" style="stroke:#FFFFFF;stroke-width:1;" width="6" x="237.69" y="56.9453"/></g><text fill="#FFFFFF" font-family="Hack" font-size="14" lengthAdjust="spacing" textLength="141.5654" x="246.69" y="63.292">isSettled() : boolean</text><g data-visibility-modifier="PRIVATE_METHOD"><rect fill="#000000" height="6" style="stroke:#FFFFFF;stroke-width:1;" width="6" x="237.69" y="73.2422"/></g><text fill="#FFFFFF" font-family="Hack" font-size="14" lengthAdjust="spacing" textLength="88.9287" x="246.69" y="79.5889">getAmount()</text></g><!--class SimpleTransaction--><g class="entity" data-qualified-name="SimpleTransaction" data-source-line="15" id="ent0006"><rect fill="#000000" height="58.5938" rx="2.5" ry="2.5" style="stroke:#FFFFFF;stroke-width:1;" width="164.5654" x="229.69" y="146.89"/><ellipse cx="245.5664" cy="160.0384" fill="#000000" rx="8" ry="8" style="stroke:#FFFFFF;stroke-width:1;"/><path d="M247.5195,163.1322 Q247.0039,163.4134 246.4414,163.5384 Q245.8789,163.6791 245.2695,163.6791 Q243.4414,163.6791 242.3789,162.6634 Q241.3164,161.6478 241.3164,159.8978 Q241.3164,158.1478 242.3789,157.1322 Q243.4414,156.1166 245.2695,156.1166 Q245.8789,156.1166 246.4414,156.2572 Q247.0039,156.3822 247.5195,156.6634 L247.5195,158.1634 Q246.9883,157.8041 246.4727,157.6478 Q245.9727,157.4759 245.4102,157.4759 Q244.4102,157.4759 243.832,158.1322 Q243.2539,158.7728 243.2539,159.8978 Q243.2539,161.0228 243.832,161.6791 Q244.4102,162.3197 245.4102,162.3197 Q245.9727,162.3197 246.4727,162.1634 Q246.9883,161.9916 247.5195,161.6322 L247.5195,163.1322 Z " fill="#FFFFFF"/><text fill="#FFFFFF" font-family="Hack" font-size="14" lengthAdjust="spacing" textLength="129.9512" x="257.4278" y="164.8851">SimpleTransaction</text><line style="stroke:#FFFFFF;stroke-width:1;" x1="230.69" x2="393.2554" y1="173.1869" y2="173.1869"/><line style="stroke:#FFFFFF;stroke-width:1;" x1="230.69" x2="393.2554" y1="181.1869" y2="181.1869"/><g data-visibility-modifier="PRIVATE_METHOD"><rect fill="#000000" height="6" style="stroke:#FFFFFF;stroke-width:1;" width="6" x="237.69" y="191.8353"/></g><text fill="#FFFFFF" font-family="Hack" font-size="14" lengthAdjust="spacing" textLength="141.5654" x="246.69" y="198.182">isSettled() : boolean</text></g><!--class SplitTransaction--><g class="entity" data-qualified-name="SplitTransaction" data-source-line="19" id="ent0008"><rect fill="#000000" height="58.5938" rx="2.5" ry="2.5" style="stroke:#FFFFFF;stroke-width:1;" width="227.3809" x="429.28" y="146.89"/><ellipse cx="482.8757" cy="160.0384" fill="#000000" rx="8" ry="8" style="stroke:#FFFFFF;stroke-width:1;"/><path d="M484.8288,163.1322 Q484.3132,163.4134 483.7507,163.5384 Q483.1882,163.6791 482.5788,163.6791 Q480.7507,163.6791 479.6882,162.6634 Q478.6257,161.6478 478.6257,159.8978 Q478.6257,158.1478 479.6882,157.1322 Q480.7507,156.1166 482.5788,156.1166 Q483.1882,156.1166 483.7507,156.2572 Q484.3132,156.3822 484.8288,156.6634 L484.8288,158.1634 Q484.2976,157.8041 483.782,157.6478 Q483.282,157.4759 482.7195,157.4759 Q481.7195,157.4759 481.1413,158.1322 Q480.5632,158.7728 480.5632,159.8978 Q480.5632,161.0228 481.1413,161.6791 Q481.7195,162.3197 482.7195,162.3197 Q483.282,162.3197 483.782,162.1634 Q484.2976,161.9916 484.8288,161.6322 L484.8288,163.1322 Z " fill="#FFFFFF"/><text fill="#FFFFFF" font-family="Hack" font-size="14" lengthAdjust="spacing" textLength="113.1895" x="498.8757" y="164.8851">SplitTransaction</text><line style="stroke:#FFFFFF;stroke-width:1;" x1="430.28" x2="655.6609" y1="173.1869" y2="173.1869"/><line style="stroke:#FFFFFF;stroke-width:1;" x1="430.28" x2="655.6609" y1="181.1869" y2="181.1869"/><g data-visibility-modifier="PRIVATE_METHOD"><rect fill="#000000" height="6" style="stroke:#FFFFFF;stroke-width:1;" width="6" x="437.28" y="191.8353"/></g><text fill="#FFFFFF" font-family="Hack" font-size="14" lengthAdjust="spacing" textLength="204.3809" x="446.28" y="198.182">override isSettled() : boolean</text></g><!--reverse link Transaction to SimpleTransaction--><g class="link" data-entity-1="ent0005" data-entity-2="ent0006" data-link-type="extension" data-source-line="16" id="lnk7"><path d="M298.349,105.1339 C296.719,124.1039 298.55,128.97 300.74,146.61" fill="none" id="Transaction-backto-SimpleTransaction" style="stroke:#FFFFFF;stroke-width:1;"/><polygon fill="none" points="299.89,87.2,292.3711,104.6203,304.327,105.6476,299.89,87.2" style="stroke:#FFFFFF;stroke-width:1;"/></g><!--link Transaction to SimpleTransaction--><g class="link" data-entity-1="ent0005" data-entity-2="ent0006" data-link-type="dependency" data-source-line="27" id="lnk14"><path codeLine="27" d="M324.06,87.2 C325.69,106.17 326.1392,123.0157 323.9492,140.6557" fill="none" id="Transaction-to-SimpleTransaction" style="stroke:#FFFFFF;stroke-width:1;"/><polygon fill="#FFFFFF" points="323.21,146.61,328.2884,138.1714,323.826,141.6481,320.3493,137.1858,323.21,146.61" style="stroke:#FFFFFF;stroke-width:1;"/><text fill="#FFFFFF" font-family="Hack" font-size="13" lengthAdjust="spacing" textLength="8.271" x="317.4733" y="107.0565">1</text><text fill="#FFFFFF" font-family="Hack" font-size="13" lengthAdjust="spacing" textLength="6.5" x="318.9605" y="136.0435">*</text></g><!--reverse link Transaction to SplitTransaction--><g class="link" data-entity-1="ent0005" data-entity-2="ent0008" data-link-type="extension" data-source-line="20" id="lnk9"><path d="M396.1863,95.9165 C431.1663,114.8165 457.29,128.91 489.82,146.48" fill="none" id="Transaction-backto-SplitTransaction" style="stroke:#FFFFFF;stroke-width:1;"/><polygon fill="none" points="380.35,87.36,393.3341,101.1952,399.0384,90.6377,380.35,87.36" style="stroke:#FFFFFF;stroke-width:1;"/></g><!--link Transaction to User--><g class="link" data-entity-1="ent0005" data-entity-2="ent0004" data-link-type="dependency" data-source-line="23" id="lnk10"><path codeLine="23" d="M268.96,87.2 C243.22,109.19 216.0213,132.4219 194.6313,150.7019" fill="none" id="Transaction-to-User" style="stroke:#FFFFFF;stroke-width:1;"/><polygon fill="#FFFFFF" points="190.07,154.6,199.5106,151.7937,193.871,151.3516,194.3132,145.7121,190.07,154.6" style="stroke:#FFFFFF;stroke-width:1;"/><text fill="#FFFFFF" font-family="Hack" font-size="13" lengthAdjust="spacing" textLength="6.5" x="255.0945" y="107.0565">*</text><text fill="#FFFFFF" font-family="Hack" font-size="13" lengthAdjust="spacing" textLength="8.271" x="187.5069" y="143.8672">1</text></g><!--link Transaction to Category--><g class="link" data-entity-1="ent0005" data-entity-2="ent0002" data-link-type="dependency" data-source-line="24" id="lnk11"><path codeLine="24" d="M236.5,87.36 C191.56,109.35 141.5995,133.7831 104.3395,152.0131" fill="none" id="Transaction-to-Category" style="stroke:#FFFFFF;stroke-width:1;"/><polygon fill="#FFFFFF" points="98.95,154.65,108.7922,154.2877,103.4413,152.4526,105.2763,147.1017,98.95,154.65" style="stroke:#FFFFFF;stroke-width:1;"/><text fill="#FFFFFF" font-family="Hack" font-size="13" lengthAdjust="spacing" textLength="8.271" x="215.3598" y="106.9597">1</text><text fill="#FFFFFF" font-family="Hack" font-size="13" lengthAdjust="spacing" textLength="8.271" x="101.1922" y="143.9307">1</text></g><!--link User to Home--><g class="link" data-entity-1="ent0004" data-entity-2="ent0003" data-link-type="dependency" data-source-line="25" id="lnk12"><path codeLine="25" d="M155.63,197.58 C145.8,216.97 133.8042,240.619 123.9842,259.979" fill="none" id="User-to-Home" style="stroke:#FFFFFF;stroke-width:1;"/><polygon fill="#FFFFFF" points="121.27,265.33,128.9086,259.113,123.5318,260.8708,121.774,255.494,121.27,265.33" style="stroke:#FFFFFF;stroke-width:1;"/><text fill="#FFFFFF" font-family="Hack" font-size="13" lengthAdjust="spacing" textLength="6.5" x="146.1107" y="217.4293">*</text><text fill="#FFFFFF" font-family="Hack" font-size="13" lengthAdjust="spacing" textLength="8.271" x="115.0795" y="254.316">1</text></g><!--link Category to Home--><g class="link" data-entity-1="ent0002" data-entity-2="ent0003" data-link-type="dependency" data-source-line="26" id="lnk13"><path codeLine="26" d="M67.13,197.58 C76.79,216.97 88.5456,240.599 98.1856,259.959" fill="none" id="Category-to-Home" style="stroke:#FFFFFF;stroke-width:1;"/><polygon fill="#FFFFFF" points="100.86,265.33,100.4291,255.4906,98.6313,260.8542,93.2677,259.0564,100.86,265.33" style="stroke:#FFFFFF;stroke-width:1;"/><text fill="#FFFFFF" font-family="Hack" font-size="13" lengthAdjust="spacing" textLength="6.5" x="63.1201" y="217.4293">*</text><text fill="#FFFFFF" font-family="Hack" font-size="13" lengthAdjust="spacing" textLength="8.271" x="88.9291" y="254.316">1</text></g><?plantuml-src bP0n3i8m34NtdC9q0gGENHcG40ixS82qjKf44bUEGI34tObA2q4W49viV_iDRoGxT0YEFAcmDxxLh5qtLZkcc30UaGCgLLaT0YorO4DyXc6nYaT3lmt8CT1b4DQLm7sxOUr370rvk2Y8bOC9QnInM8ydC8EIoABsVTQWB1mTl8mdwZgWryQr5bCKdWHz_GSU4bfhZVo4GK-ZQ81DZL-mwLyspI3Fvv0LMMVaDIoUuU1ITTxIjqxgG_LRyX4OZzuagHi0?></g></svg>