<?plantuml 1.2026.1?><svg xmlns="http://www.w3.org/2000/svg" xmlns:xlink="http://www.w3.org/1999/xlink" contentStyleType="text/css" data-diagram-type="CLASS" height="446px" preserveAspectRatio="none" style="width:975px;height:446px;background:#000000;" version="1.1" viewBox="0 0 975 446" width="975px" zoomAndPan="magnify"><defs/><g><!--class Category--><g class="entity" data-qualified-name="Category" data-source-line="4" id="ent0002"><rect fill="#000000" height="74.8906" rx="2.5" ry="2.5" style="stroke:#FFFFFF;stroke-width:1;" width="266.6533" x="12" y="196.78"/><ellipse cx="109.8516" cy="209.9284" fill="#000000" rx="8" ry="8" style="stroke:#FFFFFF;stroke-width:1;"/><path d="M111.8047,213.0222 Q111.2891,213.3034 110.7266,213.4284 Q110.1641,213.5691 109.5547,213.5691 Q107.7266,213.5691 106.6641,212.5534 Q105.6016,211.5378 105.6016,209.7878 Q105.6016,208.0378 106.6641,207.0222 Q107.7266,206.0066 109.5547,206.0066 Q110.1641,206.0066 110.7266,206.1472 Q111.2891,206.2722 111.8047,206.5534 L111.8047,208.0534 Q111.2734,207.6941 110.7578,207.5378 Q110.2578,207.3659 109.6953,207.3659 Q108.6953,207.3659 108.1172,208.0222 Q107.5391,208.6628 107.5391,209.7878 Q107.5391,210.9128 108.1172,211.5691 Q108.6953,212.2097 109.6953,212.2097 Q110.2578,212.2097 110.7578,212.0534 Q111.2734,211.8816 111.8047,211.5222 L111.8047,213.0222 Z " fill="#FFFFFF"/><text fill="#FFFFFF" font-family="Hack" font-size="14" lengthAdjust="spacing" textLength="63.9502" x="125.8516" y="214.7751">Category</text><line style="stroke:#FFFFFF;stroke-width:1;" x1="13" x2="277.6533" y1="223.0769" y2="223.0769"/><g data-visibility-modifier="PRIVATE_FIELD"><rect fill="none" height="6" style="stroke:#FFFFFF;stroke-width:1;" width="6" x="20" y="233.7253"/></g><text fill="#FFFFFF" font-family="Hack" font-size="14" lengthAdjust="spacing" textLength="39.7031" x="29" y="240.072">name</text><g data-visibility-modifier="PRIVATE_FIELD"><rect fill="none" height="6" style="stroke:#FFFFFF;stroke-width:1;" width="6" x="20" y="250.0222"/></g><text fill="#FFFFFF" font-family="Hack" font-size="14" lengthAdjust="spacing" textLength="243.6533" x="29" y="256.3689">type : 'need' | 'want' | 'investment'</text><line style="stroke:#FFFFFF;stroke-width:1;" x1="13" x2="277.6533" y1="263.6706" y2="263.6706"/></g><!--class Home--><g class="entity" data-qualified-name="Home" data-source-line="9" id="ent0003"><rect fill="#000000" height="58.5938" rx="2.5" ry="2.5" style="stroke:#FFFFFF;stroke-width:1;" width="67.3438" x="194.65" y="364.97"/><ellipse cx="206.65" cy="378.1184" fill="#000000" rx="8" ry="8" style="stroke:#FFFFFF;stroke-width:1;"/><path d="M208.6031,381.2122 Q208.0875,381.4934 207.525,381.6184 Q206.9625,381.7591 206.3531,381.7591 Q204.525,381.7591 203.4625,380.7434 Q202.4,379.7278 202.4,377.9778 Q202.4,376.2278 203.4625,375.2122 Q204.525,374.1966 206.3531,374.1966 Q206.9625,374.1966 207.525,374.3372 Q208.0875,374.4622 208.6031,374.7434 L208.6031,376.2434 Q208.0719,375.8841 207.5563,375.7278 Q207.0563,375.5559 206.4938,375.5559 Q205.4938,375.5559 204.9156,376.2122 Q204.3375,376.8528 204.3375,377.9778 Q204.3375,379.1028 204.9156,379.7591 Q205.4938,380.3997 206.4938,380.3997 Q207.0563,380.3997 207.5563,380.2434 Q208.0719,380.0716 208.6031,379.7122 L208.6031,381.2122 Z " fill="#FFFFFF"/><text fill="#FFFFFF" font-family="Hack" font-size="14" lengthAdjust="spacing" textLength="41.3438" x="217.65" y="382.9651">Home</text><line style="stroke:#FFFFFF;stroke-width:1;" x1="195.65" x2="260.9938" y1="391.2669" y2="391.2669"/><g data-visibility-modifier="PRIVATE_FIELD"><rect fill="none" height="6" style="stroke:#FFFFFF;stroke-width:1;" width="6" x="202.65" y="401.9153"/></g><text fill="#FFFFFF" font-family="Hack" font-size="14" lengthAdjust="spacing" textLength="30.5225" x="211.65" y="408.262">uuid</text><line style="stroke:#FFFFFF;stroke-width:1;" x1="195.65" x2="260.9938" y1="415.5638" y2="415.5638"/></g><!--class User--><g class="entity" data-qualified-name="User" data-source-line="13" id="ent0004"><rect fill="#000000" height="42.2969" rx="2.5" ry="2.5" style="stroke:#FFFFFF;stroke-width:1;" width="57.9102" x="313.37" y="213.08"/><ellipse cx="325.37" cy="226.2284" fill="#000000" rx="8" ry="8" style="stroke:#FFFFFF;stroke-width:1;"/><path d="M327.3231,229.3222 Q326.8075,229.6034 326.245,229.7284 Q325.6825,229.8691 325.0731,229.8691 Q323.245,229.8691 322.1825,228.8534 Q321.12,227.8378 321.12,226.0878 Q321.12,224.3378 322.1825,223.3222 Q323.245,222.3066 325.0731,222.3066 Q325.6825,222.3066 326.245,222.4472 Q326.8075,222.5722 327.3231,222.8534 L327.3231,224.3534 Q326.7919,223.9941 326.2763,223.8378 Q325.7763,223.6659 325.2138,223.6659 Q324.2138,223.6659 323.6356,224.3222 Q323.0575,224.9628 323.0575,226.0878 Q323.0575,227.2128 323.6356,227.8691 Q324.2138,228.5097 325.2138,228.5097 Q325.7763,228.5097 326.2763,228.3534 Q326.7919,228.1816 327.3231,227.8222 L327.3231,229.3222 Z " fill="#FFFFFF"/><text fill="#FFFFFF" font-family="Hack" font-size="14" lengthAdjust="spacing" textLength="31.9102" x="336.37" y="231.0751">User</text><line style="stroke:#FFFFFF;stroke-width:1;" x1="314.37" x2="370.2802" y1="239.3769" y2="239.3769"/><line style="stroke:#FFFFFF;stroke-width:1;" x1="314.37" x2="370.2802" y1="247.3769" y2="247.3769"/></g><!--class Transaction--><g class="entity" data-qualified-name="Transaction" data-source-line="15" id="ent0005"><rect fill="#000000" height="123.7813" rx="2.5" ry="2.5" style="stroke:#FFFFFF;stroke-width:1;" width="164.5654" x="321.04" y="12"/><ellipse cx="358.749" cy="25.1484" fill="#000000" rx="8" ry="8" style="stroke:#FFFFFF;stroke-width:1;"/><path d="M359.0927,26.3203 L356.1552,26.3203 L355.6865,27.6484 L353.7959,27.6484 L356.499,20.3516 L358.7334,20.3516 L361.4365,27.6484 L359.5459,27.6484 L359.0927,26.3203 Z M356.624,24.9609 L358.624,24.9609 L357.624,22.0703 L356.624,24.9609 Z " fill="#FFFFFF"/><text fill="#FFFFFF" font-family="Hack" font-size="14" font-style="italic" lengthAdjust="spacing" textLength="82.1475" x="374.749" y="29.9951">Transaction</text><line style="stroke:#FFFFFF;stroke-width:1;" x1="322.04" x2="484.6054" y1="38.2969" y2="38.2969"/><g data-visibility-modifier="PRIVATE_FIELD"><rect fill="none" height="6" style="stroke:#FFFFFF;stroke-width:1;" width="6" x="329.04" y="48.9453"/></g><text fill="#FFFFFF" font-family="Hack" font-size="14" lengthAdjust="spacing" textLength="113.3398" x="338.04" y="55.292">date : DateTime</text><g data-visibility-modifier="PRIVATE_FIELD"><rect fill="none" height="6" style="stroke:#FFFFFF;stroke-width:1;" width="6" x="329.04" y="65.2422"/></g><text fill="#FFFFFF" font-family="Hack" font-size="14" lengthAdjust="spacing" textLength="93.5088" x="338.04" y="71.5889">name : string</text><g data-visibility-modifier="PRIVATE_FIELD"><rect fill="none" height="6" style="stroke:#FFFFFF;stroke-width:1;" width="6" x="329.04" y="81.5391"/></g><text fill="#FFFFFF" font-family="Hack" font-size="14" lengthAdjust="spacing" textLength="120.3193" x="338.04" y="87.8857">comment : string</text><line style="stroke:#FFFFFF;stroke-width:1;" x1="322.04" x2="484.6054" y1="95.1875" y2="95.1875"/><g data-visibility-modifier="PRIVATE_METHOD"><rect fill="#000000" height="6" style="stroke:#FFFFFF;stroke-width:1;" width="6" x="329.04" y="105.8359"/></g><text fill="#FFFFFF" font-family="Hack" font-size="14" lengthAdjust="spacing" textLength="141.5654" x="338.04" y="112.1826">isSettled() : boolean</text><g data-visibility-modifier="PRIVATE_METHOD"><rect fill="#000000" height="6" style="stroke:#FFFFFF;stroke-width:1;" width="6" x="329.04" y="122.1328"/></g><text fill="#FFFFFF" font-family="Hack" font-size="14" lengthAdjust="spacing" textLength="88.9287" x="338.04" y="128.4795">getAmount()</text></g><path d="M520.4,48.76 L520.4,64.8928 L426.9687,123.6328 L520.4,72.8928 L520.4,89.0256 A0,0 0 0 0 520.4,89.0256 L968.2608,89.0256 A0,0 0 0 0 968.2608,89.0256 L968.2608,58.76 L958.2608,48.76 L520.4,48.76 A0,0 0 0 0 520.4,48.76" fill="#000000" style="stroke:#FFFFFF;stroke-width:1;"/><path d="M958.2608,48.76 L958.2608,58.76 L968.2608,58.76 L958.2608,48.76" fill="#000000" style="stroke:#FFFFFF;stroke-width:1;"/><text fill="#FFFFFF" font-family="Hack" font-size="13" lengthAdjust="spacing" textLength="417.4219" x="526.4" y="65.8269">- negative value means money going out of the payer's account</text><text fill="#FFFFFF" font-family="Hack" font-size="13" lengthAdjust="spacing" textLength="426.8608" x="526.4" y="80.9597">- positive value means money comming in to the payer's account</text><!--class SimpleTransaction--><g class="entity" data-qualified-name="SimpleTransaction" data-source-line="28" id="ent0008"><rect fill="#000000" height="91.1875" rx="2.5" ry="2.5" style="stroke:#FFFFFF;stroke-width:1;" width="198.6016" x="325.03" y="348.67"/><ellipse cx="356.2227" cy="361.8184" fill="#000000" rx="8" ry="8" style="stroke:#FFFFFF;stroke-width:1;"/><path d="M358.1758,364.9122 Q357.6602,365.1934 357.0977,365.3184 Q356.5352,365.4591 355.9258,365.4591 Q354.0977,365.4591 353.0352,364.4434 Q351.9727,363.4278 351.9727,361.6778 Q351.9727,359.9278 353.0352,358.9122 Q354.0977,357.8966 355.9258,357.8966 Q356.5352,357.8966 357.0977,358.0372 Q357.6602,358.1622 358.1758,358.4434 L358.1758,359.9434 Q357.6446,359.5841 357.1289,359.4278 Q356.6289,359.2559 356.0664,359.2559 Q355.0664,359.2559 354.4883,359.9122 Q353.9102,360.5528 353.9102,361.6778 Q353.9102,362.8028 354.4883,363.4591 Q355.0664,364.0997 356.0664,364.0997 Q356.6289,364.0997 357.1289,363.9434 Q357.6446,363.7716 358.1758,363.4122 L358.1758,364.9122 Z " fill="#FFFFFF"/><text fill="#FFFFFF" font-family="Hack" font-size="14" lengthAdjust="spacing" textLength="129.9512" x="371.4877" y="366.6651">SimpleTransaction</text><line style="stroke:#FFFFFF;stroke-width:1;" x1="326.03" x2="522.6316" y1="374.9669" y2="374.9669"/><g data-visibility-modifier="PRIVATE_FIELD"><rect fill="none" height="6" style="stroke:#FFFFFF;stroke-width:1;" width="6" x="333.03" y="385.6153"/></g><text fill="#FFFFFF" font-family="Hack" font-size="14" lengthAdjust="spacing" textLength="175.6016" x="342.03" y="391.962">originalAmount : number</text><g data-visibility-modifier="PRIVATE_FIELD"><rect fill="none" height="6" style="stroke:#FFFFFF;stroke-width:1;" width="6" x="333.03" y="401.9122"/></g><text fill="#FFFFFF" font-family="Hack" font-size="14" lengthAdjust="spacing" textLength="122.2744" x="342.03" y="408.2589">amount : number</text><line style="stroke:#FFFFFF;stroke-width:1;" x1="326.03" x2="522.6316" y1="415.5606" y2="415.5606"/><g data-visibility-modifier="PRIVATE_METHOD"><rect fill="#000000" height="6" style="stroke:#FFFFFF;stroke-width:1;" width="6" x="333.03" y="426.2091"/></g><text fill="#FFFFFF" font-family="Hack" font-size="14" lengthAdjust="spacing" textLength="141.5654" x="342.03" y="432.5557">isSettled() : boolean</text></g><!--class SplitTransaction--><g class="entity" data-qualified-name="SplitTransaction" data-source-line="34" id="ent0010"><rect fill="#000000" height="74.8906" rx="2.5" ry="2.5" style="stroke:#FFFFFF;stroke-width:1;" width="227.3809" x="477.64" y="196.78"/><ellipse cx="531.2357" cy="209.9284" fill="#000000" rx="8" ry="8" style="stroke:#FFFFFF;stroke-width:1;"/><path d="M533.1888,213.0222 Q532.6732,213.3034 532.1107,213.4284 Q531.5482,213.5691 530.9388,213.5691 Q529.1107,213.5691 528.0482,212.5534 Q526.9857,211.5378 526.9857,209.7878 Q526.9857,208.0378 528.0482,207.0222 Q529.1107,206.0066 530.9388,206.0066 Q531.5482,206.0066 532.1107,206.1472 Q532.6732,206.2722 533.1888,206.5534 L533.1888,208.0534 Q532.6576,207.6941 532.142,207.5378 Q531.642,207.3659 531.0795,207.3659 Q530.0795,207.3659 529.5013,208.0222 Q528.9232,208.6628 528.9232,209.7878 Q528.9232,210.9128 529.5013,211.5691 Q530.0795,212.2097 531.0795,212.2097 Q531.642,212.2097 532.142,212.0534 Q532.6576,211.8816 533.1888,211.5222 L533.1888,213.0222 Z " fill="#FFFFFF"/><text fill="#FFFFFF" font-family="Hack" font-size="14" lengthAdjust="spacing" textLength="113.1895" x="547.2357" y="214.7751">SplitTransaction</text><line style="stroke:#FFFFFF;stroke-width:1;" x1="478.64" x2="704.0209" y1="223.0769" y2="223.0769"/><g data-visibility-modifier="PRIVATE_FIELD"><rect fill="none" height="6" style="stroke:#FFFFFF;stroke-width:1;" width="6" x="485.64" y="233.7253"/></g><text fill="#FFFFFF" font-family="Hack" font-size="14" lengthAdjust="spacing" textLength="122.2744" x="494.64" y="240.072">amount : number</text><line style="stroke:#FFFFFF;stroke-width:1;" x1="478.64" x2="704.0209" y1="247.3738" y2="247.3738"/><g data-visibility-modifier="PRIVATE_METHOD"><rect fill="#000000" height="6" style="stroke:#FFFFFF;stroke-width:1;" width="6" x="485.64" y="258.0222"/></g><text fill="#FFFFFF" font-family="Hack" font-size="14" lengthAdjust="spacing" textLength="204.3809" x="494.64" y="264.3689">override isSettled() : boolean</text></g><!--class Settlement--><g class="entity" data-qualified-name="Settlement" data-source-line="39" id="ent0012"><rect fill="#000000" height="58.5938" rx="2.5" ry="2.5" style="stroke:#FFFFFF;stroke-width:1;" width="125.3398" x="558.66" y="364.97"/><ellipse cx="580.4453" cy="378.1184" fill="#000000" rx="8" ry="8" style="stroke:#FFFFFF;stroke-width:1;"/><path d="M582.3984,381.2122 Q581.8828,381.4934 581.3203,381.6184 Q580.7578,381.7591 580.1484,381.7591 Q578.3203,381.7591 577.2578,380.7434 Q576.1953,379.7278 576.1953,377.9778 Q576.1953,376.2278 577.2578,375.2122 Q578.3203,374.1966 580.1484,374.1966 Q580.7578,374.1966 581.3203,374.3372 Q581.8828,374.4622 582.3984,374.7434 L582.3984,376.2434 Q581.8672,375.8841 581.3516,375.7278 Q580.8516,375.5559 580.2891,375.5559 Q579.2891,375.5559 578.7109,376.2122 Q578.1328,376.8528 578.1328,377.9778 Q578.1328,379.1028 578.7109,379.7591 Q579.2891,380.3997 580.2891,380.3997 Q580.8516,380.3997 581.3516,380.2434 Q581.8672,380.0716 582.3984,379.7122 L582.3984,381.2122 Z " fill="#FFFFFF"/><text fill="#FFFFFF" font-family="Hack" font-size="14" lengthAdjust="spacing" textLength="77.5947" x="593.6198" y="382.9651">Settlement</text><line style="stroke:#FFFFFF;stroke-width:1;" x1="559.66" x2="682.9998" y1="391.2669" y2="391.2669"/><text fill="#FFFFFF" font-family="Hack" font-size="14" lengthAdjust="spacing" textLength="113.3398" x="564.66" y="408.262">date : DateTime</text><line style="stroke:#FFFFFF;stroke-width:1;" x1="559.66" x2="682.9998" y1="415.5638" y2="415.5638"/></g><!--reverse link Transaction to SimpleTransaction--><g class="link" data-entity-1="ent0005" data-entity-2="ent0008" data-link-type="extension" data-source-line="29" id="lnk9"><path d="M408.5647,154.241 C412.6647,216.401 417.72,293.08 421.37,348.49" fill="none" id="Transaction-backto-SimpleTransaction" style="stroke:#FFFFFF;stroke-width:1;"/><polygon fill="none" points="407.38,136.28,402.5777,154.6359,414.5517,153.8461,407.38,136.28" style="stroke:#FFFFFF;stroke-width:1;"/></g><!--reverse link Transaction to SplitTransaction--><g class="link" data-entity-1="ent0005" data-entity-2="ent0010" data-link-type="extension" data-source-line="35" id="lnk11"><path d="M489.779,147.7037 C513.959,168.0637 526.36,178.51 547.64,196.43" fill="none" id="Transaction-backto-SplitTransaction" style="stroke:#FFFFFF;stroke-width:1;"/><polygon fill="none" points="476.01,136.11,485.9144,152.2934,493.6436,143.1141,476.01,136.11" style="stroke:#FFFFFF;stroke-width:1;"/></g><!--link Transaction to User--><g class="link" data-entity-1="ent0005" data-entity-2="ent0004" data-link-type="dependency" data-source-line="43" id="lnk13"><path codeLine="43" d="M379.74,136.11 C369.28,163.26 359.836,187.7807 352.366,207.1807" fill="none" id="Transaction-to-User" style="stroke:#FFFFFF;stroke-width:1;"/><polygon fill="#FFFFFF" points="350.21,212.78,357.1768,205.8185,352.0067,208.114,349.7112,202.9438,350.21,212.78" style="stroke:#FFFFFF;stroke-width:1;"/><text fill="#FFFFFF" font-family="Hack" font-size="13" lengthAdjust="spacing" textLength="6.5" x="370.8599" y="155.8097">*</text><text fill="#FFFFFF" font-family="Hack" font-size="13" lengthAdjust="spacing" textLength="8.271" x="343.2905" y="202.0848">1</text></g><!--link Transaction to Category--><g class="link" data-entity-1="ent0005" data-entity-2="ent0002" data-link-type="dependency" data-source-line="44" id="lnk14"><path codeLine="44" d="M320.63,125.64 C283.19,148.62 244.8739,172.1418 210.6039,193.1718" fill="none" id="Transaction-to-Category" style="stroke:#FFFFFF;stroke-width:1;"/><polygon fill="#FFFFFF" points="205.49,196.31,215.253,195.012,209.7516,193.6949,211.0687,188.1935,205.49,196.31" style="stroke:#FFFFFF;stroke-width:1;"/><text fill="#FFFFFF" font-family="Hack" font-size="13" lengthAdjust="spacing" textLength="8.271" x="304.6505" y="126.7923">1</text><text fill="#FFFFFF" font-family="Hack" font-size="13" lengthAdjust="spacing" textLength="8.271" x="207.1664" y="185.5826">1</text></g><!--link User to Home--><g class="link" data-entity-1="ent0004" data-entity-2="ent0003" data-link-type="dependency" data-source-line="45" id="lnk15"><path codeLine="45" d="M327.66,255.56 C307.63,283.33 275.1499,328.3537 252.4299,359.8537" fill="none" id="User-to-Home" style="stroke:#FFFFFF;stroke-width:1;"/><polygon fill="#FFFFFF" points="248.92,364.72,257.429,359.7605,251.8449,360.6648,250.9407,355.0807,248.92,364.72" style="stroke:#FFFFFF;stroke-width:1;"/><text fill="#FFFFFF" font-family="Hack" font-size="13" lengthAdjust="spacing" textLength="6.5" x="316.9797" y="275.3932">*</text><text fill="#FFFFFF" font-family="Hack" font-size="13" lengthAdjust="spacing" textLength="8.271" x="244.5805" y="353.6974">1</text></g><!--link Category to Home--><g class="link" data-entity-1="ent0002" data-entity-2="ent0003" data-link-type="dependency" data-source-line="46" id="lnk16"><path codeLine="46" d="M164.58,271.88 C179.42,300.15 196.8702,333.368 210.5302,359.378" fill="none" id="Category-to-Home" style="stroke:#FFFFFF;stroke-width:1;"/><polygon fill="#FFFFFF" points="213.32,364.69,212.6767,354.8622,210.9952,360.2633,205.594,358.5819,213.32,364.69" style="stroke:#FFFFFF;stroke-width:1;"/><text fill="#FFFFFF" font-family="Hack" font-size="13" lengthAdjust="spacing" textLength="6.5" x="161.4165" y="291.7193">*</text><text fill="#FFFFFF" font-family="Hack" font-size="13" lengthAdjust="spacing" textLength="8.271" x="201.4288" y="354.1235">1</text></g><!--link SplitTransaction to SimpleTransaction--><g class="link" data-entity-1="ent0010" data-entity-2="ent0008" data-link-type="dependency" data-source-line="47" id="lnk17"><path codeLine="47" d="M552.59,271.88 C528.51,294.68 501.7178,320.0257 476.1478,344.2257" fill="none" id="SplitTransaction-to-SimpleTransaction" style="stroke:#FFFFFF;stroke-width:1;"/><polygon fill="#FFFFFF" points="471.79,348.35,481.0762,345.0687,475.4215,344.9131,475.5771,339.2584,471.79,348.35" style="stroke:#FFFFFF;stroke-width:1;"/><text fill="#FFFFFF" font-family="Hack" font-size="13" lengthAdjust="spacing" textLength="57.9541" x="518.83" y="314.7369">balances</text><text fill="#FFFFFF" font-family="Hack" font-size="13" lengthAdjust="spacing" textLength="6.5" x="539.4588" y="291.7193">*</text><text fill="#FFFFFF" font-family="Hack" font-size="13" lengthAdjust="spacing" textLength="8.271" x="470.193" y="337.5815">1</text></g><!--link SplitTransaction to Settlement--><g class="link" data-entity-1="ent0010" data-entity-2="ent0012" data-link-type="dependency" data-source-line="48" id="lnk18"><path codeLine="48" d="M598.28,271.88 C603.65,300.15 609.8526,332.785 614.7826,358.795" fill="none" id="SplitTransaction-to-Settlement" style="stroke:#FFFFFF;stroke-width:1;"/><polygon fill="#FFFFFF" points="615.9,364.69,618.154,355.1025,614.9689,359.7775,610.2939,356.5923,615.9,364.69" style="stroke:#FFFFFF;stroke-width:1;"/><text fill="#FFFFFF" font-family="Hack" font-size="13" lengthAdjust="spacing" textLength="6.5" x="593.0018" y="291.7193">*</text><text fill="#FFFFFF" font-family="Hack" font-size="13" lengthAdjust="spacing" textLength="8.271" x="605.983" y="354.1235">1</text></g><?plantuml-src bLDDJyCm3BtdLvXUkY7ji6iFI0WEt3T-WDUQBY9ngYGjLC1_n-tQhcoCYLwQ-DdFpn-vYNko1DQnK-5LSuKURN_Dzzu9ugaX7qYft608y82HIkTR-50WtmeOnMaunxOYo21beYA5JqZVa6D_qDnGY9Raghv6hgUEV-IfQrqSeUT07fJ2NOWUymW7wzOZ1xbgnrES3XkAqL2nM4hgdNE6a0Ui4B5YV9JVLbkQAyv0c3MNWortjXDtQYuftbjNSrmiEstiXC_hSX_1lSpLPDdaUMmCbHXrGz2WgQN38YjqZQKMIYSfmDKzZGm0Acp9fm4mppkEWQ5oGLzWwFHs79eXkbyffbPkjAqCpLj7xv6u-4Sxn_awgLqpcg7I3BYsE_83YYVMeuBAw7XLm9H4zithWlwMSZbP7zCFyr3JwHA8vpnlSfl0QdK7oJhfj-udk3w2u-QhVZVdOTqUg-bXd25dvSyzpgSZfQ91pYbSYPmALTy0?></g></svg>