<?plantuml 1.2026.1?><svg xmlns="http://www.w3.org/2000/svg" xmlns:xlink="http://www.w3.org/1999/xlink" contentStyleType="text/css" data-diagram-type="CLASS" height="331px" preserveAspectRatio="none" style="width:663px;height:331px;background:#000000;" version="1.1" viewBox="0 0 663 331" width="663px" zoomAndPan="magnify"><defs/><g><!--class Category--><g class="entity" data-qualified-name="Category" data-source-line="4" id="ent0002"><rect fill="#000000" height="42.2969" rx="2.5" ry="2.5" style="stroke:#FFFFFF;stroke-width:1;" width="89.9502" x="12" y="163.19"/><ellipse cx="24" cy="176.3384" fill="#000000" rx="8" ry="8" style="stroke:#FFFFFF;stroke-width:1;"/><path d="M25.9531,179.4322 Q25.4375,179.7134 24.875,179.8384 Q24.3125,179.9791 23.7031,179.9791 Q21.875,179.9791 20.8125,178.9634 Q19.75,177.9478 19.75,176.1978 Q19.75,174.4478 20.8125,173.4322 Q21.875,172.4166 23.7031,172.4166 Q24.3125,172.4166 24.875,172.5572 Q25.4375,172.6822 25.9531,172.9634 L25.9531,174.4634 Q25.4219,174.1041 24.9063,173.9478 Q24.4063,173.7759 23.8438,173.7759 Q22.8438,173.7759 22.2656,174.4322 Q21.6875,175.0728 21.6875,176.1978 Q21.6875,177.3228 22.2656,177.9791 Q22.8438,178.6197 23.8438,178.6197 Q24.4063,178.6197 24.9063,178.4634 Q25.4219,178.2916 25.9531,177.9322 L25.9531,179.4322 Z " fill="#FFFFFF"/><text fill="#FFFFFF" font-family="Hack" font-size="14" lengthAdjust="spacing" textLength="63.9502" x="35" y="181.1851">Category</text><line style="stroke:#FFFFFF;stroke-width:1;" x1="13" x2="100.9502" y1="189.4869" y2="189.4869"/><line style="stroke:#FFFFFF;stroke-width:1;" x1="13" x2="100.9502" y1="197.4869" y2="197.4869"/></g><!--class Home--><g class="entity" data-qualified-name="Home" data-source-line="6" id="ent0003"><rect fill="#000000" height="42.2969" rx="2.5" ry="2.5" style="stroke:#FFFFFF;stroke-width:1;" width="67.3438" x="77.3" y="281.78"/><ellipse cx="89.3" cy="294.9284" fill="#000000" rx="8" ry="8" style="stroke:#FFFFFF;stroke-width:1;"/><path d="M91.2531,298.0222 Q90.7375,298.3034 90.175,298.4284 Q89.6125,298.5691 89.0031,298.5691 Q87.175,298.5691 86.1125,297.5534 Q85.05,296.5378 85.05,294.7878 Q85.05,293.0378 86.1125,292.0222 Q87.175,291.0066 89.0031,291.0066 Q89.6125,291.0066 90.175,291.1472 Q90.7375,291.2722 91.2531,291.5534 L91.2531,293.0534 Q90.7219,292.6941 90.2063,292.5378 Q89.7063,292.3659 89.1438,292.3659 Q88.1438,292.3659 87.5656,293.0222 Q86.9875,293.6628 86.9875,294.7878 Q86.9875,295.9128 87.5656,296.5691 Q88.1438,297.2097 89.1438,297.2097 Q89.7063,297.2097 90.2063,297.0534 Q90.7219,296.8816 91.2531,296.5222 L91.2531,298.0222 Z " fill="#FFFFFF"/><text fill="#FFFFFF" font-family="Hack" font-size="14" lengthAdjust="spacing" textLength="41.3438" x="100.3" y="299.7751">Home</text><line style="stroke:#FFFFFF;stroke-width:1;" x1="78.3" x2="143.6438" y1="308.0769" y2="308.0769"/><line style="stroke:#FFFFFF;stroke-width:1;" x1="78.3" x2="143.6438" y1="316.0769" y2="316.0769"/></g><!--class User--><g class="entity" data-qualified-name="User" data-source-line="8" id="ent0004"><rect fill="#000000" height="42.2969" rx="2.5" ry="2.5" style="stroke:#FFFFFF;stroke-width:1;" width="57.9102" x="137.02" y="163.19"/><ellipse cx="149.02" cy="176.3384" fill="#000000" rx="8" ry="8" style="stroke:#FFFFFF;stroke-width:1;"/><path d="M150.9731,179.4322 Q150.4575,179.7134 149.895,179.8384 Q149.3325,179.9791 148.7231,179.9791 Q146.895,179.9791 145.8325,178.9634 Q144.77,177.9478 144.77,176.1978 Q144.77,174.4478 145.8325,173.4322 Q146.895,172.4166 148.7231,172.4166 Q149.3325,172.4166 149.895,172.5572 Q150.4575,172.6822 150.9731,172.9634 L150.9731,174.4634 Q150.4419,174.1041 149.9262,173.9478 Q149.4262,173.7759 148.8637,173.7759 Q147.8637,173.7759 147.2856,174.4322 Q146.7075,175.0728 146.7075,176.1978 Q146.7075,177.3228 147.2856,177.9791 Q147.8637,178.6197 148.8637,178.6197 Q149.4262,178.6197 149.9262,178.4634 Q150.4419,178.2916 150.9731,177.9322 L150.9731,179.4322 Z " fill="#FFFFFF"/><text fill="#FFFFFF" font-family="Hack" font-size="14" lengthAdjust="spacing" textLength="31.9102" x="160.02" y="181.1851">User</text><line style="stroke:#FFFFFF;stroke-width:1;" x1="138.02" x2="193.9302" y1="189.4869" y2="189.4869"/><line style="stroke:#FFFFFF;stroke-width:1;" x1="138.02" x2="193.9302" y1="197.4869" y2="197.4869"/></g><!--class Transaction--><g class="entity" data-qualified-name="Transaction" data-source-line="10" id="ent0005"><rect fill="#000000" height="74.8906" rx="2.5" ry="2.5" style="stroke:#FFFFFF;stroke-width:1;" width="164.5654" x="229.69" y="12"/><ellipse cx="267.399" cy="25.1484" fill="#000000" rx="8" ry="8" style="stroke:#FFFFFF;stroke-width:1;"/><path d="M267.7427,26.3203 L264.8052,26.3203 L264.3365,27.6484 L262.4459,27.6484 L265.149,20.3516 L267.3834,20.3516 L270.0865,27.6484 L268.1959,27.6484 L267.7427,26.3203 Z M265.274,24.9609 L267.274,24.9609 L266.274,22.0703 L265.274,24.9609 Z " fill="#FFFFFF"/><text fill="#FFFFFF" font-family="Hack" font-size="14" font-style="italic" lengthAdjust="spacing" textLength="82.1475" x="283.399" y="29.9951">Transaction</text><line style="stroke:#FFFFFF;stroke-width:1;" x1="230.69" x2="393.2554" y1="38.2969" y2="38.2969"/><line style="stroke:#FFFFFF;stroke-width:1;" x1="230.69" x2="393.2554" y1="46.2969" y2="46.2969"/><g data-visibility-modifier="PRIVATE_METHOD"><rect fill="#000000" height="6" style="stroke:#FFFFFF;stroke-width:1;" width="6" x="237.69" y="56.9453"/></g><text fill="#FFFFFF" font-family="Hack" font-size="14" lengthAdjust="spacing" textLength="141.5654" x="246.69" y="63.292">isSettled() : boolean</text><g data-visibility-modifier="PRIVATE_METHOD"><rect fill="#000000" height="6" style="stroke:#FFFFFF;stroke-width:1;" width="6" x="237.69" y="73.2422"/></g><text fill="#FFFFFF" font-family="Hack" font-size="14" lengthAdjust="spacing" textLength="88.9287" x="246.69" y="79.5889">getAmount()</text></g><!--class SimpleTransaction--><g class="entity" data-qualified-name="SimpleTransaction" data-source-line="15" id="ent0006"><rect fill="#000000" height="58.5938" rx="2.5" ry="2.5" style="stroke:#FFFFFF;stroke-width:1;" width="164.5654" x="229.69" y="155.04"/><ellipse cx="245.5664" cy="168.1884" fill="#000000" rx="8" ry="8" style="stroke:#FFFFFF;stroke-width:1;"/><path d="M247.5195,171.2822 Q247.0039,171.5634 246.4414,171.6884 Q245.8789,171.8291 245.2695,171.8291 Q243.4414,171.8291 242.3789,170.8134 Q241.3164,169.7978 241.3164,168.0478 Q241.3164,166.2978 242.3789,165.2822 Q243.4414,164.2666 245.2695,164.2666 Q245.8789,164.2666 246.4414,164.4072 Q247.0039,164.5322 247.5195,164.8134 L247.5195,166.3134 Q246.9883,165.9541 246.4727,165.7978 Q245.9727,165.6259 245.4102,165.6259 Q244.4102,165.6259 243.832,166.2822 Q243.2539,166.9228 243.2539,168.0478 Q243.2539,169.1728 243.832,169.8291 Q244.4102,170.4697 245.4102,170.4697 Q245.9727,170.4697 246.4727,170.3134 Q246.9883,170.1416 247.5195,169.7822 L247.5195,171.2822 Z " fill="#FFFFFF"/><text fill="#FFFFFF" font-family="Hack" font-size="14" lengthAdjust="spacing" textLength="129.9512" x="257.4278" y="173.0351">SimpleTransaction</text><line style="stroke:#FFFFFF;stroke-width:1;" x1="230.69" x2="393.2554" y1="181.3369" y2="181.3369"/><line style="stroke:#FFFFFF;stroke-width:1;" x1="230.69" x2="393.2554" y1="189.3369" y2="189.3369"/><g data-visibility-modifier="PRIVATE_METHOD"><rect fill="#000000" height="6" style="stroke:#FFFFFF;stroke-width:1;" width="6" x="237.69" y="199.9853"/></g><text fill="#FFFFFF" font-family="Hack" font-size="14" lengthAdjust="spacing" textLength="141.5654" x="246.69" y="206.332">isSettled() : boolean</text></g><!--class SplitTransaction--><g class="entity" data-qualified-name="SplitTransaction" data-source-line="19" id="ent0008"><rect fill="#000000" height="74.8906" rx="2.5" ry="2.5" style="stroke:#FFFFFF;stroke-width:1;" width="227.3809" x="429.28" y="146.89"/><ellipse cx="482.8757" cy="160.0384" fill="#000000" rx="8" ry="8" style="stroke:#FFFFFF;stroke-width:1;"/><path d="M484.8288,163.1322 Q484.3132,163.4134 483.7507,163.5384 Q483.1882,163.6791 482.5788,163.6791 Q480.7507,163.6791 479.6882,162.6634 Q478.6257,161.6478 478.6257,159.8978 Q478.6257,158.1478 479.6882,157.1322 Q480.7507,156.1166 482.5788,156.1166 Q483.1882,156.1166 483.7507,156.2572 Q484.3132,156.3822 484.8288,156.6634 L484.8288,158.1634 Q484.2976,157.8041 483.782,157.6478 Q483.282,157.4759 482.7195,157.4759 Q481.7195,157.4759 481.1413,158.1322 Q480.5632,158.7728 480.5632,159.8978 Q480.5632,161.0228 481.1413,161.6791 Q481.7195,162.3197 482.7195,162.3197 Q483.282,162.3197 483.782,162.1634 Q484.2976,161.9916 484.8288,161.6322 L484.8288,163.1322 Z " fill="#FFFFFF"/><text fill="#FFFFFF" font-family="Hack" font-size="14" lengthAdjust="spacing" textLength="113.1895" x="498.8757" y="164.8851">SplitTransaction</text><line style="stroke:#FFFFFF;stroke-width:1;" x1="430.28" x2="655.6609" y1="173.1869" y2="173.1869"/><g data-visibility-modifier="PRIVATE_FIELD"><rect fill="none" height="6" style="stroke:#FFFFFF;stroke-width:1;" width="6" x="437.28" y="183.8353"/></g><text fill="#FFFFFF" font-family="Hack" font-size="14" lengthAdjust="spacing" textLength="163.5088" x="446.28" y="190.182">settledDate : DateTime</text><line style="stroke:#FFFFFF;stroke-width:1;" x1="430.28" x2="655.6609" y1="197.4838" y2="197.4838"/><g data-visibility-modifier="PRIVATE_METHOD"><rect fill="#000000" height="6" style="stroke:#FFFFFF;stroke-width:1;" width="6" x="437.28" y="208.1322"/></g><text fill="#FFFFFF" font-family="Hack" font-size="14" lengthAdjust="spacing" textLength="204.3809" x="446.28" y="214.4789">override isSettled() : boolean</text></g><!--reverse link Transaction to SimpleTransaction--><g class="link" data-entity-1="ent0005" data-entity-2="ent0006" data-link-type="extension" data-source-line="16" id="lnk7"><path d="M298.4885,105.0377 C296.5685,126.3977 298.47,135 300.97,154.79" fill="none" id="Transaction-backto-SimpleTransaction" style="stroke:#FFFFFF;stroke-width:1;"/><polygon fill="none" points="300.1,87.11,292.5126,104.5006,304.4644,105.5749,300.1,87.11" style="stroke:#FFFFFF;stroke-width:1;"/></g><!--link Transaction to SimpleTransaction--><g class="link" data-entity-1="ent0005" data-entity-2="ent0006" data-link-type="dependency" data-source-line="28" id="lnk14"><path codeLine="28" d="M323.85,87.11 C325.77,108.47 326.232,129.0473 323.732,148.8373" fill="none" id="Transaction-to-SimpleTransaction" style="stroke:#FFFFFF;stroke-width:1;"/><polygon fill="#FFFFFF" points="322.98,154.79,328.0764,146.3623,323.6067,149.8294,320.1395,145.3596,322.98,154.79" style="stroke:#FFFFFF;stroke-width:1;"/><text fill="#FFFFFF" font-family="Hack" font-size="13" lengthAdjust="spacing" textLength="8.271" x="317.2272" y="106.951">1</text><text fill="#FFFFFF" font-family="Hack" font-size="13" lengthAdjust="spacing" textLength="6.5" x="318.7863" y="143.7674">*</text></g><!--reverse link Transaction to SplitTransaction--><g class="link" data-entity-1="ent0005" data-entity-2="ent0008" data-link-type="extension" data-source-line="20" id="lnk9"><path d="M391.6141,96.2629 C423.6641,114.6929 446.75,127.98 478.81,146.43" fill="none" id="Transaction-backto-SplitTransaction" style="stroke:#FFFFFF;stroke-width:1;"/><polygon fill="none" points="376.01,87.29,388.6231,101.4643,394.605,91.0616,376.01,87.29" style="stroke:#FFFFFF;stroke-width:1;"/></g><!--link Transaction to User--><g class="link" data-entity-1="ent0005" data-entity-2="ent0004" data-link-type="dependency" data-source-line="24" id="lnk10"><path codeLine="24" d="M271.69,87.11 C244.85,111.54 215.0076,138.7117 192.8876,158.8417" fill="none" id="Transaction-to-User" style="stroke:#FFFFFF;stroke-width:1;"/><polygon fill="#FFFFFF" points="188.45,162.88,197.7985,159.7809,192.148,159.5147,192.4141,153.8641,188.45,162.88" style="stroke:#FFFFFF;stroke-width:1;"/><text fill="#FFFFFF" font-family="Hack" font-size="13" lengthAdjust="spacing" textLength="6.5" x="258.2938" y="106.951">*</text><text fill="#FFFFFF" font-family="Hack" font-size="13" lengthAdjust="spacing" textLength="8.271" x="185.4516" y="152.1822">1</text></g><!--link Transaction to Category--><g class="link" data-entity-1="ent0005" data-entity-2="ent0002" data-link-type="dependency" data-source-line="25" id="lnk11"><path codeLine="25" d="M236.22,87.22 C200.67,104.8 157.89,126.43 119.98,146.89 C110.75,151.87 106.075,154.458 96.955,159.728" fill="none" id="Transaction-to-Category" style="stroke:#FFFFFF;stroke-width:1;"/><polygon fill="#FFFFFF" points="91.76,162.73,101.5538,161.6904,96.0892,160.2284,97.5512,154.7637,91.76,162.73" style="stroke:#FFFFFF;stroke-width:1;"/><text fill="#FFFFFF" font-family="Hack" font-size="13" lengthAdjust="spacing" textLength="8.271" x="214.5358" y="107.0799">1</text><text fill="#FFFFFF" font-family="Hack" font-size="13" lengthAdjust="spacing" textLength="8.271" x="92.0699" y="151.9918">1</text></g><!--link User to Home--><g class="link" data-entity-1="ent0004" data-entity-2="ent0003" data-link-type="dependency" data-source-line="26" id="lnk12"><path codeLine="26" d="M156.27,205.91 C146.22,227.23 133.1609,254.904 123.1409,276.134" fill="none" id="User-to-Home" style="stroke:#FFFFFF;stroke-width:1;"/><polygon fill="#FFFFFF" points="120.58,281.56,128.0387,275.1283,122.7141,277.0383,120.8041,271.7137,120.58,281.56" style="stroke:#FFFFFF;stroke-width:1;"/><text fill="#FFFFFF" font-family="Hack" font-size="13" lengthAdjust="spacing" textLength="6.5" x="147.0784" y="225.4435">*</text><text fill="#FFFFFF" font-family="Hack" font-size="13" lengthAdjust="spacing" textLength="8.271" x="114.1236" y="270.8863">1</text></g><!--link Category to Home--><g class="link" data-entity-1="ent0002" data-entity-2="ent0003" data-link-type="dependency" data-source-line="27" id="lnk13"><path codeLine="27" d="M66.5,205.91 C76.38,227.23 89.189,254.8853 99.019,276.1153" fill="none" id="Category-to-Home" style="stroke:#FFFFFF;stroke-width:1;"/><polygon fill="#FFFFFF" points="101.54,281.56,101.3883,271.7123,99.4392,277.0228,94.1287,275.0737,101.54,281.56" style="stroke:#FFFFFF;stroke-width:1;"/><text fill="#FFFFFF" font-family="Hack" font-size="13" lengthAdjust="spacing" textLength="6.5" x="62.2361" y="225.4435">*</text><text fill="#FFFFFF" font-family="Hack" font-size="13" lengthAdjust="spacing" textLength="8.271" x="89.9666" y="270.8863">1</text></g><?plantuml-src bP71Ri8m38RlUGgl9vZK0zSTaD1ss1ts0A6r85eILxQPG8Xtdsaf5052v9BOd_D5-lEcQqm8YJ8v-GsvyUnJMrPh9YECVyY2pbNHYy2dLrmHxw1lVDjGV_uHP0D-ASg-KkYw2_PPh0oKOU_0LWb1vgWQiHwDuGEMH15zFh4LwYpH9kjex0wzUXvI4t6emgrYhb_Gmy3MnA1FPN2oaIN0eSP7scvAElHb0HayRejWqTYRGsdnNa1PJg6O56rSrt1oWNtGhWrrUArD_FmFD-Ikq8Pk4dJ_?></g></svg>