<?plantuml 1.2026.1?><svg xmlns="http://www.w3.org/2000/svg" xmlns:xlink="http://www.w3.org/1999/xlink" contentStyleType="text/css" data-diagram-type="CLASS" height="463px" preserveAspectRatio="none" style="width:1035px;height:463px;background:#000000;" version="1.1" viewBox="0 0 1035 463" width="1035px" zoomAndPan="magnify"><defs/><g><!--class Category--><g class="entity" data-qualified-name="Category" data-source-line="4" id="ent0002"><rect fill="#000000" height="91.1875" rx="2.5" ry="2.5" style="stroke:#FFFFFF;stroke-width:1;" width="266.6533" x="12" y="196.79"/><ellipse cx="109.8516" cy="209.9384" fill="#000000" rx="8" ry="8" style="stroke:#FFFFFF;stroke-width:1;"/><path d="M111.8047,213.0322 Q111.2891,213.3134 110.7266,213.4384 Q110.1641,213.5791 109.5547,213.5791 Q107.7266,213.5791 106.6641,212.5634 Q105.6016,211.5478 105.6016,209.7978 Q105.6016,208.0478 106.6641,207.0322 Q107.7266,206.0166 109.5547,206.0166 Q110.1641,206.0166 110.7266,206.1572 Q111.2891,206.2822 111.8047,206.5634 L111.8047,208.0634 Q111.2734,207.7041 110.7578,207.5478 Q110.2578,207.3759 109.6953,207.3759 Q108.6953,207.3759 108.1172,208.0322 Q107.5391,208.6728 107.5391,209.7978 Q107.5391,210.9228 108.1172,211.5791 Q108.6953,212.2197 109.6953,212.2197 Q110.2578,212.2197 110.7578,212.0634 Q111.2734,211.8916 111.8047,211.5322 L111.8047,213.0322 Z " fill="#FFFFFF"/><text fill="#FFFFFF" font-family="Hack" font-size="14" lengthAdjust="spacing" textLength="63.9502" x="125.8516" y="214.7851">Category</text><line style="stroke:#FFFFFF;stroke-width:1;" x1="13" x2="277.6533" y1="223.0869" y2="223.0869"/><g data-visibility-modifier="PRIVATE_FIELD"><rect fill="none" height="6" style="stroke:#FFFFFF;stroke-width:1;" width="6" x="20" y="233.7353"/></g><text fill="#FFFFFF" font-family="Hack" font-size="14" lengthAdjust="spacing" textLength="39.7031" x="29" y="240.082">name</text><g data-visibility-modifier="PRIVATE_FIELD"><rect fill="none" height="6" style="stroke:#FFFFFF;stroke-width:1;" width="6" x="20" y="250.0322"/></g><text fill="#FFFFFF" font-family="Hack" font-size="14" lengthAdjust="spacing" textLength="243.6533" x="29" y="256.3789">type : 'need' | 'want' | 'investment'</text><g data-visibility-modifier="PRIVATE_FIELD"><rect fill="none" height="6" style="stroke:#FFFFFF;stroke-width:1;" width="6" x="20" y="266.3291"/></g><text fill="#FFFFFF" font-family="Hack" font-size="14" lengthAdjust="spacing" textLength="103.1748" x="29" y="272.6757">color: hexcode</text><line style="stroke:#FFFFFF;stroke-width:1;" x1="13" x2="277.6533" y1="279.9775" y2="279.9775"/></g><!--class Home--><g class="entity" data-qualified-name="Home" data-source-line="10" id="ent0003"><rect fill="#000000" height="58.5938" rx="2.5" ry="2.5" style="stroke:#FFFFFF;stroke-width:1;" width="67.3438" x="242.65" y="381.27"/><ellipse cx="254.65" cy="394.4184" fill="#000000" rx="8" ry="8" style="stroke:#FFFFFF;stroke-width:1;"/><path d="M256.6031,397.5122 Q256.0875,397.7934 255.525,397.9184 Q254.9625,398.0591 254.3531,398.0591 Q252.525,398.0591 251.4625,397.0434 Q250.4,396.0278 250.4,394.2778 Q250.4,392.5278 251.4625,391.5122 Q252.525,390.4966 254.3531,390.4966 Q254.9625,390.4966 255.525,390.6372 Q256.0875,390.7622 256.6031,391.0434 L256.6031,392.5434 Q256.0719,392.1841 255.5563,392.0278 Q255.0563,391.8559 254.4938,391.8559 Q253.4938,391.8559 252.9156,392.5122 Q252.3375,393.1528 252.3375,394.2778 Q252.3375,395.4028 252.9156,396.0591 Q253.4938,396.6997 254.4938,396.6997 Q255.0563,396.6997 255.5563,396.5434 Q256.0719,396.3716 256.6031,396.0122 L256.6031,397.5122 Z " fill="#FFFFFF"/><text fill="#FFFFFF" font-family="Hack" font-size="14" lengthAdjust="spacing" textLength="41.3438" x="265.65" y="399.2651">Home</text><line style="stroke:#FFFFFF;stroke-width:1;" x1="243.65" x2="308.9938" y1="407.5669" y2="407.5669"/><g data-visibility-modifier="PRIVATE_FIELD"><rect fill="none" height="6" style="stroke:#FFFFFF;stroke-width:1;" width="6" x="250.65" y="418.2153"/></g><text fill="#FFFFFF" font-family="Hack" font-size="14" lengthAdjust="spacing" textLength="30.5225" x="259.65" y="424.562">uuid</text><line style="stroke:#FFFFFF;stroke-width:1;" x1="243.65" x2="308.9938" y1="431.8638" y2="431.8638"/></g><!--class User--><g class="entity" data-qualified-name="User" data-source-line="14" id="ent0004"><rect fill="#000000" height="58.5938" rx="2.5" ry="2.5" style="stroke:#FFFFFF;stroke-width:1;" width="126.1748" x="313.24" y="213.08"/><ellipse cx="356.8723" cy="226.2284" fill="#000000" rx="8" ry="8" style="stroke:#FFFFFF;stroke-width:1;"/><path d="M358.8254,229.3222 Q358.3098,229.6034 357.7473,229.7284 Q357.1848,229.8691 356.5754,229.8691 Q354.7473,229.8691 353.6848,228.8534 Q352.6223,227.8378 352.6223,226.0878 Q352.6223,224.3378 353.6848,223.3222 Q354.7473,222.3066 356.5754,222.3066 Q357.1848,222.3066 357.7473,222.4472 Q358.3098,222.5722 358.8254,222.8534 L358.8254,224.3534 Q358.2942,223.9941 357.7786,223.8378 Q357.2786,223.6659 356.7161,223.6659 Q355.7161,223.6659 355.1379,224.3222 Q354.5598,224.9628 354.5598,226.0878 Q354.5598,227.2128 355.1379,227.8691 Q355.7161,228.5097 356.7161,228.5097 Q357.2786,228.5097 357.7786,228.3534 Q358.2942,228.1816 358.8254,227.8222 L358.8254,229.3222 Z " fill="#FFFFFF"/><text fill="#FFFFFF" font-family="Hack" font-size="14" lengthAdjust="spacing" textLength="31.9102" x="372.8723" y="231.0751">User</text><line style="stroke:#FFFFFF;stroke-width:1;" x1="314.24" x2="438.4148" y1="239.3769" y2="239.3769"/><g data-visibility-modifier="PRIVATE_FIELD"><rect fill="none" height="6" style="stroke:#FFFFFF;stroke-width:1;" width="6" x="321.24" y="250.0253"/></g><text fill="#FFFFFF" font-family="Hack" font-size="14" lengthAdjust="spacing" textLength="103.1748" x="330.24" y="256.372">color: hexcode</text><line style="stroke:#FFFFFF;stroke-width:1;" x1="314.24" x2="438.4148" y1="263.6738" y2="263.6738"/></g><!--class Transaction--><g class="entity" data-qualified-name="Transaction" data-source-line="18" id="ent0005"><rect fill="#000000" height="123.7813" rx="2.5" ry="2.5" style="stroke:#FFFFFF;stroke-width:1;" width="164.5654" x="381.04" y="12"/><ellipse cx="418.749" cy="25.1484" fill="#000000" rx="8" ry="8" style="stroke:#FFFFFF;stroke-width:1;"/><path d="M419.0927,26.3203 L416.1552,26.3203 L415.6865,27.6484 L413.7959,27.6484 L416.499,20.3516 L418.7334,20.3516 L421.4365,27.6484 L419.5459,27.6484 L419.0927,26.3203 Z M416.624,24.9609 L418.624,24.9609 L417.624,22.0703 L416.624,24.9609 Z " fill="#FFFFFF"/><text fill="#FFFFFF" font-family="Hack" font-size="14" font-style="italic" lengthAdjust="spacing" textLength="82.1475" x="434.749" y="29.9951">Transaction</text><line style="stroke:#FFFFFF;stroke-width:1;" x1="382.04" x2="544.6054" y1="38.2969" y2="38.2969"/><g data-visibility-modifier="PRIVATE_FIELD"><rect fill="none" height="6" style="stroke:#FFFFFF;stroke-width:1;" width="6" x="389.04" y="48.9453"/></g><text fill="#FFFFFF" font-family="Hack" font-size="14" lengthAdjust="spacing" textLength="113.3398" x="398.04" y="55.292">date : DateTime</text><g data-visibility-modifier="PRIVATE_FIELD"><rect fill="none" height="6" style="stroke:#FFFFFF;stroke-width:1;" width="6" x="389.04" y="65.2422"/></g><text fill="#FFFFFF" font-family="Hack" font-size="14" lengthAdjust="spacing" textLength="93.5088" x="398.04" y="71.5889">name : string</text><g data-visibility-modifier="PRIVATE_FIELD"><rect fill="none" height="6" style="stroke:#FFFFFF;stroke-width:1;" width="6" x="389.04" y="81.5391"/></g><text fill="#FFFFFF" font-family="Hack" font-size="14" lengthAdjust="spacing" textLength="120.3193" x="398.04" y="87.8857">comment : string</text><line style="stroke:#FFFFFF;stroke-width:1;" x1="382.04" x2="544.6054" y1="95.1875" y2="95.1875"/><g data-visibility-modifier="PRIVATE_METHOD"><rect fill="#000000" height="6" style="stroke:#FFFFFF;stroke-width:1;" width="6" x="389.04" y="105.8359"/></g><text fill="#FFFFFF" font-family="Hack" font-size="14" lengthAdjust="spacing" textLength="141.5654" x="398.04" y="112.1826">isSettled() : boolean</text><g data-visibility-modifier="PRIVATE_METHOD"><rect fill="#000000" height="6" style="stroke:#FFFFFF;stroke-width:1;" width="6" x="389.04" y="122.1328"/></g><text fill="#FFFFFF" font-family="Hack" font-size="14" lengthAdjust="spacing" textLength="88.9287" x="398.04" y="128.4795">getAmount()</text></g><path d="M580.4,48.76 L580.4,64.8928 L486.9687,123.6328 L580.4,72.8928 L580.4,89.0256 A0,0 0 0 0 580.4,89.0256 L1028.2608,89.0256 A0,0 0 0 0 1028.2608,89.0256 L1028.2608,58.76 L1018.2608,48.76 L580.4,48.76 A0,0 0 0 0 580.4,48.76" fill="#000000" style="stroke:#FFFFFF;stroke-width:1;"/><path d="M1018.2608,48.76 L1018.2608,58.76 L1028.2608,58.76 L1018.2608,48.76" fill="#000000" style="stroke:#FFFFFF;stroke-width:1;"/><text fill="#FFFFFF" font-family="Hack" font-size="13" lengthAdjust="spacing" textLength="417.4219" x="586.4" y="65.8269">- negative value means money going out of the payer's account</text><text fill="#FFFFFF" font-family="Hack" font-size="13" lengthAdjust="spacing" textLength="426.8608" x="586.4" y="80.9597">- positive value means money comming in to the payer's account</text><!--class SimpleTransaction--><g class="entity" data-qualified-name="SimpleTransaction" data-source-line="31" id="ent0008"><rect fill="#000000" height="91.1875" rx="2.5" ry="2.5" style="stroke:#FFFFFF;stroke-width:1;" width="198.6016" x="393.03" y="364.97"/><ellipse cx="424.2227" cy="378.1184" fill="#000000" rx="8" ry="8" style="stroke:#FFFFFF;stroke-width:1;"/><path d="M426.1758,381.2122 Q425.6602,381.4934 425.0977,381.6184 Q424.5352,381.7591 423.9258,381.7591 Q422.0977,381.7591 421.0352,380.7434 Q419.9727,379.7278 419.9727,377.9778 Q419.9727,376.2278 421.0352,375.2122 Q422.0977,374.1966 423.9258,374.1966 Q424.5352,374.1966 425.0977,374.3372 Q425.6602,374.4622 426.1758,374.7434 L426.1758,376.2434 Q425.6446,375.8841 425.1289,375.7278 Q424.6289,375.5559 424.0664,375.5559 Q423.0664,375.5559 422.4883,376.2122 Q421.9102,376.8528 421.9102,377.9778 Q421.9102,379.1028 422.4883,379.7591 Q423.0664,380.3997 424.0664,380.3997 Q424.6289,380.3997 425.1289,380.2434 Q425.6446,380.0716 426.1758,379.7122 L426.1758,381.2122 Z " fill="#FFFFFF"/><text fill="#FFFFFF" font-family="Hack" font-size="14" lengthAdjust="spacing" textLength="129.9512" x="439.4877" y="382.9651">SimpleTransaction</text><line style="stroke:#FFFFFF;stroke-width:1;" x1="394.03" x2="590.6316" y1="391.2669" y2="391.2669"/><g data-visibility-modifier="PRIVATE_FIELD"><rect fill="none" height="6" style="stroke:#FFFFFF;stroke-width:1;" width="6" x="401.03" y="401.9153"/></g><text fill="#FFFFFF" font-family="Hack" font-size="14" lengthAdjust="spacing" textLength="175.6016" x="410.03" y="408.262">originalAmount : number</text><g data-visibility-modifier="PRIVATE_FIELD"><rect fill="none" height="6" style="stroke:#FFFFFF;stroke-width:1;" width="6" x="401.03" y="418.2122"/></g><text fill="#FFFFFF" font-family="Hack" font-size="14" lengthAdjust="spacing" textLength="122.2744" x="410.03" y="424.5589">amount : number</text><line style="stroke:#FFFFFF;stroke-width:1;" x1="394.03" x2="590.6316" y1="431.8606" y2="431.8606"/><g data-visibility-modifier="PRIVATE_METHOD"><rect fill="#000000" height="6" style="stroke:#FFFFFF;stroke-width:1;" width="6" x="401.03" y="442.5091"/></g><text fill="#FFFFFF" font-family="Hack" font-size="14" lengthAdjust="spacing" textLength="141.5654" x="410.03" y="448.8557">isSettled() : boolean</text></g><!--class SplitTransaction--><g class="entity" data-qualified-name="SplitTransaction" data-source-line="37" id="ent0010"><rect fill="#000000" height="74.8906" rx="2.5" ry="2.5" style="stroke:#FFFFFF;stroke-width:1;" width="227.3809" x="545.64" y="204.93"/><ellipse cx="599.2357" cy="218.0784" fill="#000000" rx="8" ry="8" style="stroke:#FFFFFF;stroke-width:1;"/><path d="M601.1888,221.1722 Q600.6732,221.4534 600.1107,221.5784 Q599.5482,221.7191 598.9388,221.7191 Q597.1107,221.7191 596.0482,220.7034 Q594.9857,219.6878 594.9857,217.9378 Q594.9857,216.1878 596.0482,215.1722 Q597.1107,214.1566 598.9388,214.1566 Q599.5482,214.1566 600.1107,214.2972 Q600.6732,214.4222 601.1888,214.7034 L601.1888,216.2034 Q600.6576,215.8441 600.142,215.6878 Q599.642,215.5159 599.0795,215.5159 Q598.0795,215.5159 597.5013,216.1722 Q596.9232,216.8128 596.9232,217.9378 Q596.9232,219.0628 597.5013,219.7191 Q598.0795,220.3597 599.0795,220.3597 Q599.642,220.3597 600.142,220.2034 Q600.6576,220.0316 601.1888,219.6722 L601.1888,221.1722 Z " fill="#FFFFFF"/><text fill="#FFFFFF" font-family="Hack" font-size="14" lengthAdjust="spacing" textLength="113.1895" x="615.2357" y="222.9251">SplitTransaction</text><line style="stroke:#FFFFFF;stroke-width:1;" x1="546.64" x2="772.0209" y1="231.2269" y2="231.2269"/><g data-visibility-modifier="PRIVATE_FIELD"><rect fill="none" height="6" style="stroke:#FFFFFF;stroke-width:1;" width="6" x="553.64" y="241.8753"/></g><text fill="#FFFFFF" font-family="Hack" font-size="14" lengthAdjust="spacing" textLength="122.2744" x="562.64" y="248.222">amount : number</text><line style="stroke:#FFFFFF;stroke-width:1;" x1="546.64" x2="772.0209" y1="255.5238" y2="255.5238"/><g data-visibility-modifier="PRIVATE_METHOD"><rect fill="#000000" height="6" style="stroke:#FFFFFF;stroke-width:1;" width="6" x="553.64" y="266.1722"/></g><text fill="#FFFFFF" font-family="Hack" font-size="14" lengthAdjust="spacing" textLength="204.3809" x="562.64" y="272.5189">override isSettled() : boolean</text></g><!--class Settlement--><g class="entity" data-qualified-name="Settlement" data-source-line="42" id="ent0012"><rect fill="#000000" height="58.5938" rx="2.5" ry="2.5" style="stroke:#FFFFFF;stroke-width:1;" width="125.3398" x="626.66" y="381.27"/><ellipse cx="648.4453" cy="394.4184" fill="#000000" rx="8" ry="8" style="stroke:#FFFFFF;stroke-width:1;"/><path d="M650.3984,397.5122 Q649.8828,397.7934 649.3203,397.9184 Q648.7578,398.0591 648.1484,398.0591 Q646.3203,398.0591 645.2578,397.0434 Q644.1953,396.0278 644.1953,394.2778 Q644.1953,392.5278 645.2578,391.5122 Q646.3203,390.4966 648.1484,390.4966 Q648.7578,390.4966 649.3203,390.6372 Q649.8828,390.7622 650.3984,391.0434 L650.3984,392.5434 Q649.8672,392.1841 649.3516,392.0278 Q648.8516,391.8559 648.2891,391.8559 Q647.2891,391.8559 646.7109,392.5122 Q646.1328,393.1528 646.1328,394.2778 Q646.1328,395.4028 646.7109,396.0591 Q647.2891,396.6997 648.2891,396.6997 Q648.8516,396.6997 649.3516,396.5434 Q649.8672,396.3716 650.3984,396.0122 L650.3984,397.5122 Z " fill="#FFFFFF"/><text fill="#FFFFFF" font-family="Hack" font-size="14" lengthAdjust="spacing" textLength="77.5947" x="661.6198" y="399.2651">Settlement</text><line style="stroke:#FFFFFF;stroke-width:1;" x1="627.66" x2="750.9998" y1="407.5669" y2="407.5669"/><text fill="#FFFFFF" font-family="Hack" font-size="14" lengthAdjust="spacing" textLength="113.3398" x="632.66" y="424.562">date : DateTime</text><line style="stroke:#FFFFFF;stroke-width:1;" x1="627.66" x2="750.9998" y1="431.8638" y2="431.8638"/></g><!--reverse link Transaction to SimpleTransaction--><g class="link" data-entity-1="ent0005" data-entity-2="ent0008" data-link-type="extension" data-source-line="32" id="lnk9"><path d="M470.203,154.2129 C475.923,220.2629 483.33,305.78 488.43,364.64" fill="none" id="Transaction-backto-SimpleTransaction" style="stroke:#FFFFFF;stroke-width:1;"/><polygon fill="none" points="468.65,136.28,464.2254,154.7305,476.1806,153.6952,468.65,136.28" style="stroke:#FFFFFF;stroke-width:1;"/></g><!--reverse link Transaction to SplitTransaction--><g class="link" data-entity-1="ent0005" data-entity-2="ent0010" data-link-type="extension" data-source-line="38" id="lnk11"><path d="M549.1898,147.8319 C576.2598,170.8219 592.45,184.57 616.09,204.65" fill="none" id="Transaction-backto-SplitTransaction" style="stroke:#FFFFFF;stroke-width:1;"/><polygon fill="none" points="535.47,136.18,545.3058,152.4052,553.0738,143.2587,535.47,136.18" style="stroke:#FFFFFF;stroke-width:1;"/></g><!--link Transaction to User--><g class="link" data-entity-1="ent0005" data-entity-2="ent0004" data-link-type="dependency" data-source-line="46" id="lnk13"><path codeLine="46" d="M431.43,135.94 C417.65,162.3 404.9907,186.5432 393.9607,207.6332" fill="none" id="Transaction-to-User" style="stroke:#FFFFFF;stroke-width:1;"/><polygon fill="#FFFFFF" points="391.18,212.95,398.8955,206.8286,393.4972,208.5194,391.8065,203.1211,391.18,212.95" style="stroke:#FFFFFF;stroke-width:1;"/><text fill="#FFFFFF" font-family="Hack" font-size="13" lengthAdjust="spacing" textLength="6.5" x="421.4244" y="156.0562">*</text><text fill="#FFFFFF" font-family="Hack" font-size="13" lengthAdjust="spacing" textLength="8.271" x="385.5836" y="201.9537">1</text></g><!--link Transaction to Category--><g class="link" data-entity-1="ent0005" data-entity-2="ent0002" data-link-type="dependency" data-source-line="47" id="lnk14"><path codeLine="47" d="M380.61,118.2 C334.69,142.24 282.9655,169.3169 236.5555,193.6169" fill="none" id="Transaction-to-Category" style="stroke:#FFFFFF;stroke-width:1;"/><polygon fill="#FFFFFF" points="231.24,196.4,241.0686,195.7689,235.6695,194.0807,237.3578,188.6816,231.24,196.4" style="stroke:#FFFFFF;stroke-width:1;"/><text fill="#FFFFFF" font-family="Hack" font-size="13" lengthAdjust="spacing" textLength="8.271" x="364.8992" y="118.5511">1</text><text fill="#FFFFFF" font-family="Hack" font-size="13" lengthAdjust="spacing" textLength="8.271" x="235.2909" y="185.6212">1</text></g><!--link User to Home--><g class="link" data-entity-1="ent0004" data-entity-2="ent0003" data-link-type="dependency" data-source-line="48" id="lnk15"><path codeLine="48" d="M359.14,271.95 C340.82,302.39 315.0837,345.1591 296.7237,375.6691" fill="none" id="User-to-Home" style="stroke:#FFFFFF;stroke-width:1;"/><polygon fill="#FFFFFF" points="293.63,380.81,301.6978,375.161,296.2081,376.5259,294.8432,371.0362,293.63,380.81" style="stroke:#FFFFFF;stroke-width:1;"/><text fill="#FFFFFF" font-family="Hack" font-size="13" lengthAdjust="spacing" textLength="6.5" x="349.0279" y="291.6769">*</text><text fill="#FFFFFF" font-family="Hack" font-size="13" lengthAdjust="spacing" textLength="8.271" x="288.4027" y="370.2064">1</text></g><!--link Category to Home--><g class="link" data-entity-1="ent0002" data-entity-2="ent0003" data-link-type="dependency" data-source-line="49" id="lnk16"><path codeLine="49" d="M180.78,288.35 C203.96,317.77 229.8447,350.6087 249.9147,376.0587" fill="none" id="Category-to-Home" style="stroke:#FFFFFF;stroke-width:1;"/><polygon fill="#FFFFFF" points="253.63,380.77,251.1978,371.2262,250.5339,376.8439,244.9161,376.18,253.63,380.77" style="stroke:#FFFFFF;stroke-width:1;"/><text fill="#FFFFFF" font-family="Hack" font-size="13" lengthAdjust="spacing" textLength="6.5" x="179.3789" y="307.9449">*</text><text fill="#FFFFFF" font-family="Hack" font-size="13" lengthAdjust="spacing" textLength="8.271" x="240.1527" y="370.1581">1</text></g><!--link SplitTransaction to SimpleTransaction--><g class="link" data-entity-1="ent0010" data-entity-2="ent0008" data-link-type="dependency" data-source-line="50" id="lnk17"><path codeLine="50" d="M622.26,280.26 C597.28,305.12 568.4122,333.847 541.8722,360.267" fill="none" id="SplitTransaction-to-SimpleTransaction" style="stroke:#FFFFFF;stroke-width:1;"/><polygon fill="#FFFFFF" points="537.62,364.5,546.8204,360.9853,541.1635,360.9725,541.1764,355.3156,537.62,364.5" style="stroke:#FFFFFF;stroke-width:1;"/><text fill="#FFFFFF" font-family="Hack" font-size="13" lengthAdjust="spacing" textLength="57.9541" x="581.83" y="331.0369">balances</text><text fill="#FFFFFF" font-family="Hack" font-size="13" lengthAdjust="spacing" textLength="6.5" x="609.6647" y="299.8547">*</text><text fill="#FFFFFF" font-family="Hack" font-size="13" lengthAdjust="spacing" textLength="8.271" x="535.4454" y="354.0438">1</text></g><!--link SplitTransaction to Settlement--><g class="link" data-entity-1="ent0010" data-entity-2="ent0012" data-link-type="dependency" data-source-line="51" id="lnk18"><path codeLine="51" d="M665.98,280.26 C671.46,310.57 678.034,347.0155 683.064,374.8755" fill="none" id="SplitTransaction-to-Settlement" style="stroke:#FFFFFF;stroke-width:1;"/><polygon fill="#FFFFFF" points="684.13,380.78,686.4673,371.2125,683.2416,375.8596,678.5946,372.6339,684.13,380.78" style="stroke:#FFFFFF;stroke-width:1;"/><text fill="#FFFFFF" font-family="Hack" font-size="13" lengthAdjust="spacing" textLength="6.5" x="660.6259" y="299.8547">*</text><text fill="#FFFFFF" font-family="Hack" font-size="13" lengthAdjust="spacing" textLength="8.271" x="674.2605" y="370.1702">1</text></g><?plantuml-src bLF1JiCm3BttAqml7KWxxDe34e83zuqFy5hJHIHsbQHZ4_3lk5tRbOqnqKkJFFlvlTYvYHjo14vOal1ck4QFhjiM6o-AUDgI3vGaXSKGu14ZLUBty960VdDWrA1-7VSrGGuP4vKPV4BsZXoxXU4jXUX8jtri8LPy3XlQ5L9IyZKKU6wB3kHDOyeZz1B8Zz1vFgv3z5X4E4IlF7BGhH4UaqnOKeoMojcjwboBM4BkiLATwU6J_bR6qTHU3ifik1fBkzR9wN55yS59mt5ssyfXKJvlgaq4UPsgoVCnydYBL64qMu8jsaRReR92smNQGoLQ0gJfQBHRKEEUV1O0YwBbw1bg2UO2GwktvJ0CKNwb6AzuQLnjQNfrj8l4vJ-kSnW6KU-6qVPES-36hSdtA9wS7XNKriIh0iOYEfpUbFItbCl5kfokcGTFfqEWaTEwwLqAy_azf8kqcyQVuE883iyawMPscjRETpA-eZFapFuquhmxQXKjSa7XIkPeDFa6?></g></svg>