<?xml version="1.0" encoding="UTF-8" standalone="no"?>
<!-- Created with Inkscape (http://www.inkscape.org/) -->

<svg
   width="60pt"
   height="60pt"
   viewBox="0 0 30 30"
   version="1.1"
   id="bill-svg"
   inkscape:version="1.2.2 (b0a8486541, 2022-12-01)"
   sodipodi:docname="Bill.svg"
   inkscape:export-filename="Bill.png"
   inkscape:export-xdpi="96"
   inkscape:export-ydpi="96"
   xmlns:inkscape="http://www.inkscape.org/namespaces/inkscape"
   xmlns:sodipodi="http://sodipodi.sourceforge.net/DTD/sodipodi-0.dtd"
   xmlns="http://www.w3.org/2000/svg"
   xmlns:svg="http://www.w3.org/2000/svg">
  <symbol
     id="bill" />
  <sodipodi:namedview
     id="namedview26270"
     pagecolor="#505050"
     bordercolor="#eeeeee"
     borderopacity="1"
     inkscape:showpageshadow="0"
     inkscape:pageopacity="0"
     inkscape:pagecheckerboard="0"
     inkscape:deskcolor="#505050"
     inkscape:document-units="mm"
     showgrid="true"
     showguides="true"
     inkscape:zoom="8.0000004"
     inkscape:cx="41.999998"
     inkscape:cy="57.999997"
     inkscape:window-width="1720"
     inkscape:window-height="1412"
     inkscape:window-x="0"
     inkscape:window-y="28"
     inkscape:window-maximized="0"
     inkscape:current-layer="layer1"
     inkscape:lockguides="true">
    <inkscape:grid
       type="xygrid"
       id="grid26635"
       originx="0"
       originy="0"
       snapvisiblegridlinesonly="true"
       dotted="false" />
  </sodipodi:namedview>
  <defs
     id="defs26265">
    <inkscape:path-effect
       effect="mirror_symmetry"
       start_point="15,3.5623888"
       end_point="15,24.187611"
       center_point="15,13.875"
       id="path-effect1640"
       is_visible="true"
       lpeversion="1.2"
       lpesatellites=""
       mode="free"
       discard_orig_path="false"
       fuse_paths="true"
       oposite_fuse="true"
       split_items="true"
       split_open="false"
       link_styles="false" />
    <inkscape:path-effect
       effect="mirror_symmetry"
       start_point="15,10.125"
       end_point="15,16.125"
       center_point="15,13.125"
       id="path-effect27494"
       is_visible="true"
       lpeversion="1.2"
       lpesatellites=""
       mode="free"
       discard_orig_path="false"
       fuse_paths="false"
       oposite_fuse="true"
       split_items="true"
       split_open="false"
       link_styles="false" />
  </defs>
  <g
     inkscape:label="Layer 1"
     inkscape:groupmode="layer"
     id="layer1"
     transform="translate(0,1.875)">
    <path
       id="path308"
       style="display:inline;fill:none;stroke:#ffffff;stroke-width:1.20472441;stroke-linecap:round;stroke-linejoin:round;stroke-dasharray:none;stroke-opacity:1"
       d="M 4.5,11.625 C 4.875,9 5.0952332,4.8109416 5.625,3.75 5.8615197,3.2763321 5.9277581,3.1644484 6.75,3 L 10.5,1.875 v -0.75 l 1.125,0.75 v -0.75 l 1.125,0.75 v -0.75 l 1.125,0.75 V 1.125 L 15,1.875 v -0.75 l 0.75,0.75 c 2.5,0.25 6.772393,0.9430983 7.5,1.125 0.813489,0.2033723 0.938273,0.323154 1.125,0.75 0.475273,1.0864463 0.75,5.25 1.125,7.875 m -11.625,1.5 c 0.798996,-0.548245 1.54019,-0.449708 2.25,0 m 8.25,-1.5 -0.75,-0.75 L 24.375,10.5 23.625,9.75 24.287935,9.375 23.625,8.625 24.375,8.25 C 23.687005,4.985573 21.010709,3.7300679 16.875,3.75 H 15 M 10.125,4.125 10.875,4.5 V 4.125 L 11.625,4.5 V 4.125 L 12.375,4.5 V 4.125 L 13.125,4.5 V 4.125 L 13.875,4.5 14.562802,3.812198 14.593901,3.781099 14.625,3.75 M 15,21 c 1.137414,0.0018 1.125,0 1.875,-0.375 m 0.375,3.75 c 0.768659,-0.0029 2.694278,-0.0096 3.464338,-0.01929 C 22.734757,24.237287 24.375,22.5 24.375,20.33625 c -0.01126,-2.229172 0.02306,-1.982288 0,-4.21125 m -18.75,-4.5 0.75,-0.75 L 5.625,10.5 6.375,9.75 5.712065,9.375 6.375,8.625 5.625,8.25 C 6.120564,5.8986293 7.647725,4.5895553 10.00883,4.0486624 M 14.612087,3.75 H 15 M 15,21 c -1.137414,0.0018 -1.125,0 -1.875,-0.375 m -0.375,3.75 C 11.981341,24.3721 10.055722,24.3654 9.285662,24.35571 7.265243,24.237287 5.625,22.5 5.625,20.33625 5.63626,18.107078 5.60194,18.353962 5.625,16.125 M 15,23.25 l 0.375,-0.375 0.375,0.375 0.375,-0.375 0.375,0.375 0.375,-0.375 0.375,0.375 v 1.5 L 16.875,25.125 16.5,24.75 16.125,25.125 15.75,24.75 15.375,25.125 15,24.75 M 15,23.25 14.625,22.875 14.25,23.25 13.875,22.875 13.5,23.25 13.125,22.875 12.75,23.25 v 1.5 l 0.375,0.375 0.375,-0.375 0.375,0.375 0.375,-0.375 0.375,0.375 L 15,24.75 M 25.198305,13.896055 c -0.266001,0.167504 -0.599625,-0.01613 -0.717098,-0.276898 -0.183079,-0.406398 0.08396,-0.862928 0.478783,-1.010689 0.543413,-0.203369 1.128577,0.151491 1.30428,0.680667 0.225581,0.679403 -0.218824,1.395288 -0.882553,1.597871 -0.142615,0.04353 -0.292018,0.06409 -0.441077,0.06154 m -0.538589,-3.204232 c 0.953873,-0.323651 2.006631,0.02611 2.577191,0.856216 0.570559,0.830111 0.519883,1.93829 -0.124057,2.712863 -0.643941,0.774573 -1.724227,1.026787 -2.64458,0.617429 M 4.8016947,13.896056 c 0.2660009,0.167502 0.5996258,-0.01613 0.7170983,-0.276899 0.1830791,-0.406398 -0.083957,-0.862929 -0.4787826,-1.010688 -0.543413,-0.20337 -1.1285777,0.151487 -1.30428,0.680666 -0.2255809,0.679403 0.2188243,1.395288 0.8825521,1.597871 0.1426152,0.04353 0.2920183,0.06409 0.4410773,0.06153 m 0.538589,-3.204233 c -0.9538728,-0.323651 -2.0066305,0.0261 -2.5771904,0.856216 -0.570559,0.830112 -0.5198836,1.93829 0.1240589,2.712862 0.6439406,0.774574 1.7242267,1.026788 2.6445795,0.61743 M 16.875,17.625 h 1.875 c 1.125,0 1.465667,1.081262 1.5,1.875 L 19.875,19.125 19.47116,19.5 19.125,19.125 18.75,19.5 18.375,19.125 18,19.5 17.625,19.125 17.25,19.5 16.875,19.125 16.5,19.5 16.125,19.125 15.756385,19.5 15.375,19.125 15,19.5 M 13.125,17.625 H 11.25 c -1.125,0 -1.465667,1.081262 -1.5,1.875 L 10.125,19.125 10.52884,19.5 10.875,19.125 11.25,19.5 11.625,19.125 12,19.5 12.375,19.125 12.75,19.5 13.125,19.125 13.5,19.5 13.875,19.125 14.243615,19.5 14.625,19.125 15,19.5 m 4.125,-6 c 0,0.207107 -0.167893,0.375 -0.375,0.375 -0.207107,0 -0.375,-0.167893 -0.375,-0.375 0,-0.207107 0.167893,-0.375 0.375,-0.375 0.207107,0 0.375,0.167893 0.375,0.375 z m -8.25,0 c 0,0.207107 0.167893,0.375 0.375,0.375 0.207107,0 0.375,-0.167893 0.375,-0.375 0,-0.207107 -0.167893,-0.375 -0.375,-0.375 -0.207107,0 -0.375,0.167893 -0.375,0.375 z m 6,3.375 c 0,1.875 -1.887979,1.877202 -1.875,1.875 m -1.875,-1.875 c 0,1.875 1.887979,1.877202 1.875,1.875 m 7.5,-6.375 h 1.125 L 25.5,10.5 l 0.75,0.75 m -3.375,1.875 c 0,1.863961 -1.511039,3.375 -3.375,3.375 -1.863961,0 -3.375,-1.511039 -3.375,-3.375 0,-1.863961 1.511039,-3.375 3.375,-3.375 1.863961,0 3.375,1.511039 3.375,3.375 z M 7.5,12.375 H 6.375 L 4.5,10.5 3.75,11.25 m 3.375,1.875 c 0,1.863961 1.511039,3.375 3.375,3.375 1.863961,0 3.375,-1.511039 3.375,-3.375 0,-1.863961 -1.511039,-3.375 -3.375,-3.375 -1.863961,0 -3.375,1.511039 -3.375,3.375 z" />
  </g>
</svg>
