<?xml version="1.0" encoding="UTF-8" standalone="no"?>
<!-- Created with Inkscape (http://www.inkscape.org/) -->

<svg
   width="60pt"
   height="60pt"
   viewBox="0 0 30 30"
   version="1.1"
   id="bill-svg"
   inkscape:version="1.2.2 (b0a8486541, 2022-12-01)"
   sodipodi:docname="Bill.svg"
   xmlns:inkscape="http://www.inkscape.org/namespaces/inkscape"
   xmlns:sodipodi="http://sodipodi.sourceforge.net/DTD/sodipodi-0.dtd"
   xmlns="http://www.w3.org/2000/svg"
   xmlns:svg="http://www.w3.org/2000/svg">


<symbol id="bill">
   
</symbol>
  <sodipodi:namedview
     id="namedview26270"
     pagecolor="#505050"
     bordercolor="#eeeeee"
     borderopacity="1"
     inkscape:showpageshadow="0"
     inkscape:pageopacity="0"
     inkscape:pagecheckerboard="0"
     inkscape:deskcolor="#505050"
     inkscape:document-units="mm"
     showgrid="true"
     showguides="true"
     inkscape:zoom="11.313709"
     inkscape:cx="53.828501"
     inkscape:cy="42.779958"
     inkscape:window-width="3440"
     inkscape:window-height="1380"
     inkscape:window-x="0"
     inkscape:window-y="28"
     inkscape:window-maximized="1"
     inkscape:current-layer="layer1"
     inkscape:lockguides="true">
    <inkscape:grid
       type="xygrid"
       id="grid26635"
       originx="0"
       originy="0"
       snapvisiblegridlinesonly="true"
       dotted="false" />
  </sodipodi:namedview>
  <defs
     id="defs26265">
    <inkscape:path-effect
       effect="mirror_symmetry"
       start_point="15,3.5623888"
       end_point="15,24.187611"
       center_point="15,13.875"
       id="path-effect1640"
       is_visible="true"
       lpeversion="1.2"
       lpesatellites="#path2735"
       mode="free"
       discard_orig_path="false"
       fuse_paths="true"
       oposite_fuse="true"
       split_items="true"
       split_open="false"
       link_styles="false" />
    <inkscape:path-effect
       effect="mirror_symmetry"
       start_point="15,10.125"
       end_point="15,16.125"
       center_point="15,13.125"
       id="path-effect27494"
       is_visible="true"
       lpeversion="1.2"
       lpesatellites="#g775"
       mode="free"
       discard_orig_path="false"
       fuse_paths="false"
       oposite_fuse="true"
       split_items="true"
       split_open="false"
       link_styles="false" />
  </defs>
  <g
     inkscape:label="Layer 1"
     inkscape:groupmode="layer"
     id="layer1"
     transform="translate(0,1.875)">
    <g
       id="g27129"
       inkscape:path-effect="#path-effect27494"
       class="UnoptimicedTransforms"
       style="display:inline"
       inkscape:label="mirror">
      <g
         id="g31624"
         inkscape:label="glasses">
        <circle
           style="display:inline;fill:none;fill-opacity:0.176188;stroke:#ffffff;stroke-width:0.354331;stroke-linecap:round;stroke-linejoin:round;stroke-miterlimit:14.9;stroke-dasharray:none;stroke-opacity:1;paint-order:stroke markers fill"
           id="path27126"
           cx="19.5"
           cy="13.125"
           r="3.375"
           inkscape:label="glasses"
           d="M 22.875,13.125 A 3.375,3.375 0 0 1 19.5,16.5 3.375,3.375 0 0 1 16.125,13.125 3.375,3.375 0 0 1 19.5,9.75 a 3.375,3.375 0 0 1 3.375,3.375 z" />
        <path
           style="display:inline;fill:none;fill-opacity:0.176188;stroke:#ffffff;stroke-width:0.354331;stroke-linecap:round;stroke-linejoin:round;stroke-miterlimit:14.9;stroke-dasharray:none;paint-order:stroke markers fill"
           d="m 22.5,12.375 h 1.125 L 25.5,10.5 l 0.75,0.75"
           id="path27866"
           sodipodi:nodetypes="cccc"
           inkscape:original-d="m 22.5,12.375 h 1.125 L 25.5,10.5 l 0.75,0.75"
           inkscape:label="glasses_arm" />
      </g>
      <path
         style="display:inline;fill:none;fill-opacity:0.176188;stroke:#ffffff;stroke-width:0.354331;stroke-linecap:round;stroke-linejoin:round;stroke-miterlimit:14.9;stroke-dasharray:none;paint-order:stroke markers fill"
         d="m 16.875,16.875 c 0,1.875 -1.887979,1.877202 -1.875,1.875"
         id="path28622"
         inkscape:original-d="m 16.875,16.875 c 0,1.875 -1.887979,1.877202 -1.875,1.875"
         sodipodi:nodetypes="cc"
         inkscape:label="nose" />
      <circle
         style="display:inline;fill:none;fill-opacity:0.176188;stroke:#ffffff;stroke-width:0.354331;stroke-linecap:round;stroke-linejoin:round;stroke-miterlimit:14.9;stroke-dasharray:none;paint-order:stroke markers fill"
         id="path27859"
         cx="18.75"
         cy="13.5"
         r="0.375"
         inkscape:label="eye"
         d="M 19.125,13.5 A 0.375,0.375 0 0 1 18.75,13.875 0.375,0.375 0 0 1 18.375,13.5 0.375,0.375 0 0 1 18.75,13.125 0.375,0.375 0 0 1 19.125,13.5 Z" />
      <path
         style="display:inline;fill:none;fill-opacity:0.176188;stroke:#ffffff;stroke-width:0.354331;stroke-linecap:round;stroke-linejoin:round;stroke-miterlimit:14.9;stroke-dasharray:none;paint-order:stroke markers fill"
         d="m 16.875,17.625 h 1.875 c 1.125,0 1.465667,1.081262 1.5,1.875 L 19.875,19.125 19.47116,19.5 19.125,19.125 18.75,19.5 18.375,19.125 18,19.5 17.625,19.125 17.25,19.5 16.875,19.125 16.5,19.5 16.125,19.125 15.756385,19.5 15.375,19.125 15,19.5"
         id="path28624"
         inkscape:original-d="m 16.875,17.625 h 1.875 c 1.125,0 1.465667,1.081262 1.5,1.875 L 19.875,19.125 19.47116,19.5 19.125,19.125 18.75,19.5 18.375,19.125 18,19.5 17.625,19.125 17.25,19.5 16.875,19.125 16.5,19.5 16.125,19.125 15.756385,19.5 15.375,19.125 15,19.5"
         sodipodi:nodetypes="ccccccccccccccccc"
         inkscape:label="mustache" />
      <path
         style="display:inline;fill:none;fill-opacity:0.176188;stroke:#ffffff;stroke-width:0.354331;stroke-linecap:round;stroke-linejoin:round;stroke-miterlimit:14.9;stroke-dasharray:none;paint-order:stroke markers fill"
         d="m 15,23.25 0.375,-0.375 0.375,0.375 0.375,-0.375 0.375,0.375 0.375,-0.375 0.375,0.375 v 1.5 L 16.875,25.125 16.5,24.75 16.125,25.125 15.75,24.75 15.375,25.125 15,24.75"
         id="path28632"
         inkscape:original-d="m 15,23.25 0.375,-0.375 0.375,0.375 0.375,-0.375 0.375,0.375 0.375,-0.375 0.375,0.375 v 1.5 L 16.875,25.125 16.5,24.75 16.125,25.125 15.75,24.75 15.375,25.125 15,24.75"
         sodipodi:nodetypes="cccccccccccccc"
         inkscape:label="beard_chin" />
      <g
         id="g31629"
         inkscape:label="ear"
         style="display:inline">
        <path
           style="display:inline;fill:none;fill-opacity:0.176188;stroke:#ffffff;stroke-width:0.354331;stroke-linecap:round;stroke-linejoin:round;stroke-miterlimit:14.9;stroke-dasharray:none;paint-order:stroke markers fill"
           id="path27869"
           sodipodi:type="arc"
           sodipodi:cx="25.125"
           sodipodi:cy="13.875"
           sodipodi:rx="2.25"
           sodipodi:ry="2.25"
           sodipodi:start="4.3852756"
           sodipodi:end="1.9893043"
           sodipodi:arc-type="arc"
           d="m 24.402051,11.744309 a 2.25,2.25 0 0 1 2.577191,0.856216 2.25,2.25 0 0 1 -0.124057,2.712863 2.25,2.25 0 0 1 -2.64458,0.617429"
           sodipodi:open="true"
           inkscape:label="ear_outer" />
        <path
           sodipodi:type="spiral"
           style="fill:none;fill-rule:evenodd;stroke:#ffffff;stroke-width:0.375;stroke-linecap:round;stroke-linejoin:round;stroke-opacity:1"
           id="path28636"
           sodipodi:cx="21.152693"
           sodipodi:cy="10.779941"
           sodipodi:expansion="1"
           sodipodi:revolution="1.4489484"
           sodipodi:radius="1.4602233"
           sodipodi:argument="-18.33041"
           sodipodi:t0="0.27583635"
           d="m 20.752399,10.82465 c -0.147993,-0.27733 0.0591,-0.596924 0.327619,-0.695391 0.418483,-0.1534587 0.854684,0.145634 0.973745,0.550041 0.163869,0.5566 -0.232047,1.114805 -0.772463,1.2521 -0.693833,0.17627 -1.375999,-0.318337 -1.530455,-0.994886 -0.03319,-0.14537 -0.04298,-0.295863 -0.02974,-0.444355"
           transform="rotate(-94.113059,24.404588,10.291512)"
           inkscape:transform-center-x="9.35777"
           inkscape:transform-center-y="0.090822536"
           inkscape:label="ear_outer" />
      </g>
    </g>
    <g
       id="g2763"
       inkscape:label="head"
       style="display:inline"
       transform="matrix(-1,0,0,1,30,0)">
      <path
         id="path26637"
         style="display:inline;fill:none;fill-opacity:0.176188;stroke:#ffffff;stroke-width:0.354331;stroke-linecap:round;stroke-linejoin:round;stroke-miterlimit:14.9;stroke-dasharray:none;paint-order:stroke markers fill"
         d="m 15,21 c 1.137414,0.0018 1.125,0 1.875,-0.375 m 0.375,3.75 c 0.768659,-0.0029 2.694278,-0.0096 3.464338,-0.01929 C 22.734757,24.237287 24.375,22.5 24.375,20.33625 c -0.01126,-2.229172 0.02306,-1.982288 0,-4.21125"
         sodipodi:nodetypes="cccccc"
         inkscape:original-d="m 15,21 c 1.137414,0.0018 1.125,0 1.875,-0.375 m 0.375,3.75 c 0.768659,-0.0029 2.694278,-0.0096 3.464338,-0.01929 C 22.734757,24.237287 24.375,22.5 24.375,20.33625 c -0.01126,-2.229172 0.02306,-1.982288 0,-4.21125"
         inkscape:label="head"
         inkscape:path-effect="#path-effect1640"
         class="UnoptimicedTransforms" />
      <path
         style="display:inline;fill:none;stroke:#ffffff;stroke-width:0.354331;stroke-linecap:round;stroke-linejoin:round;stroke-dasharray:none;stroke-opacity:1"
         d="M 24.375,11.625 23.625,10.875 24.375,10.5 23.625,9.75 24.287935,9.375 23.625,8.625 24.375,8.25 C 23.879436,5.8986293 22.352275,4.5895553 19.99117,4.0486624 M 15.387913,3.75 H 15"
         id="path4385"
         sodipodi:nodetypes="cccccccccc"
         inkscape:label="hair_side"
         inkscape:original-d="M 24.375,11.625 23.625,10.875 24.375,10.5 23.625,9.75 24.287935,9.375 23.625,8.625 24.375,8.25 C 23.879436,5.8986293 22.352275,4.5895553 19.99117,4.0486624 M 15.387913,3.75 H 15" />
      <path
         class="UnoptimicedTransforms"
         id="path2735"
         d="m 15,21 c 1.137414,0.0018 1.125,0 1.875,-0.375 m 0.375,3.75 c 0.768659,-0.0029 2.694278,-0.0096 3.464338,-0.01929 C 22.734757,24.237287 24.375,22.5 24.375,20.33625 c -0.01126,-2.229172 0.02306,-1.982288 0,-4.21125"
         style="display:inline;fill:none;fill-opacity:0.176188;stroke:#ffffff;stroke-width:0.354331;stroke-linecap:round;stroke-linejoin:round;stroke-miterlimit:14.9;stroke-dasharray:none;paint-order:stroke markers fill"
         transform="matrix(-1,0,0,1,30,0)"
         inkscape:label="head_left"
         sodipodi:nodetypes="ccccsccccccc" />
      <path
         style="display:inline;fill:none;stroke:#ffffff;stroke-width:0.354331;stroke-linecap:round;stroke-linejoin:round;stroke-dasharray:none;stroke-opacity:1"
         d="M 10.125,4.125 10.875,4.5 V 4.125 L 11.625,4.5 V 4.125 L 12.375,4.5 V 4.125 L 13.125,4.5 V 4.125 L 13.875,4.5 14.562802,3.812198 14.593901,3.781099 14.625,3.75"
         id="path1204"
         sodipodi:nodetypes="ccccccccccccc"
         inkscape:label="hair_forehead"
         transform="matrix(-1,0,0,1,30,0)" />
    </g>
    <path
       style="display:inline;fill:none;stroke:#ffffff;stroke-width:0.354331;stroke-linecap:round;stroke-linejoin:round;stroke-dasharray:none;stroke-opacity:1"
       d="M 24.375,11.625 23.625,10.875 24.375,10.5 23.625,9.75 24.287935,9.375 23.625,8.625 24.375,8.25 C 23.687005,4.985573 21.010709,3.7300679 16.875,3.75 H 15"
       id="path427"
       sodipodi:nodetypes="ccccccccc"
       inkscape:label="hair_side"
       inkscape:original-d="M 24.375,11.625 23.625,10.875 24.375,10.5 23.625,9.75 24.287935,9.375 23.625,8.625 24.375,8.25 C 23.687005,4.985573 21.010709,3.7300679 16.875,3.75 H 15" />
    <path
       style="display:inline;fill:none;fill-opacity:0.176188;stroke:#ffffff;stroke-width:0.354331;stroke-linecap:round;stroke-linejoin:round;stroke-miterlimit:14.9;stroke-dasharray:none;paint-order:stroke markers fill"
       d="m 13.875,13.125 c 0.798996,-0.548245 1.54019,-0.449708 2.25,0"
       id="path27864"
       sodipodi:nodetypes="cc"
       inkscape:label="glasses_middle" />
    <path
       style="display:inline;fill:none;stroke:#ffffff;stroke-width:0.354331;stroke-linecap:round;stroke-linejoin:round;stroke-dasharray:none;stroke-opacity:1"
       d="M 4.5,11.625 C 4.875,9 5.0952332,4.8109416 5.625,3.75 5.8615197,3.2763321 5.9277581,3.1644484 6.75,3 L 10.5,1.875 v -0.75 l 1.125,0.75 v -0.75 l 1.125,0.75 v -0.75 l 1.125,0.75 V 1.125 L 15,1.875 v -0.75 l 0.75,0.75 c 2.5,0.25 6.772393,0.9430983 7.5,1.125 0.813489,0.2033723 0.938273,0.323154 1.125,0.75 0.475273,1.0864463 0.75,5.25 1.125,7.875"
       id="path308"
       sodipodi:nodetypes="csscccccccccccssc" />
    <g
       class="UnoptimicedTransforms"
       id="g775"
       style="display:inline"
       transform="matrix(-1,0,0,1,30,0)">
      <g
         id="g759">
        <path
           id="path755"
           d="M 22.875,13.125 A 3.375,3.375 0 0 1 19.5,16.5 3.375,3.375 0 0 1 16.125,13.125 3.375,3.375 0 0 1 19.5,9.75 a 3.375,3.375 0 0 1 3.375,3.375 z"
           style="display:inline;fill:none;fill-opacity:0.176188;stroke:#ffffff;stroke-width:0.354331;stroke-linecap:round;stroke-linejoin:round;stroke-miterlimit:14.9;stroke-dasharray:none;stroke-opacity:1;paint-order:stroke markers fill" />
        <path
           id="path757"
           d="m 22.5,12.375 h 1.125 L 25.5,10.5 l 0.75,0.75"
           style="display:inline;fill:none;fill-opacity:0.176188;stroke:#ffffff;stroke-width:0.354331;stroke-linecap:round;stroke-linejoin:round;stroke-miterlimit:14.9;stroke-dasharray:none;paint-order:stroke markers fill" />
      </g>
      <path
         id="path761"
         d="m 16.875,16.875 c 0,1.875 -1.887979,1.877202 -1.875,1.875"
         style="display:inline;fill:none;fill-opacity:0.176188;stroke:#ffffff;stroke-width:0.354331;stroke-linecap:round;stroke-linejoin:round;stroke-miterlimit:14.9;stroke-dasharray:none;paint-order:stroke markers fill" />
      <path
         id="path763"
         d="M 19.125,13.5 A 0.375,0.375 0 0 1 18.75,13.875 0.375,0.375 0 0 1 18.375,13.5 0.375,0.375 0 0 1 18.75,13.125 0.375,0.375 0 0 1 19.125,13.5 Z"
         style="display:inline;fill:none;fill-opacity:0.176188;stroke:#ffffff;stroke-width:0.354331;stroke-linecap:round;stroke-linejoin:round;stroke-miterlimit:14.9;stroke-dasharray:none;paint-order:stroke markers fill" />
      <path
         id="path765"
         d="m 16.875,17.625 h 1.875 c 1.125,0 1.465667,1.081262 1.5,1.875 L 19.875,19.125 19.47116,19.5 19.125,19.125 18.75,19.5 18.375,19.125 18,19.5 17.625,19.125 17.25,19.5 16.875,19.125 16.5,19.5 16.125,19.125 15.756385,19.5 15.375,19.125 15,19.5"
         style="display:inline;fill:none;fill-opacity:0.176188;stroke:#ffffff;stroke-width:0.354331;stroke-linecap:round;stroke-linejoin:round;stroke-miterlimit:14.9;stroke-dasharray:none;paint-order:stroke markers fill" />
      <path
         id="path767"
         d="m 15,23.25 0.375,-0.375 0.375,0.375 0.375,-0.375 0.375,0.375 0.375,-0.375 0.375,0.375 v 1.5 L 16.875,25.125 16.5,24.75 16.125,25.125 15.75,24.75 15.375,25.125 15,24.75"
         style="display:inline;fill:none;fill-opacity:0.176188;stroke:#ffffff;stroke-width:0.354331;stroke-linecap:round;stroke-linejoin:round;stroke-miterlimit:14.9;stroke-dasharray:none;paint-order:stroke markers fill" />
      <g
         id="g773"
         style="display:inline">
        <path
           id="path769"
           d="m 24.402051,11.744309 a 2.25,2.25 0 0 1 2.577191,0.856216 2.25,2.25 0 0 1 -0.124057,2.712863 2.25,2.25 0 0 1 -2.64458,0.617429"
           style="display:inline;fill:none;fill-opacity:0.176188;stroke:#ffffff;stroke-width:0.354331;stroke-linecap:round;stroke-linejoin:round;stroke-miterlimit:14.9;stroke-dasharray:none;paint-order:stroke markers fill" />
        <path
           transform="rotate(-94.113059,24.404588,10.291512)"
           id="path771"
           d="m 20.752399,10.82465 c -0.147993,-0.27733 0.0591,-0.596924 0.327619,-0.695391 0.418483,-0.1534587 0.854684,0.145634 0.973745,0.550041 0.163869,0.5566 -0.232047,1.114805 -0.772463,1.2521 -0.693833,0.17627 -1.375999,-0.318337 -1.530455,-0.994886 -0.03319,-0.14537 -0.04298,-0.295863 -0.02974,-0.444355"
           style="fill:none;fill-rule:evenodd;stroke:#ffffff;stroke-width:0.375;stroke-linecap:round;stroke-linejoin:round;stroke-opacity:1" />
      </g>
    </g>
  </g>
</svg>
