<?xml version="1.0" encoding="UTF-8" standalone="no"?>
<!-- Created with Inkscape (http://www.inkscape.org/) -->

<svg
   width="60pt"
   height="60pt"
   viewBox="0 0 30 30"
   version="1.1"
   id="svg26268"
   inkscape:version="1.2.2 (b0a8486541, 2022-12-01)"
   sodipodi:docname="Bill.svg"
   xmlns:inkscape="http://www.inkscape.org/namespaces/inkscape"
   xmlns:sodipodi="http://sodipodi.sourceforge.net/DTD/sodipodi-0.dtd"
   xmlns="http://www.w3.org/2000/svg"
   xmlns:svg="http://www.w3.org/2000/svg">
  <sodipodi:namedview
     id="namedview26270"
     pagecolor="#505050"
     bordercolor="#eeeeee"
     borderopacity="1"
     inkscape:showpageshadow="0"
     inkscape:pageopacity="0"
     inkscape:pagecheckerboard="0"
     inkscape:deskcolor="#505050"
     inkscape:document-units="mm"
     showgrid="true"
     showguides="true"
     inkscape:zoom="12.860614"
     inkscape:cx="33.979716"
     inkscape:cy="21.460873"
     inkscape:window-width="3440"
     inkscape:window-height="1412"
     inkscape:window-x="0"
     inkscape:window-y="28"
     inkscape:window-maximized="1"
     inkscape:current-layer="g27129">
    <inkscape:grid
       type="xygrid"
       id="grid26635"
       originx="0"
       originy="0" />
  </sodipodi:namedview>
  <defs
     id="defs26265">
    <inkscape:path-effect
       effect="mirror_symmetry"
       start_point="15,10.125"
       end_point="15,16.125"
       center_point="15,13.125"
       id="path-effect27494"
       is_visible="true"
       lpeversion="1.2"
       lpesatellites=""
       mode="free"
       discard_orig_path="false"
       fuse_paths="false"
       oposite_fuse="true"
       split_items="false"
       split_open="false"
       link_styles="false" />
  </defs>
  <g
     inkscape:label="Layer 1"
     inkscape:groupmode="layer"
     id="layer1">
    <g
       id="g27129"
       inkscape:path-effect="#path-effect27494"
       class="UnoptimicedTransforms"
       style="display:inline"
       inkscape:label="mirror">
      <circle
         style="fill:none;fill-opacity:0.176188;stroke:#ffffff;stroke-width:0.354331;stroke-linecap:round;stroke-linejoin:round;stroke-miterlimit:14.9;stroke-dasharray:none;paint-order:stroke markers fill"
         id="path27126"
         cx="19.5"
         cy="13.125"
         r="3.375"
         d="m 22.875,13.125 c 0,1.863961 -1.511039,3.375 -3.375,3.375 -1.863961,0 -3.375,-1.511039 -3.375,-3.375 0,-1.863961 1.511039,-3.375 3.375,-3.375 1.863961,0 3.375,1.511039 3.375,3.375 z m -15.75,0 c 0,1.863961 1.511039,3.375 3.375,3.375 1.863961,0 3.375,-1.511039 3.375,-3.375 0,-1.863961 -1.511039,-3.375 -3.375,-3.375 -1.863961,0 -3.375,1.511039 -3.375,3.375 z" />
      <circle
         style="display:inline;fill:none;fill-opacity:0.176188;stroke:#ffffff;stroke-width:0.354331;stroke-linecap:round;stroke-linejoin:round;stroke-miterlimit:14.9;stroke-dasharray:none;paint-order:stroke markers fill"
         id="path27859"
         cx="18.75"
         cy="13.5"
         r="0.375"
         d="m 19.125,13.5 c 0,0.207107 -0.167893,0.375 -0.375,0.375 -0.207107,0 -0.375,-0.167893 -0.375,-0.375 0,-0.207107 0.167893,-0.375 0.375,-0.375 0.207107,0 0.375,0.167893 0.375,0.375 z m -8.25,0 c 0,0.207107 0.167893,0.375 0.375,0.375 0.207107,0 0.375,-0.167893 0.375,-0.375 0,-0.207107 -0.167893,-0.375 -0.375,-0.375 -0.207107,0 -0.375,0.167893 -0.375,0.375 z" />
      <path
         id="path26637"
         style="display:inline;fill:none;fill-opacity:0.176188;stroke:#ffffff;stroke-width:0.354331;stroke-linecap:round;stroke-linejoin:round;stroke-miterlimit:14.9;stroke-dasharray:none;paint-order:stroke markers fill"
         d="m 24.375,12 c 0,-0.75 0.02389,-0.83119 0,-1.5 0,-4.875 -2.543805,-6.7738864 -7.5,-6.75 H 15 M 15,21 c 1.137414,0.0018 1.125,0 1.875,-0.375 m 0.375,3.75 c 0.768659,-0.0029 2.694278,-0.0096 3.464338,-0.01929 C 22.734757,24.237287 24.375,22.5 24.375,20.33625 c -0.01126,-2.229172 0.02306,-1.982288 0,-4.21125 M 5.625,12 c 0,-0.75 -0.02389,-0.83119 0,-1.5 0,-4.875 2.543805,-6.7738864 7.5,-6.75 H 15 M 15,21 c -1.137414,0.0018 -1.125,0 -1.875,-0.375 m -0.375,3.75 C 11.981341,24.3721 10.055722,24.3654 9.285662,24.35571 7.265243,24.237287 5.625,22.5 5.625,20.33625 5.63626,18.107078 5.60194,18.353962 5.625,16.125"
         sodipodi:nodetypes="cccccccccc"
         inkscape:original-d="m 24.375,12 c 0,-0.75 0.02389,-0.83119 0,-1.5 0,-4.875 -2.543805,-6.7738864 -7.5,-6.75 H 15 M 15,21 c 1.137414,0.0018 1.125,0 1.875,-0.375 m 0.375,3.75 c 0.768659,-0.0029 2.694278,-0.0096 3.464338,-0.01929 C 22.734757,24.237287 24.375,22.5 24.375,20.33625 c -0.01126,-2.229172 0.02306,-1.982288 0,-4.21125" />
      <path
         style="fill:none;fill-opacity:0.176188;stroke:#ffffff;stroke-width:0.354331;stroke-linecap:round;stroke-linejoin:round;stroke-miterlimit:14.9;stroke-dasharray:none;paint-order:stroke markers fill"
         id="path27869"
         sodipodi:type="arc"
         sodipodi:cx="25.125"
         sodipodi:cy="13.875"
         sodipodi:rx="2.25"
         sodipodi:ry="2.25"
         sodipodi:start="4.3852756"
         sodipodi:end="1.9893043"
         sodipodi:arc-type="arc"
         d="m 24.402051,11.744309 c 0.953872,-0.323652 2.006631,0.0261 2.577191,0.856216 0.57056,0.830111 0.519884,1.93829 -0.124057,2.712863 -0.643941,0.774573 -1.724227,1.026787 -2.64458,0.617429 M 5.5979493,11.744309 c -0.9538726,-0.323652 -2.006631,0.0261 -2.577191,0.856216 -0.5705601,0.830111 -0.519884,1.93829 0.1240569,2.712863 0.6439409,0.774573 1.7242268,1.026787 2.6445795,0.617429"
         sodipodi:open="true" />
      <path
         style="fill:none;fill-opacity:0.176188;stroke:#ffffff;stroke-width:0.354331;stroke-linecap:round;stroke-linejoin:round;stroke-miterlimit:14.9;stroke-dasharray:none;paint-order:stroke markers fill"
         d="m 22.5,12.375 h 1.125 L 24.75,11.25 M 7.5,12.375 H 6.375 L 5.25,11.25"
         id="path27866"
         sodipodi:nodetypes="ccc"
         inkscape:original-d="m 22.5,12.375 h 1.125 L 24.75,11.25" />
      <path
         style="fill:none;fill-opacity:0.176188;stroke:#ffffff;stroke-width:0.354331;stroke-linecap:round;stroke-linejoin:round;stroke-miterlimit:14.9;stroke-dasharray:none;paint-order:stroke markers fill"
         d="m 16.875,16.875 c 0,1.875 -1.887979,1.877202 -1.875,1.875 m -1.875,-1.875 c 0,1.875 1.887979,1.877202 1.875,1.875"
         id="path28622"
         inkscape:original-d="m 16.875,16.875 c 0,1.875 -1.887979,1.877202 -1.875,1.875"
         sodipodi:nodetypes="cc" />
      <path
         style="fill:none;fill-opacity:0.176188;stroke:#ffffff;stroke-width:0.354331;stroke-linecap:round;stroke-linejoin:round;stroke-miterlimit:14.9;stroke-dasharray:none;paint-order:stroke markers fill"
         d="m 16.875,17.625 h 1.875 c 1.125,0 1.465667,1.081262 1.5,1.875 L 19.875,19.125 19.47116,19.5 19.125,19.125 18.75,19.5 18.375,19.125 18,19.5 17.625,19.125 17.25,19.5 16.875,19.125 16.5,19.5 16.125,19.125 15.756385,19.5 15.375,19.125 15,19.5 M 13.125,17.625 H 11.25 c -1.125,0 -1.465667,1.081262 -1.5,1.875 L 10.125,19.125 10.52884,19.5 10.875,19.125 11.25,19.5 11.625,19.125 12,19.5 12.375,19.125 12.75,19.5 13.125,19.125 13.5,19.5 13.875,19.125 14.243615,19.5 14.625,19.125 15,19.5"
         id="path28624"
         inkscape:original-d="m 16.875,17.625 h 1.875 c 1.125,0 1.465667,1.081262 1.5,1.875 L 19.875,19.125 19.47116,19.5 19.125,19.125 18.75,19.5 18.375,19.125 18,19.5 17.625,19.125 17.25,19.5 16.875,19.125 16.5,19.5 16.125,19.125 15.756385,19.5 15.375,19.125 15,19.5"
         sodipodi:nodetypes="ccccccccccccccccc" />
      <path
         style="fill:none;fill-opacity:0.176188;stroke:#ffffff;stroke-width:0.354331;stroke-linecap:round;stroke-linejoin:round;stroke-miterlimit:14.9;stroke-dasharray:none;paint-order:stroke markers fill"
         d="m 15,23.25 0.375,-0.375 0.375,0.375 0.375,-0.375 0.375,0.375 0.375,-0.375 0.375,0.375 v 1.5 L 16.875,25.125 16.5,24.75 16.125,25.125 15.75,24.75 15.375,25.125 15,24.75 M 15,23.25 14.625,22.875 14.25,23.25 13.875,22.875 13.5,23.25 13.125,22.875 12.75,23.25 v 1.5 l 0.375,0.375 0.375,-0.375 0.375,0.375 0.375,-0.375 0.375,0.375 L 15,24.75"
         id="path28632"
         inkscape:original-d="m 15,23.25 0.375,-0.375 0.375,0.375 0.375,-0.375 0.375,0.375 0.375,-0.375 0.375,0.375 v 1.5 L 16.875,25.125 16.5,24.75 16.125,25.125 15.75,24.75 15.375,25.125 15,24.75"
         sodipodi:nodetypes="cccccccccccccc" />
      <path
         sodipodi:type="spiral"
         style="fill:none;fill-rule:evenodd;stroke:#ffffff;stroke-width:0.375;stroke-linecap:round;stroke-linejoin:round;stroke-opacity:1"
         id="path28636"
         sodipodi:cx="21.152693"
         sodipodi:cy="10.779941"
         sodipodi:expansion="1"
         sodipodi:revolution="1.4489484"
         sodipodi:radius="1.4602233"
         sodipodi:argument="-18.33041"
         sodipodi:t0="0.27583635"
         d="m 20.752399,10.82465 c -0.147993,-0.27733 0.0591,-0.596924 0.327619,-0.695391 0.418483,-0.1534587 0.854684,0.145634 0.973745,0.550041 0.163869,0.5566 -0.232047,1.114805 -0.772463,1.2521 -0.693833,0.17627 -1.375999,-0.318337 -1.530455,-0.994886 -0.03319,-0.14537 -0.04298,-0.295863 -0.02974,-0.444355 m 2.494234,-20.011587 c -0.186152,0.2533009 -0.02692,0.5992379 0.224751,0.735112 0.39222,0.2117559 0.866727,-0.021848 1.042426,-0.4050581 0.241822,-0.5274271 -0.07015,-1.1365359 -0.585365,-1.3497419 -0.661473,-0.27373 -1.407389,0.118184 -1.657056,0.7656725 -0.05364,0.1391253 -0.08487,0.2866679 -0.09301,0.4355279"
         transform="rotate(-94.113059,24.404588,10.291512)"
         inkscape:transform-center-x="9.35777"
         inkscape:transform-center-y="0.090822536" />
    </g>
    <path
       style="fill:none;fill-opacity:0.176188;stroke:#ffffff;stroke-width:0.354331;stroke-linecap:round;stroke-linejoin:round;stroke-miterlimit:14.9;stroke-dasharray:none;paint-order:stroke markers fill"
       d="m 13.875,13.125 c 0.798996,-0.548245 1.54019,-0.449708 2.25,0"
       id="path27864"
       sodipodi:nodetypes="cc" />
  </g>
</svg>
